<svg width="64" height="64" viewBox="0 0 64 64" fill="none" xmlns="http://www.w3.org/2000/svg">
<path d="M9.40688 57.0613L4.37988 0.675781H59.6199L54.5879 57.0528L31.9664 63.3243L9.40688 57.0613Z" fill="#1572B6"/>
<path d="M32.0005 58.5311L50.28 53.4631L54.5805 5.28613H32.0005V58.5311Z" fill="#33A9DC"/>
<path d="M32.0005 25.7143H41.1515L41.7835 18.6328H32.0005V11.7173H49.3415L49.1755 13.5728L47.4755 32.6298H32.0005V25.7143Z" fill="white"/>
<path d="M32.0415 43.6744L32.011 43.6834L24.3095 41.6039L23.817 36.0884H16.876L17.8445 46.9469L32.01 50.8784L32.0415 50.8694V43.6744Z" fill="#EBEBEB"/>
<path d="M40.5635 32.3374L39.7305 41.5984L32.0175 43.6804V50.8754L46.1945 46.9464L46.2985 45.7779L47.5015 32.3374H40.5635Z" fill="white"/>
<path d="M32.0239 11.7173V18.6328H15.3199L15.1814 17.0788L14.8664 13.5728L14.7009 11.7173H32.0239ZM32.0004 25.7153V32.6308H24.3959L24.2574 31.0768L23.9419 27.5708L23.7769 25.7153H32.0004Z" fill="#EBEBEB"/>
</svg>
