<svg width="64" height="64" viewBox="0 0 64 64" fill="none" xmlns="http://www.w3.org/2000/svg">
<path d="M62.371 29.1889L34.8125 1.6319C33.2265 0.0449004 30.6525 0.0449004 29.064 1.6319L23.3425 7.3549L30.6015 14.6139C32.289 14.0444 34.223 14.4264 35.5675 15.7709C36.2082 16.4122 36.6556 17.2209 36.8583 18.1045C37.0611 18.9881 37.0111 19.9109 36.714 20.7674L43.71 27.7644C45.4025 27.1809 47.356 27.5579 48.707 28.9119C50.597 30.8004 50.597 33.8619 48.707 35.7514C48.2579 36.2008 47.7246 36.5572 47.1376 36.8004C46.5507 37.0436 45.9216 37.1688 45.2863 37.1688C44.6509 37.1688 44.0218 37.0436 43.4349 36.8004C42.8479 36.5572 42.3146 36.2008 41.8655 35.7514C41.1907 35.0762 40.7307 34.2164 40.5434 33.2804C40.3561 32.3443 40.4499 31.3738 40.813 30.4909L34.289 23.9664L34.288 41.1369C34.7613 41.37 35.1935 41.6787 35.5675 42.0509C37.457 43.9394 37.457 46.9999 35.5675 48.8924C33.678 50.7809 30.6155 50.7809 28.728 48.8924C26.839 47.0004 26.684 43.9399 28.5725 42.0509C29.0395 41.5844 29.5 41.2319 30 40.9959V23.6664C29.5 23.4304 29.04 23.0804 28.572 22.6109C27.1415 21.1809 26.874 19.0809 27.608 17.3229L20.4915 10.1664L1.6145 29.0614C0.0270003 30.6499 0.0370003 33.2239 1.6245 34.8114L29.1875 62.3684C30.774 63.9554 33.35 63.9554 34.939 62.3684L62.369 34.9394C63.9565 33.3514 63.958 30.7759 62.371 29.1889Z" fill="#F34F29"/>
</svg>
