<svg width="64" height="64" viewBox="0 0 64 64" fill="none" xmlns="http://www.w3.org/2000/svg">
<path fill-rule="evenodd" clip-rule="evenodd" d="M32 2.55151C15.3265 2.55151 1.806 16.069 1.806 32.7455C1.806 46.0865 10.4575 57.404 22.4545 61.397C23.963 61.677 24.517 60.742 24.517 59.9445C24.517 59.2245 24.489 56.846 24.476 54.323C16.076 56.1495 14.3035 50.7605 14.3035 50.7605C12.93 47.2705 10.951 46.3425 10.951 46.3425C8.211 44.4685 11.1575 44.5075 11.1575 44.5075C14.189 44.72 15.786 47.619 15.786 47.619C18.479 52.234 22.8495 50.9 24.5725 50.129C24.8435 48.1775 25.626 46.845 26.4895 46.091C19.783 45.3285 12.7325 42.739 12.7325 31.1695C12.7325 27.873 13.9125 25.1795 15.844 23.0645C15.53 22.3045 14.4965 19.2335 16.136 15.0745C16.136 15.0745 18.671 14.263 24.441 18.1695C26.85 17.5 29.4335 17.1635 32 17.152C34.565 17.1635 37.15 17.499 39.5635 18.1685C45.3265 14.262 47.8585 15.0735 47.8585 15.0735C49.502 19.232 48.4685 22.3035 48.155 23.0635C50.091 25.1785 51.2625 27.872 51.2625 31.1685C51.2625 42.7655 44.199 45.3185 37.4755 46.0665C38.559 47.0035 39.524 48.8415 39.524 51.658C39.524 55.698 39.489 58.9495 39.489 59.944C39.489 60.7475 40.033 61.689 41.563 61.3925C53.553 57.3955 62.1945 46.0815 62.1945 32.7455C62.194 16.07 48.675 2.55201 32 2.55201V2.55151Z" fill="white"/>
<path d="M13.242 45.903C13.1755 46.053 12.9395 46.098 12.7245 45.9955C12.5045 45.8975 12.382 45.693 12.453 45.5425C12.518 45.3875 12.7545 45.345 12.973 45.4485C13.193 45.547 13.318 45.7535 13.2415 45.9035L13.242 45.903ZM14.465 47.2675C14.3215 47.401 14.04 47.339 13.849 47.1275C13.651 46.9175 13.614 46.636 13.7605 46.5005C13.9095 46.3675 14.1825 46.4305 14.3805 46.6405C14.5775 46.8535 14.6165 47.1325 14.4655 47.268L14.465 47.2675ZM15.656 49.006C15.471 49.135 15.168 49.0145 14.981 48.746C14.796 48.477 14.796 48.1545 14.986 48.026C15.1725 47.897 15.471 48.0135 15.661 48.2795C15.845 48.552 15.845 48.8745 15.656 49.0055V49.006ZM17.2865 50.6865C17.1215 50.869 16.7685 50.82 16.5105 50.5715C16.247 50.328 16.1735 49.9815 16.339 49.7995C16.507 49.6165 16.8615 49.6675 17.121 49.9145C17.3845 50.1575 17.464 50.5045 17.2875 50.686L17.2865 50.6865ZM19.5365 51.662C19.463 51.8985 19.124 52.006 18.7815 51.905C18.44 51.8015 18.2165 51.525 18.2865 51.286C18.3565 51.0475 18.698 50.936 19.0425 51.0435C19.384 51.1465 19.6075 51.4215 19.5365 51.662ZM22.008 51.8425C22.0165 52.0915 21.7265 52.2975 21.368 52.3025C21.0065 52.311 20.714 52.109 20.7105 51.864C20.7105 51.6125 20.9945 51.409 21.3555 51.402C21.714 51.3955 22.0085 51.5955 22.0085 51.842L22.008 51.8425ZM24.307 51.4515C24.35 51.694 24.1005 51.9435 23.744 52.01C23.394 52.075 23.069 51.924 23.024 51.6835C22.981 51.4345 23.235 51.185 23.585 51.1205C23.942 51.059 24.262 51.2055 24.307 51.452V51.4515Z" fill="white"/>
</svg>
