<svg width="64" height="64" viewBox="0 0 64 64" fill="none" xmlns="http://www.w3.org/2000/svg">
<path d="M9.51849 56.9381L4.51599 0.830566H59.484L54.476 56.9296L31.9665 63.1696L9.51849 56.9381Z" fill="#E44D26"/>
<path d="M32 58.4L50.189 53.357L54.4685 5.41797H32V58.4Z" fill="#F16529"/>
<path d="M32 26.2276H22.894L22.265 19.1806H32V12.2996H14.7445L14.9095 14.1456L16.6005 33.1091H32V26.2276ZM32 44.0991L31.9695 44.1076L24.306 42.0376L23.8165 36.5501H16.908L17.872 47.3546L31.9685 51.2676L32 51.2591V44.0991Z" fill="#EBEBEB"/>
<path d="M31.976 26.2276V33.1091H40.4495L39.651 42.0336L31.976 44.1051V51.2646L46.0835 47.3546L46.187 46.1921L47.804 28.0756L47.9715 26.2276H46.1175H31.976ZM31.976 12.2996V19.1806H48.598L48.736 17.6346L49.05 14.1456L49.2145 12.2996H31.976Z" fill="white"/>
</svg>
