<svg width="64" height="64" viewBox="0 0 64 64" fill="none" xmlns="http://www.w3.org/2000/svg">
<path fill-rule="evenodd" clip-rule="evenodd" d="M44.019 21.406C44.8215 23.7275 45.3995 26.0975 45.5895 28.554C45.8255 31.6015 45.7175 34.6275 45.075 37.625C45.0575 37.7075 45.0205 37.785 44.993 37.865C44.7915 37.8655 44.586 37.8405 44.389 37.871C42.7245 38.1325 41.0615 38.4035 39.3985 38.673C37.6795 38.9515 35.958 39.219 34.242 39.5165C33.634 39.6215 32.8815 39.496 32.636 40.337C32.629 40.36 32.559 40.364 32.5185 40.377L32.6015 35.3515L32.517 23.2255L33.318 23.088C34.628 22.8735 35.938 22.656 37.249 22.4475C38.8135 22.199 40.3795 21.9575 41.945 21.715C42.6355 21.6075 43.327 21.509 44.019 21.406Z" fill="#439934"/>
<path fill-rule="evenodd" clip-rule="evenodd" d="M30.8645 55.027C30.0195 54.3005 29.145 53.606 28.335 52.842C23.9765 48.731 20.7885 43.8925 19.2185 38.059C18.786 36.4535 18.4975 34.822 18.405 33.163C18.34 32.002 18.246 30.8305 18.328 29.6755C18.5465 26.6035 18.9905 23.561 19.8915 20.602L19.941 20.533C20.0285 20.6495 20.1545 20.7525 20.199 20.884C21.0785 23.474 21.9515 26.066 22.82 28.6595C25.549 36.8095 28.2745 44.9615 31.008 53.1095C31.0615 53.2685 31.2 53.399 31.2995 53.5425L30.8645 55.027Z" fill="#45A538"/>
<path fill-rule="evenodd" clip-rule="evenodd" d="M44.019 21.4059C43.327 21.5089 42.635 21.6074 41.9445 21.7139C40.379 21.9564 38.813 22.1979 37.2485 22.4464C35.9375 22.6549 34.6275 22.8724 33.3175 23.0869L32.5165 23.2244L32.5105 22.7019C32.484 22.2724 32.4385 21.8434 32.4335 21.4139C32.399 18.6749 32.3775 15.9359 32.3435 13.1969C32.3225 11.4824 32.291 9.76842 32.256 8.05442C32.2345 6.98942 32.2115 5.92392 32.1635 4.86042C32.1375 4.28892 32.0455 3.72042 32.008 3.14892C31.987 2.82042 32.016 2.48942 32.0225 2.15942C32.431 2.95092 32.8305 3.74842 33.2505 4.53392C33.914 5.77592 34.971 6.69092 35.9225 7.68942C39.684 11.6354 42.3545 16.2234 44.019 21.4059Z" fill="#46A037"/>
<path fill-rule="evenodd" clip-rule="evenodd" d="M32.518 40.3766C32.5585 40.3636 32.629 40.3596 32.6355 40.3366C32.881 39.4956 33.6335 39.6211 34.2415 39.5161C35.9575 39.2191 37.679 38.9511 39.398 38.6726C41.061 38.4031 42.724 38.1321 44.3885 37.8706C44.5855 37.8396 44.791 37.8651 44.9925 37.8646C44.6815 38.9746 44.4365 40.1086 44.042 41.1881C43.594 42.4126 43.052 43.6076 42.4765 44.7791C41.6149 46.5265 40.5486 48.1651 39.3 49.6606C38.3405 50.8146 37.271 51.8811 36.199 52.9346C35.6065 53.5171 34.908 53.9916 34.258 54.5151L34.0895 54.4001L33.4825 53.8811L32.8545 52.5046C32.4255 50.8989 32.1915 49.2473 32.1575 47.5856L32.169 47.3051L32.2545 46.0921C32.283 45.6781 32.321 45.2646 32.3385 44.8496C32.403 43.3586 32.459 41.8676 32.518 40.3766Z" fill="#409433"/>
<path fill-rule="evenodd" clip-rule="evenodd" d="M32.518 40.3766C32.459 41.8676 32.403 43.3586 32.3395 44.8501C32.322 45.2651 32.284 45.6786 32.2555 46.0926L31.873 46.2371C31.0235 43.7361 30.1735 41.2616 29.342 38.7806C27.967 34.6761 26.6085 30.5651 25.2355 26.4596C24.1265 23.1458 23.0099 19.8346 21.8855 16.5261C21.833 16.3711 21.682 16.2501 21.577 16.1131L24.025 11.6121C24.109 11.7581 24.22 11.8946 24.273 12.0516C25.4068 15.4026 26.5348 18.7556 27.657 22.1106C29.115 26.4756 30.564 30.8441 32.021 35.2096C32.079 35.3841 32.175 35.5451 32.2665 35.7406L32.6015 35.3506L32.518 40.3766Z" fill="#4FAA41"/>
<path fill-rule="evenodd" clip-rule="evenodd" d="M21.5775 16.1135C21.6825 16.2505 21.833 16.3715 21.886 16.5265C23.0104 19.8351 24.127 23.1463 25.236 26.46C26.609 30.5655 27.9675 34.6765 29.3425 38.781C30.1735 41.2615 31.0235 43.7365 31.8735 46.2375L32.256 46.093L32.1705 47.306L32.093 47.5855C31.96 48.9135 31.848 50.2445 31.686 51.5695C31.6045 52.2335 31.4315 52.8855 31.3 53.543C31.201 53.3995 31.062 53.269 31.0085 53.11C28.275 44.9615 25.5495 36.81 22.8205 28.66C21.9523 26.0664 21.0786 23.4745 20.1995 20.8845C20.155 20.753 20.0295 20.65 19.9415 20.5335L21.5775 16.1135Z" fill="#4AA73C"/>
<path fill-rule="evenodd" clip-rule="evenodd" d="M32.601 35.3509L32.266 35.7409C32.1745 35.5454 32.0785 35.3839 32.0205 35.2099C30.564 30.8444 29.1145 26.4759 27.6565 22.1109C26.5343 18.7559 25.4063 15.4029 24.2725 12.0519C24.22 11.8949 24.109 11.7579 24.0245 11.6124L27.052 7.62988C27.1475 7.75738 27.2835 7.87088 27.333 8.01438C28.1735 10.4749 29.0065 12.9384 29.8345 15.4034C30.608 17.7054 31.37 20.0109 32.1525 22.3099C32.205 22.4639 32.3875 22.5729 32.5095 22.7029L32.5155 23.2254C32.5445 27.2664 32.573 31.3089 32.601 35.3509Z" fill="#57AE47"/>
<path fill-rule="evenodd" clip-rule="evenodd" d="M32.5105 22.7021C32.3885 22.5721 32.206 22.4631 32.1535 22.3091C31.371 20.0101 30.609 17.7046 29.8355 15.4026C29.0075 12.9376 28.1745 10.4746 27.334 8.0136C27.2845 7.8701 27.1485 7.7566 27.053 7.6291C28.0375 6.6651 28.9915 5.6666 30.0155 4.7471C30.926 3.9301 31.658 3.0541 31.6915 1.7631C31.693 1.7096 31.721 1.6561 31.764 1.5061L32.0235 2.1591C32.017 2.4896 31.9875 2.8201 32.009 3.1486C32.0465 3.7201 32.1385 4.2886 32.1645 4.8601C32.2125 5.9236 32.2355 6.9891 32.257 8.0541C32.2915 9.7681 32.323 11.4821 32.3445 13.1966C32.378 15.9356 32.4 18.6746 32.4345 21.4136C32.4385 21.8441 32.4835 22.2726 32.5105 22.7021Z" fill="#60B24F"/>
<path fill-rule="evenodd" clip-rule="evenodd" d="M31.299 53.5426C31.4305 52.8851 31.6035 52.2326 31.685 51.5691C31.8475 50.2446 31.959 48.9131 32.092 47.5851L32.125 47.5801L32.158 47.5856C32.192 49.2473 32.4261 50.8988 32.855 52.5046C32.767 52.6206 32.6425 52.7241 32.596 52.8551C32.2325 53.8801 31.89 54.9131 31.5245 55.9381C31.4745 56.0781 31.3355 56.1871 31.2375 56.3101L30.864 55.0271L31.299 53.5426Z" fill="#A9AA88"/>
<path fill-rule="evenodd" clip-rule="evenodd" d="M31.238 56.3104C31.336 56.1874 31.4755 56.0784 31.525 55.9384C31.8905 54.9134 32.2335 53.8809 32.5965 52.8554C32.643 52.7244 32.767 52.6209 32.8555 52.5049L33.483 53.8819C33.359 54.0579 33.188 54.2164 33.119 54.4124L31.917 57.9419C31.8675 58.0834 31.6985 58.1834 31.5855 58.3029L31.238 56.3104Z" fill="#B6B598"/>
<path fill-rule="evenodd" clip-rule="evenodd" d="M31.5855 58.3026C31.699 58.1836 31.8675 58.0831 31.917 57.9416L33.119 54.4121C33.1875 54.2166 33.359 54.0576 33.483 53.8816L34.0905 54.4001C33.797 54.6901 33.634 55.0251 33.732 55.4486L33.5475 56.0526C33.4635 56.1561 33.342 56.2461 33.3005 56.3646C32.881 57.5661 32.4805 58.7741 32.058 59.9756C32.0045 60.1281 31.856 60.2476 31.751 60.3816C31.6965 59.6881 31.641 58.9961 31.5855 58.3026Z" fill="#C2C1A7"/>
<path fill-rule="evenodd" clip-rule="evenodd" d="M31.7515 60.3815C31.856 60.247 32.0045 60.1275 32.0585 59.9755C32.481 58.7745 32.8815 57.5665 33.301 56.3645C33.3425 56.2465 33.4635 56.156 33.548 56.0525L33.2935 58.825C33.2255 58.9035 33.127 58.972 33.0945 59.0635C32.807 59.8705 32.536 60.6835 32.2475 61.4905C32.188 61.657 32.074 61.804 31.985 61.9595C31.906 61.856 31.7645 61.756 31.758 61.648C31.7325 61.2275 31.75 60.804 31.7515 60.3815Z" fill="#CECDB7"/>
<path fill-rule="evenodd" clip-rule="evenodd" d="M31.9845 61.9594C32.0735 61.8034 32.1875 61.6565 32.247 61.4905C32.536 60.684 32.8065 59.8709 33.094 59.0634C33.1265 58.9719 33.2255 58.904 33.293 58.825L33.299 60.645L32.69 62.207L31.9845 61.9594Z" fill="#DBDAC7"/>
<path fill-rule="evenodd" clip-rule="evenodd" d="M32.69 62.2075L33.299 60.6455L33.4245 62.4935L32.69 62.2075Z" fill="#EBE9DC"/>
<path fill-rule="evenodd" clip-rule="evenodd" d="M33.732 55.4489C33.634 55.0254 33.7965 54.6899 34.0905 54.4004L34.259 54.5154L33.732 55.4489Z" fill="#CECDB7"/>
<path fill-rule="evenodd" clip-rule="evenodd" d="M32.158 47.5859L32.125 47.5804L32.092 47.5854L32.1695 47.3059L32.158 47.5859Z" fill="#4FAA41"/>
</svg>
