<svg width="64" height="64" viewBox="0 0 64 64" fill="none" xmlns="http://www.w3.org/2000/svg">
<path d="M56.3855 15.167L34.337 2.36451C32.9465 1.57251 31.136 1.57251 29.7345 2.36451L7.4505 15.167C6.0155 15.9925 5 17.544 5 19.2035V44.7745C5 46.434 6.042 47.986 7.477 48.816L13.3645 52.16C16.1785 53.546 17.173 53.546 18.4535 53.546C22.62 53.546 25 51.0265 25 46.632V21.387C25 21.0305 24.8145 20.5 24.4645 20.5H21.653C21.297 20.5 20.5 21.0305 20.5 21.3865V46.6315C20.5 48.5795 18.738 50.518 15.445 48.8715L9.3615 45.365C9.1495 45.25 9 45.0185 9 44.7745V19.2035C9 18.9625 9.2775 18.7205 9.491 18.597L31.703 5.81651C31.9105 5.69901 32.2155 5.69901 32.4225 5.81651L54.3635 18.594C54.5735 18.7205 54.4995 18.955 54.4995 19.2035V44.7745C54.4995 45.0185 54.591 45.256 54.3835 45.3735L32.3405 58.1615C32.1515 58.275 31.917 58.275 31.71 58.1615L26.0565 54.787C25.886 54.688 25.6835 54.6525 25.52 54.744C23.947 55.6355 23.657 55.754 22.1815 56.2655C21.8185 56.392 21.283 56.6115 22.3865 57.23L29.7855 61.607C30.4919 62.015 31.2932 62.2299 32.109 62.23C32.93 62.23 33.734 62.017 34.4425 61.607L56.385 48.816C57.82 47.98 58.5 46.434 58.5 44.7745V19.2035C58.5 17.544 57.82 15.9965 56.3855 15.167ZM38.955 40.7225C33.092 40.7225 31.8005 39.105 31.37 36.1895C31.32 35.8755 31.0535 35.5 30.734 35.5H27.8685C27.514 35.5 27.229 35.93 27.229 36.283C27.229 40.016 29.2585 44.539 38.9555 44.539C45.975 44.539 49.9995 41.8115 49.9995 36.9845C49.9995 32.1985 46.766 30.9425 39.9585 30.0415C33.0775 29.132 32.3785 28.6725 32.3785 27.0605C32.3785 25.7315 32.9705 23.959 38.0655 23.959C42.618 23.959 44.296 24.936 44.9865 28.0045C45.0455 28.293 45.309 28.5 45.6065 28.5H48.4835C48.6605 28.5 48.8295 28.4285 48.9535 28.302C49.0735 28.166 49.137 27.9955 49.121 27.8125C48.6755 22.5285 45.165 20.066 38.065 20.066C31.7495 20.066 27.982 22.733 27.982 27.2035C27.982 32.0525 31.7305 33.3925 37.793 33.992C45.0455 34.703 45.6095 35.763 45.6095 37.1895C45.6095 39.667 43.6205 40.7225 38.955 40.7225Z" fill="#83CD29"/>
</svg>
