<svg width="64" height="64" viewBox="0 0 64 64" fill="none" xmlns="http://www.w3.org/2000/svg">
<path d="M32 37.7001C35.148 37.7001 37.7 35.1481 37.7 32C37.7 28.852 35.148 26.3 32 26.3C28.852 26.3 26.3 28.852 26.3 32C26.3 35.1481 28.852 37.7001 32 37.7001Z" fill="#61DAFB"/>
<path d="M53.65 22.6C52.55 22.2 51.4 21.8001 50.2 21.4501C50.5 20.25 50.75 19.05 50.95 17.9C52 11.3 50.85 6.65005 47.65 4.85005C46.7 4.30005 45.65 4.05005 44.45 4.05005C40.95 4.05005 36.5 6.65005 32 11C27.5 6.65005 23.05 4.05005 19.55 4.05005C18.35 4.05005 17.3 4.30005 16.35 4.85005C13.15 6.70005 12 11.35 13.05 17.9C13.25 19.05 13.5 20.25 13.8 21.4501C12.6 21.8001 11.45 22.15 10.35 22.6C4.1 25 0.699997 28.3 0.699997 32C0.699997 35.7001 4.15 39 10.35 41.4001C11.45 41.8001 12.6 42.2001 13.8 42.55C13.5 43.75 13.25 44.95 13.05 46.1C12 52.7 13.15 57.3501 16.35 59.1501C17.3 59.7001 18.35 59.9501 19.55 59.9501C23.1 59.9501 27.55 57.35 32 53C36.5 57.35 40.95 59.9501 44.45 59.9501C45.65 59.9501 46.7 59.7001 47.65 59.1501C50.85 57.3001 52 52.65 50.95 46.1C50.75 44.95 50.5 43.75 50.2 42.55C51.4 42.2001 52.55 41.8501 53.65 41.4001C59.9 39 63.3 35.7001 63.3 32C63.3 28.3 59.9 25 53.65 22.6ZM46.25 7.35005C48.3 8.55005 49 12.25 48.15 17.5C48 18.55 47.75 19.65 47.45 20.8C44.85 20.2 42.1 19.8 39.2 19.55C37.5 17.15 35.75 15 34 13.05C37.7 9.40005 41.45 6.90005 44.5 6.90005C45.15 6.90005 45.75 7.05005 46.25 7.35005ZM40.65 37C39.75 38.6 38.7 40.2001 37.6 41.8C35.75 41.9501 33.9 42 32 42C30.05 42 28.2 41.9501 26.4 41.8C25.3 40.2001 24.3 38.6 23.4 37C22.45 35.35 21.55 33.65 20.75 32C21.55 30.35 22.45 28.65 23.4 27C24.3 25.4 25.35 23.8001 26.45 22.2001C28.3 22.0501 30.15 22 32.05 22C34 22 35.85 22.0501 37.65 22.2001C38.75 23.8001 39.75 25.4 40.65 27C41.6 28.65 42.5 30.35 43.3 32C42.45 33.65 41.6 35.3 40.65 37ZM44.8 35.35C45.55 37.1 46.15 38.8 46.7 40.5C45 40.9001 43.2 41.2001 41.3 41.4501C41.9 40.5 42.55 39.5 43.1 38.4501C43.7 37.4001 44.25 36.35 44.8 35.35ZM32 48.9001C30.8 47.6001 29.65 46.2001 28.55 44.75C29.7 44.8 30.85 44.85 32 44.85C33.15 44.85 34.3 44.8 35.45 44.75C34.35 46.2001 33.2 47.6001 32 48.9001ZM22.7 41.4001C20.8 41.1501 19 40.8501 17.3 40.4501C17.85 38.8 18.45 37.05 19.2 35.3C19.75 36.3 20.3 37.35 20.9 38.35C21.5 39.45 22.1 40.4001 22.7 41.4001ZM19.2 28.65C18.45 26.9 17.85 25.2001 17.3 23.5C19 23.1 20.8 22.8 22.7 22.55C22.1 23.5 21.45 24.5 20.9 25.55C20.3 26.6 19.75 27.65 19.2 28.65ZM32 15.1C33.2 16.4 34.35 17.8 35.45 19.25C34.3 19.2 33.15 19.15 32 19.15C30.85 19.15 29.7 19.2 28.55 19.25C29.65 17.8 30.8 16.4 32 15.1ZM43.1 25.6L41.3 22.6C43.2 22.85 45 23.15 46.7 23.55C46.15 25.2 45.55 26.9501 44.8 28.7001C44.25 27.6501 43.7 26.6 43.1 25.6ZM15.85 17.5C15 12.25 15.7 8.55005 17.75 7.35005C18.25 7.05005 18.85 6.90005 19.5 6.90005C22.5 6.90005 26.25 9.35005 30 13.05C28.25 14.95 26.5 17.15 24.8 19.55C21.9 19.8 19.15 20.25 16.55 20.8C16.25 19.65 16.05 18.55 15.85 17.5ZM3.5 32C3.5 29.65 6.35 27.15 11.35 25.3C12.35 24.9 13.45 24.55 14.55 24.25C15.35 26.75 16.35 29.4 17.55 32.05C16.35 34.7 15.3 37.3 14.55 39.8C7.65 37.8 3.5 34.8 3.5 32ZM17.75 56.6501C15.7 55.4501 15 51.75 15.85 46.5C16 45.4501 16.25 44.3501 16.55 43.2001C19.15 43.8 21.9 44.2001 24.8 44.4501C26.5 46.8501 28.25 49 30 50.9501C26.3 54.6001 22.55 57.1 19.5 57.1C18.85 57.1 18.25 56.9501 17.75 56.6501ZM48.15 46.5C49 51.75 48.3 55.4501 46.25 56.6501C45.75 56.9501 45.15 57.1 44.5 57.1C41.5 57.1 37.75 54.6501 34 50.9501C35.75 49.05 37.5 46.8501 39.2 44.4501C42.1 44.2001 44.85 43.75 47.45 43.2001C47.75 44.3501 47.95 45.4501 48.15 46.5ZM52.65 38.7001C51.65 39.1001 50.55 39.4501 49.45 39.75C48.65 37.25 47.65 34.6 46.45 31.9501C47.65 29.3001 48.7 26.7001 49.45 24.2001C56.35 26.2001 60.5 29.2001 60.5 32C60.5 34.35 57.6 36.8501 52.65 38.7001Z" fill="#61DAFB"/>
</svg>
