<svg width="64" height="65" viewBox="0 0 64 65" fill="none" xmlns="http://www.w3.org/2000/svg">
<path d="M63.7882 9.72188L33.7242 63.2724C33.1035 64.378 31.5088 64.3845 30.8787 63.2843L0.218608 9.72704C-0.467779 8.52806 0.561488 7.07576 1.92548 7.31861L32.0217 12.6772C32.2136 12.7114 32.4102 12.7111 32.6022 12.6762L62.069 7.32629C63.4284 7.07948 64.4625 8.52054 63.7882 9.72188Z" fill="url(#paint0_linear_35_69)"/>
<path d="M46.3581 0.0157146L24.1098 4.35821C23.7442 4.42958 23.4734 4.73827 23.4514 5.10872L22.0828 28.133C22.0506 28.6753 22.5506 29.0962 23.0819 28.9741L29.2762 27.5501C29.8557 27.417 30.3794 27.9254 30.2603 28.506L28.42 37.4826C28.2961 38.0867 28.8655 38.6033 29.4578 38.4241L33.2837 37.2663C33.8768 37.0869 34.4467 37.605 34.3212 38.2096L31.3967 52.3098C31.2137 53.1917 32.3914 53.6727 32.8826 52.9165L33.2107 52.4115L51.3398 16.3724C51.6434 15.769 51.1199 15.081 50.4545 15.2089L44.0786 16.4346C43.4794 16.5497 42.9696 15.9939 43.1388 15.4099L47.3002 1.03986C47.4695 0.454954 46.9579 -0.101344 46.3581 0.0157146Z" fill="url(#paint1_linear_35_69)"/>
<defs>
<linearGradient id="paint0_linear_35_69" x1="-0.529983" y1="11.6391" x2="31.7303" y2="55.6222" gradientUnits="userSpaceOnUse">
<stop stop-color="#41D1FF"/>
<stop offset="1" stop-color="#BD34FE"/>
</linearGradient>
<linearGradient id="paint1_linear_35_69" x1="34.8108" y1="1.19469" x2="41.4302" y2="46.7801" gradientUnits="userSpaceOnUse">
<stop stop-color="#FFEA83"/>
<stop offset="0.0833333" stop-color="#FFDD35"/>
<stop offset="1" stop-color="#FFA800"/>
</linearGradient>
</defs>
</svg>
