<svg width="40" height="40" viewBox="0 0 40 40" fill="none" xmlns="http://www.w3.org/2000/svg">
<path d="M20 23.5625C21.9675 23.5625 23.5625 21.9675 23.5625 20C23.5625 18.0325 21.9675 16.4375 20 16.4375C18.0325 16.4375 16.4375 18.0325 16.4375 20C16.4375 21.9675 18.0325 23.5625 20 23.5625Z" fill="#61DAFB"/>
<path d="M33.5312 14.125C32.8438 13.875 32.125 13.625 31.375 13.4063C31.5625 12.6563 31.7188 11.9062 31.8438 11.1875C32.5 7.0625 31.7812 4.15625 29.7812 3.03125C29.1875 2.6875 28.5312 2.53125 27.7812 2.53125C25.5938 2.53125 22.8125 4.15625 20 6.875C17.1875 4.15625 14.4062 2.53125 12.2187 2.53125C11.4687 2.53125 10.8125 2.6875 10.2188 3.03125C8.21875 4.1875 7.5 7.09375 8.15625 11.1875C8.28125 11.9062 8.4375 12.6563 8.625 13.4063C7.875 13.625 7.15625 13.8438 6.46875 14.125C2.5625 15.625 0.4375 17.6875 0.4375 20C0.4375 22.3125 2.59375 24.375 6.46875 25.875C7.15625 26.125 7.875 26.375 8.625 26.5938C8.4375 27.3438 8.28125 28.0938 8.15625 28.8125C7.5 32.9375 8.21875 35.8438 10.2188 36.9688C10.8125 37.3125 11.4687 37.4688 12.2187 37.4688C14.4375 37.4688 17.2188 35.8438 20 33.125C22.8125 35.8438 25.5938 37.4688 27.7812 37.4688C28.5312 37.4688 29.1875 37.3125 29.7812 36.9688C31.7812 35.8125 32.5 32.9062 31.8438 28.8125C31.7188 28.0938 31.5625 27.3438 31.375 26.5938C32.125 26.375 32.8438 26.1563 33.5312 25.875C37.4375 24.375 39.5625 22.3125 39.5625 20C39.5625 17.6875 37.4375 15.625 33.5312 14.125ZM28.9062 4.59375C30.1875 5.34375 30.625 7.65625 30.0938 10.9375C30 11.5938 29.8438 12.2812 29.6562 13C28.0312 12.625 26.3125 12.375 24.5 12.2187C23.4375 10.7187 22.3438 9.375 21.25 8.15625C23.5625 5.875 25.9062 4.3125 27.8125 4.3125C28.2188 4.3125 28.5938 4.40625 28.9062 4.59375ZM25.4062 23.125C24.8438 24.125 24.1875 25.125 23.5 26.125C22.3437 26.2188 21.1875 26.25 20 26.25C18.7812 26.25 17.625 26.2188 16.5 26.125C15.8125 25.125 15.1875 24.125 14.625 23.125C14.0312 22.0938 13.4688 21.0312 12.9688 20C13.4688 18.9688 14.0312 17.9062 14.625 16.875C15.1875 15.875 15.8438 14.875 16.5312 13.875C17.6875 13.7813 18.8438 13.75 20.0312 13.75C21.25 13.75 22.4062 13.7813 23.5312 13.875C24.2188 14.875 24.8438 15.875 25.4062 16.875C26 17.9062 26.5625 18.9688 27.0625 20C26.5312 21.0312 26 22.0625 25.4062 23.125ZM28 22.0938C28.4688 23.1875 28.8438 24.25 29.1875 25.3125C28.125 25.5625 27 25.75 25.8125 25.9062C26.1875 25.3125 26.5937 24.6875 26.9375 24.0312C27.3125 23.375 27.6562 22.7188 28 22.0938ZM20 30.5625C19.25 29.75 18.5312 28.875 17.8438 27.9688C18.5625 28 19.2812 28.0312 20 28.0312C20.7188 28.0312 21.4375 28 22.1562 27.9688C21.4688 28.875 20.75 29.75 20 30.5625ZM14.1875 25.875C13 25.7188 11.875 25.5313 10.8125 25.2812C11.1562 24.25 11.5312 23.1562 12 22.0625C12.3438 22.6875 12.6875 23.3438 13.0625 23.9688C13.4375 24.6562 13.8125 25.25 14.1875 25.875ZM12 17.9062C11.5312 16.8125 11.1562 15.75 10.8125 14.6875C11.875 14.4375 13 14.25 14.1875 14.0938C13.8125 14.6875 13.4062 15.3125 13.0625 15.9688C12.6875 16.625 12.3438 17.2812 12 17.9062ZM20 9.4375C20.75 10.25 21.4688 11.125 22.1562 12.0312C21.4375 12 20.7188 11.9688 20 11.9688C19.2812 11.9688 18.5625 12 17.8438 12.0312C18.5312 11.125 19.25 10.25 20 9.4375ZM26.9375 16L25.8125 14.125C27 14.2812 28.125 14.4688 29.1875 14.7188C28.8438 15.75 28.4688 16.8438 28 17.9375C27.6562 17.2813 27.3125 16.625 26.9375 16ZM9.90625 10.9375C9.375 7.65625 9.8125 5.34375 11.0938 4.59375C11.4062 4.40625 11.7812 4.3125 12.1875 4.3125C14.0625 4.3125 16.4062 5.84375 18.75 8.15625C17.6562 9.34375 16.5625 10.7187 15.5 12.2187C13.6875 12.375 11.9688 12.6562 10.3438 13C10.1562 12.2812 10.0312 11.5938 9.90625 10.9375ZM2.1875 20C2.1875 18.5312 3.96875 16.9688 7.09375 15.8125C7.71875 15.5625 8.40625 15.3438 9.09375 15.1562C9.59375 16.7188 10.2187 18.375 10.9687 20.0312C10.2187 21.6875 9.5625 23.3125 9.09375 24.875C4.78125 23.625 2.1875 21.75 2.1875 20ZM11.0938 35.4062C9.8125 34.6562 9.375 32.3438 9.90625 29.0625C10 28.4062 10.1562 27.7188 10.3438 27C11.9688 27.375 13.6875 27.625 15.5 27.7812C16.5625 29.2813 17.6562 30.625 18.75 31.8438C16.4375 34.125 14.0937 35.6875 12.1875 35.6875C11.7812 35.6875 11.4062 35.5938 11.0938 35.4062ZM30.0938 29.0625C30.625 32.3438 30.1875 34.6562 28.9062 35.4062C28.5938 35.5938 28.2188 35.6875 27.8125 35.6875C25.9375 35.6875 23.5938 34.1563 21.25 31.8438C22.3438 30.6563 23.4375 29.2813 24.5 27.7812C26.3125 27.625 28.0312 27.3438 29.6562 27C29.8438 27.7188 29.9688 28.4062 30.0938 29.0625ZM32.9062 24.1875C32.2812 24.4375 31.5938 24.6562 30.9062 24.8438C30.4062 23.2812 29.7812 21.625 29.0312 19.9688C29.7812 18.3125 30.4375 16.6875 30.9062 15.125C35.2188 16.375 37.8125 18.25 37.8125 20C37.8125 21.4688 36 23.0312 32.9062 24.1875Z" fill="#61DAFB"/>
</svg>
