<svg width="40" height="40" viewBox="0 0 40 40" fill="none" xmlns="http://www.w3.org/2000/svg">
<path d="M20.0012 8.00073C14.6678 8.00073 11.3356 10.6664 10.0012 15.9998C12.0006 13.3339 14.3347 12.3342 17.0006 13.0007C18.5228 13.3801 19.6106 14.4839 20.8153 15.707C22.7759 17.6967 25.0453 20.0001 30.0012 20.0001C35.3343 20.0001 38.6668 17.3342 40.0012 11.9995C38.0015 14.667 35.6678 15.6667 33.0015 15.0001C31.4797 14.6204 30.3931 13.517 29.1868 12.2939C27.2275 10.3042 24.9587 8.00073 20.0012 8.00073ZM10.0012 20.0001C4.6681 20.0001 1.3356 22.666 0.0012207 28.0007C2.0006 25.3332 4.33435 24.3335 7.0006 25.0001C8.52278 25.3798 9.6106 26.4832 10.8153 27.7064C12.7759 29.696 15.0453 31.9995 20.0012 31.9995C25.3343 31.9995 28.6668 29.3339 30.0012 24.0004C28.0015 26.6664 25.6678 27.666 23.0015 26.9995C21.4797 26.6201 20.3931 25.5164 19.1868 24.2932C17.2275 22.3035 14.9587 20.0001 10.0012 20.0001Z" fill="#38BDF8"/>
</svg>
