<svg width="44" height="131" viewBox="0 0 44 131" fill="none" xmlns="http://www.w3.org/2000/svg">
<path d="M1.20312 124.928V122.859L8.40199 119.837V122.099L3.64915 123.874L3.72372 123.764V124.028L3.64915 123.913L8.40199 125.693V127.95L1.20312 124.928ZM15.095 117.341L11.8137 129.531H9.74059L13.0218 117.341H15.095ZM18.4322 123.645V128H16.0011V117.818H18.3526V121.766H18.4371C18.6095 121.295 18.8912 120.927 19.2823 120.662C19.6767 120.397 20.159 120.264 20.729 120.264C21.266 120.264 21.7333 120.384 22.131 120.622C22.5288 120.857 22.837 121.191 23.0558 121.621C23.2778 122.052 23.3872 122.556 23.3839 123.133V128H20.9528V123.61C20.9561 123.186 20.85 122.854 20.6346 122.616C20.4192 122.377 20.1159 122.258 19.7248 122.258C19.4696 122.258 19.2442 122.314 19.0487 122.427C18.8564 122.536 18.7056 122.694 18.5962 122.899C18.4902 123.105 18.4355 123.353 18.4322 123.645ZM28.7544 128.139C27.9789 128.139 27.2911 128.007 26.6912 127.741C26.0946 127.473 25.624 127.103 25.2793 126.633C24.9346 126.162 24.7589 125.62 24.7523 125.007H27.2282C27.2381 125.229 27.3094 125.426 27.4419 125.599C27.5745 125.768 27.7551 125.9 27.9838 125.996C28.2125 126.093 28.4727 126.141 28.7644 126.141C29.056 126.141 29.3129 126.089 29.535 125.987C29.7604 125.88 29.936 125.736 30.062 125.554C30.1879 125.368 30.2492 125.156 30.2459 124.918C30.2492 124.679 30.1813 124.467 30.0421 124.281C29.9029 124.096 29.7057 123.951 29.4505 123.849C29.1986 123.746 28.9003 123.695 28.5556 123.695H27.5662V121.945H28.5556C28.8572 121.945 29.1223 121.895 29.351 121.795C29.583 121.696 29.7637 121.557 29.8929 121.378C30.0222 121.196 30.0852 120.987 30.0819 120.751C30.0852 120.523 30.0305 120.322 29.9178 120.15C29.8084 119.974 29.6543 119.838 29.4554 119.742C29.2599 119.646 29.0328 119.598 28.7743 119.598C28.5025 119.598 28.2556 119.646 28.0336 119.742C27.8148 119.838 27.6408 119.974 27.5115 120.15C27.3823 120.326 27.3143 120.529 27.3077 120.761H24.9561C24.9628 120.155 25.1318 119.621 25.4632 119.161C25.7947 118.696 26.2454 118.334 26.8155 118.072C27.3889 117.81 28.0418 117.679 28.7743 117.679C29.5035 117.679 30.1448 117.807 30.6983 118.062C31.2518 118.317 31.6827 118.665 31.9909 119.106C32.2992 119.543 32.4533 120.039 32.4533 120.592C32.4566 121.166 32.2694 121.638 31.8915 122.009C31.517 122.38 31.0347 122.609 30.4448 122.695V122.775C31.2336 122.868 31.8285 123.123 32.2296 123.54C32.6339 123.958 32.8345 124.48 32.8311 125.107C32.8311 125.696 32.6571 126.22 32.3091 126.678C31.9644 127.132 31.4838 127.49 30.8674 127.751C30.2542 128.01 29.5499 128.139 28.7544 128.139ZM41.8707 123.973L34.6719 126.996V124.739L39.4247 122.959L39.3551 123.073V122.81L39.4247 122.919L34.6719 121.144V118.882L41.8707 121.905V123.973Z" fill="#4A5C6A"/>
<rect x="21" y="23" width="2" height="81" fill="#4A5C6A"/>
<path d="M4.20312 10.9276V8.85938L11.402 5.83665V8.09872L6.64915 9.87358L6.72372 9.7642V10.0277L6.64915 9.91335L11.402 11.6932V13.9503L4.20312 10.9276ZM15.813 9.64489V14H13.3819V3.81818H15.7335V7.76562H15.818C15.9904 7.29498 16.2721 6.92708 16.6632 6.66193C17.0576 6.39678 17.5398 6.2642 18.1099 6.2642C18.6468 6.2642 19.1142 6.38352 19.5119 6.62216C19.9096 6.85748 20.2179 7.19058 20.4366 7.62145C20.6587 8.05232 20.7681 8.55611 20.7647 9.13281V14H18.3336V9.61009C18.3369 9.18584 18.2309 8.8544 18.0154 8.61577C17.8 8.37713 17.4967 8.25781 17.1056 8.25781C16.8504 8.25781 16.6251 8.31416 16.4295 8.42685C16.2373 8.53622 16.0865 8.69366 15.9771 8.89915C15.871 9.10464 15.8163 9.35322 15.813 9.64489ZM26.1353 14.1392C25.3597 14.1392 24.672 14.0066 24.0721 13.7415C23.4755 13.473 23.0049 13.1035 22.6602 12.6328C22.3155 12.1622 22.1398 11.6203 22.1332 11.0071H24.609C24.619 11.2292 24.6902 11.4264 24.8228 11.5987C24.9554 11.7678 25.136 11.9003 25.3647 11.9964C25.5934 12.0926 25.8536 12.1406 26.1452 12.1406C26.4369 12.1406 26.6938 12.0893 26.9158 11.9865C27.1412 11.8804 27.3169 11.7363 27.4428 11.554C27.5688 11.3684 27.6301 11.1562 27.6268 10.9176C27.6301 10.679 27.5621 10.4669 27.4229 10.2812C27.2837 10.0956 27.0865 9.95147 26.8313 9.84872C26.5794 9.74598 26.2811 9.6946 25.9364 9.6946H24.9471V7.9446H25.9364C26.238 7.9446 26.5032 7.89489 26.7319 7.79545C26.9639 7.69602 27.1445 7.55682 27.2738 7.37784C27.4031 7.19555 27.466 6.98674 27.4627 6.75142C27.466 6.52273 27.4113 6.32221 27.2987 6.14986C27.1893 5.97419 27.0352 5.8383 26.8363 5.74219C26.6407 5.64607 26.4137 5.59801 26.1552 5.59801C25.8834 5.59801 25.6365 5.64607 25.4144 5.74219C25.1957 5.8383 25.0217 5.97419 24.8924 6.14986C24.7631 6.32552 24.6952 6.52936 24.6886 6.76136H22.337C22.3436 6.15483 22.5127 5.62121 22.8441 5.16051C23.1755 4.6965 23.6263 4.33357 24.1964 4.07173C24.7698 3.8099 25.4227 3.67898 26.1552 3.67898C26.8844 3.67898 27.5257 3.80658 28.0792 4.06179C28.6327 4.317 29.0636 4.66501 29.3718 5.10582C29.68 5.54332 29.8342 6.03883 29.8342 6.59233C29.8375 7.16572 29.6502 7.63802 29.2724 8.00923C28.8978 8.38044 28.4156 8.60914 27.8256 8.69531V8.77486C28.6145 8.86766 29.2094 9.12287 29.6104 9.54048C30.0148 9.9581 30.2153 10.4801 30.212 11.1065C30.212 11.6965 30.038 12.2202 29.69 12.6776C29.3453 13.1316 28.8647 13.4896 28.2482 13.7514C27.6351 14.0099 26.9308 14.1392 26.1353 14.1392ZM39.2516 9.97301L32.0527 12.9957V10.7386L36.8056 8.95881L36.736 9.07315V8.80966L36.8056 8.91903L32.0527 7.14418V4.8821L39.2516 7.90483V9.97301Z" fill="#4A5C6A"/>
</svg>
