<svg width="142" height="14" viewBox="0 0 142 14" fill="none" xmlns="http://www.w3.org/2000/svg">
<path d="M2.56934 8.56738H4.37061C5.02913 8.56738 5.62402 8.47331 6.15527 8.28516C6.68652 8.09701 7.1403 7.83415 7.5166 7.49658C7.88737 7.16455 8.17236 6.76888 8.37158 6.30957C8.57633 5.85026 8.67871 5.34945 8.67871 4.80713C8.67871 4.22607 8.57633 3.69759 8.37158 3.22168C8.17236 2.74577 7.88737 2.33626 7.5166 1.99316C7.1403 1.6556 6.68652 1.39274 6.15527 1.20459C5.62402 1.0109 5.02913 0.914062 4.37061 0.914062H0.236816V13H2.56934V8.56738ZM2.56934 6.6748V2.80664H4.37061C4.70264 2.80664 4.9904 2.85921 5.23389 2.96436C5.47738 3.0695 5.68213 3.21338 5.84814 3.396C6.00863 3.57861 6.1276 3.79167 6.20508 4.03516C6.28809 4.27865 6.32959 4.5415 6.32959 4.82373C6.32959 5.06722 6.28809 5.30241 6.20508 5.5293C6.1276 5.75065 6.00863 5.9471 5.84814 6.11865C5.68213 6.2902 5.47738 6.42578 5.23389 6.52539C4.9904 6.625 4.70264 6.6748 4.37061 6.6748H2.56934ZM15.9917 13H18.3325V12.8589C18.2163 12.632 18.1278 12.3608 18.0669 12.0454C18.006 11.73 17.9756 11.3315 17.9756 10.8501V6.99854C17.9756 6.47835 17.8787 6.02181 17.6851 5.62891C17.4914 5.23047 17.223 4.9012 16.8799 4.64111C16.5368 4.38102 16.13 4.18457 15.6597 4.05176C15.1948 3.91895 14.6912 3.85254 14.1489 3.85254C13.5457 3.85254 13.009 3.93001 12.5386 4.08496C12.0737 4.23438 11.6808 4.43913 11.3599 4.69922C11.0334 4.95931 10.7843 5.2609 10.6128 5.604C10.4468 5.9471 10.3638 6.30957 10.3638 6.69141H12.6714C12.6714 6.53092 12.6935 6.38428 12.7378 6.25146C12.7876 6.11865 12.8623 6.00521 12.9619 5.91113C13.0726 5.80599 13.2165 5.72575 13.3936 5.67041C13.5706 5.60954 13.7809 5.5791 14.0244 5.5791C14.3011 5.5791 14.5418 5.61507 14.7466 5.68701C14.9569 5.75342 15.1312 5.85026 15.2695 5.97754C15.4023 6.09928 15.502 6.24593 15.5684 6.41748C15.6348 6.5835 15.668 6.77165 15.668 6.98193V7.51318H14.3813C13.7173 7.51318 13.1279 7.57406 12.6133 7.6958C12.1042 7.81201 11.6753 7.98356 11.3267 8.21045C10.9393 8.45947 10.6488 8.77767 10.4551 9.16504C10.2614 9.54688 10.1646 9.98682 10.1646 10.4849C10.1646 10.8722 10.242 11.2319 10.397 11.564C10.5519 11.8905 10.7677 12.1727 11.0444 12.4106C11.3211 12.6486 11.6504 12.834 12.0322 12.9668C12.4196 13.0996 12.8429 13.166 13.3022 13.166C13.5845 13.166 13.8473 13.1383 14.0908 13.083C14.3343 13.0332 14.5584 12.9613 14.7632 12.8672C14.9624 12.7786 15.145 12.6735 15.311 12.5518C15.4771 12.43 15.6237 12.3 15.751 12.1616C15.7786 12.3221 15.8118 12.4743 15.8506 12.6182C15.8893 12.762 15.9364 12.8893 15.9917 13ZM13.792 11.3813C13.5762 11.3813 13.3853 11.3564 13.2192 11.3066C13.0588 11.2513 12.9232 11.1794 12.8125 11.0908C12.7018 10.9967 12.616 10.8833 12.5552 10.7505C12.4998 10.6121 12.4722 10.4627 12.4722 10.3022C12.4722 10.0975 12.5109 9.90934 12.5884 9.73779C12.6659 9.56071 12.7848 9.40853 12.9453 9.28125C13.1058 9.15951 13.3133 9.06543 13.5679 8.99902C13.8224 8.92708 14.1296 8.89111 14.4893 8.89111H15.668V10.4351C15.6016 10.5513 15.5103 10.6675 15.394 10.7837C15.2778 10.8944 15.1395 10.994 14.979 11.0825C14.8185 11.1711 14.6387 11.243 14.4395 11.2983C14.2402 11.3537 14.0244 11.3813 13.792 11.3813ZM28.6836 8.60059V8.42627C28.6836 7.88395 28.6338 7.37484 28.5342 6.89893C28.4401 6.42301 28.2935 5.99414 28.0942 5.6123C27.967 5.37435 27.8203 5.15576 27.6543 4.95654C27.4883 4.75179 27.3029 4.57747 27.0981 4.43359C26.8436 4.24544 26.5531 4.10156 26.2266 4.00195C25.9056 3.90234 25.5514 3.85254 25.1641 3.85254C24.8818 3.85254 24.619 3.88298 24.3755 3.94385C24.1375 3.99919 23.9162 4.08496 23.7114 4.20117C23.5675 4.27865 23.432 4.37272 23.3047 4.4834C23.1774 4.58854 23.0584 4.70475 22.9478 4.83203V0.25H20.6401V13H22.7153L22.8232 12.0454C22.9173 12.1672 23.0169 12.2806 23.1221 12.3857C23.2272 12.4854 23.3407 12.5767 23.4624 12.6597C23.6893 12.8257 23.9438 12.9502 24.2261 13.0332C24.5138 13.1217 24.832 13.166 25.1807 13.166C25.5625 13.166 25.9111 13.1162 26.2266 13.0166C26.5475 12.9225 26.8353 12.7842 27.0898 12.6016C27.3721 12.4079 27.6156 12.1644 27.8203 11.8711C28.0306 11.5778 28.1994 11.2513 28.3267 10.8916C28.4429 10.5651 28.5314 10.2109 28.5923 9.8291C28.6532 9.44173 28.6836 9.03223 28.6836 8.60059ZM26.376 8.42627V8.60059C26.376 8.83301 26.3649 9.05713 26.3428 9.27295C26.3262 9.48877 26.2957 9.68799 26.2515 9.87061C26.1961 10.1196 26.1131 10.3438 26.0024 10.543C25.8973 10.7367 25.759 10.8944 25.5874 11.0161C25.4657 11.1047 25.3218 11.1738 25.1558 11.2236C24.9897 11.2734 24.8044 11.2983 24.5996 11.2983C24.3617 11.2983 24.1486 11.2707 23.9604 11.2153C23.7778 11.16 23.6174 11.0798 23.479 10.9746C23.3628 10.8916 23.2604 10.7948 23.1719 10.6841C23.0889 10.5679 23.0142 10.4406 22.9478 10.3022V6.72461C22.9976 6.61947 23.0529 6.52262 23.1138 6.43408C23.1746 6.34001 23.241 6.257 23.313 6.18506C23.4624 6.03564 23.6423 5.9222 23.8525 5.84473C24.0628 5.76725 24.3063 5.72852 24.583 5.72852C24.7878 5.72852 24.9704 5.75342 25.1309 5.80322C25.2913 5.84749 25.4352 5.91667 25.5625 6.01074C25.7562 6.16016 25.9001 6.32617 25.9941 6.50879C26.0938 6.68587 26.174 6.88786 26.2349 7.11475C26.2847 7.30843 26.3206 7.51595 26.3428 7.7373C26.3649 7.95866 26.376 8.18831 26.376 8.42627ZM31.2817 0.25V2.13428H33.9712V11.124H31.2817V13H38.877V11.124H36.3037V0.25H31.2817ZM40.6948 8.42627V8.60059C40.6948 9.25911 40.7889 9.86784 40.9771 10.4268C41.1652 10.9801 41.4419 11.4616 41.8071 11.8711C42.1668 12.2806 42.6095 12.6016 43.1353 12.834C43.6665 13.0609 44.2697 13.1743 44.9448 13.1743C45.6144 13.1743 46.2121 13.0609 46.7378 12.834C47.2635 12.6016 47.7062 12.2806 48.0659 11.8711C48.4256 11.4616 48.6995 10.9801 48.8877 10.4268C49.0758 9.86784 49.1699 9.25911 49.1699 8.60059V8.42627C49.1699 7.77327 49.0758 7.17008 48.8877 6.6167C48.6995 6.05778 48.4256 5.57357 48.0659 5.16406C47.7007 4.75456 47.2552 4.43359 46.7295 4.20117C46.2038 3.96875 45.6034 3.85254 44.9282 3.85254C44.2531 3.85254 43.6527 3.96875 43.127 4.20117C42.6068 4.43359 42.1668 4.75456 41.8071 5.16406C41.4419 5.57357 41.1652 6.05778 40.9771 6.6167C40.7889 7.17008 40.6948 7.77327 40.6948 8.42627ZM43.0024 8.60059V8.42627C43.0024 8.06104 43.0384 7.71517 43.1104 7.38867C43.1823 7.06217 43.2957 6.77441 43.4507 6.52539C43.6056 6.27637 43.8049 6.07992 44.0483 5.93604C44.2918 5.79215 44.5851 5.72021 44.9282 5.72021C45.2769 5.72021 45.5729 5.79215 45.8164 5.93604C46.0599 6.07992 46.2591 6.27637 46.4141 6.52539C46.5635 6.77441 46.6742 7.06217 46.7461 7.38867C46.818 7.71517 46.854 8.06104 46.854 8.42627V8.60059C46.854 8.97689 46.818 9.33105 46.7461 9.66309C46.6742 9.98958 46.5635 10.2746 46.4141 10.5181C46.2591 10.7671 46.0599 10.9635 45.8164 11.1074C45.5729 11.2513 45.2824 11.3232 44.9448 11.3232C44.5962 11.3232 44.2974 11.2513 44.0483 11.1074C43.8049 10.9635 43.6056 10.7671 43.4507 10.5181C43.2957 10.2746 43.1823 9.98958 43.1104 9.66309C43.0384 9.33105 43.0024 8.97689 43.0024 8.60059ZM67.6226 9.8457C67.6226 10.0615 67.5783 10.2607 67.4897 10.4434C67.4012 10.6204 67.2739 10.7726 67.1079 10.8999C66.9419 11.0272 66.7371 11.1268 66.4937 11.1987C66.2557 11.2707 65.9818 11.3066 65.6719 11.3066C65.3232 11.3066 65.0023 11.2679 64.709 11.1904C64.4212 11.113 64.175 10.9912 63.9702 10.8252C63.7599 10.6592 63.5967 10.4461 63.4805 10.186C63.3643 9.92594 63.3006 9.61328 63.2896 9.24805H60.9985C60.9985 9.87337 61.1175 10.4185 61.3555 10.8833C61.599 11.3481 61.9282 11.7521 62.3433 12.0952C62.7804 12.4438 63.2923 12.7095 63.8789 12.8921C64.471 13.0692 65.0687 13.1577 65.6719 13.1577C66.2861 13.1577 66.8534 13.0858 67.3735 12.9419C67.8937 12.7925 68.342 12.5739 68.7183 12.2861C69.0946 12.0039 69.3879 11.658 69.5981 11.2485C69.814 10.8335 69.9219 10.3604 69.9219 9.8291C69.9219 9.21484 69.7808 8.67253 69.4985 8.20215C69.2163 7.73177 68.8372 7.3195 68.3613 6.96533C68.0459 6.74951 67.7 6.55859 67.3237 6.39258C66.9474 6.22656 66.5518 6.08545 66.1367 5.96924C65.7493 5.8641 65.4007 5.75065 65.0908 5.62891C64.7865 5.50716 64.5264 5.37158 64.3105 5.22217C64.0947 5.07829 63.9287 4.91504 63.8125 4.73242C63.7018 4.5498 63.6465 4.34505 63.6465 4.11816C63.6465 3.90234 63.688 3.70312 63.771 3.52051C63.8595 3.33236 63.9868 3.16911 64.1528 3.03076C64.3188 2.89795 64.5208 2.79557 64.7588 2.72363C65.0023 2.64616 65.279 2.60742 65.5889 2.60742C65.9264 2.60742 66.2197 2.65446 66.4688 2.74854C66.7233 2.83708 66.9364 2.96159 67.1079 3.12207C67.2739 3.28809 67.3984 3.48454 67.4814 3.71143C67.57 3.93831 67.6198 4.18734 67.6309 4.4585H69.9053C69.9053 3.91618 69.8001 3.41813 69.5898 2.96436C69.3796 2.51058 69.0863 2.11768 68.71 1.78564C68.3337 1.45915 67.8826 1.20459 67.3569 1.02197C66.8368 0.839355 66.2612 0.748047 65.6304 0.748047C65.0216 0.748047 64.4572 0.828288 63.937 0.98877C63.4168 1.14372 62.9658 1.36784 62.584 1.66113C62.2021 1.95443 61.9033 2.30859 61.6875 2.72363C61.4717 3.13867 61.3638 3.60075 61.3638 4.10986C61.3638 4.55257 61.444 4.96208 61.6045 5.33838C61.7705 5.71468 62.014 6.05778 62.335 6.36768C62.6559 6.67757 63.0682 6.96257 63.5718 7.22266C64.0809 7.48275 64.6702 7.7041 65.3398 7.88672C65.7715 8.00293 66.1312 8.13021 66.4189 8.26855C66.7122 8.40137 66.9502 8.54801 67.1328 8.7085C67.3099 8.87451 67.4344 9.0516 67.5063 9.23975C67.5838 9.4279 67.6226 9.62988 67.6226 9.8457ZM75.998 13.166C76.8669 13.166 77.6195 12.9972 78.2559 12.6597C78.8923 12.3221 79.3571 11.9458 79.6504 11.5308L78.4966 10.2856C78.231 10.6287 77.8851 10.8861 77.459 11.0576C77.0329 11.2292 76.5929 11.3149 76.1392 11.3149C75.8182 11.3149 75.5221 11.2651 75.251 11.1655C74.9798 11.0659 74.7391 10.9248 74.5288 10.7422C74.3241 10.5651 74.1608 10.3687 74.0391 10.1528C73.9173 9.93148 73.8177 9.64095 73.7402 9.28125V9.25635H79.833V8.27686C79.833 7.61833 79.7417 7.0179 79.5591 6.47559C79.3765 5.92773 79.1108 5.46012 78.7622 5.07275C78.408 4.68538 77.9764 4.38656 77.4673 4.17627C76.9637 3.96045 76.3882 3.85254 75.7407 3.85254C75.1154 3.85254 74.5371 3.96598 74.0059 4.19287C73.4746 4.41976 73.0153 4.73796 72.6279 5.14746C72.2406 5.55697 71.939 6.04671 71.7231 6.6167C71.5073 7.18115 71.3994 7.80648 71.3994 8.49268V8.82471C71.3994 9.4279 71.5073 9.99512 71.7231 10.5264C71.9445 11.0521 72.2572 11.5086 72.6611 11.896C73.0651 12.2889 73.5493 12.5988 74.1138 12.8257C74.6782 13.0526 75.3063 13.166 75.998 13.166ZM75.7241 5.72021C76.0174 5.72021 76.2747 5.76725 76.4961 5.86133C76.723 5.94987 76.9139 6.07161 77.0688 6.22656C77.2238 6.38704 77.3455 6.5752 77.4341 6.79102C77.5226 7.00684 77.5669 7.23649 77.5669 7.47998V7.6626H73.7817C73.8371 7.3693 73.9201 7.10368 74.0308 6.86572C74.1414 6.62777 74.2798 6.42301 74.4458 6.25146C74.6063 6.07992 74.7944 5.94987 75.0103 5.86133C75.2261 5.76725 75.464 5.72021 75.7241 5.72021ZM84.7056 13H86.8721L90.2837 4.01855H87.8765L85.9092 10.3521L85.7847 10.9829L85.6602 10.3521L83.6846 4.01855H81.2773L84.7056 13ZM96.418 13.166C97.2868 13.166 98.0394 12.9972 98.6758 12.6597C99.3122 12.3221 99.777 11.9458 100.07 11.5308L98.9165 10.2856C98.6509 10.6287 98.305 10.8861 97.8789 11.0576C97.4528 11.2292 97.0129 11.3149 96.5591 11.3149C96.2381 11.3149 95.9421 11.2651 95.6709 11.1655C95.3997 11.0659 95.159 10.9248 94.9487 10.7422C94.744 10.5651 94.5807 10.3687 94.459 10.1528C94.3372 9.93148 94.2376 9.64095 94.1602 9.28125V9.25635H100.253V8.27686C100.253 7.61833 100.162 7.0179 99.979 6.47559C99.7964 5.92773 99.5308 5.46012 99.1821 5.07275C98.828 4.68538 98.3963 4.38656 97.8872 4.17627C97.3836 3.96045 96.8081 3.85254 96.1606 3.85254C95.5353 3.85254 94.957 3.96598 94.4258 4.19287C93.8945 4.41976 93.4352 4.73796 93.0479 5.14746C92.6605 5.55697 92.3589 6.04671 92.1431 6.6167C91.9272 7.18115 91.8193 7.80648 91.8193 8.49268V8.82471C91.8193 9.4279 91.9272 9.99512 92.1431 10.5264C92.3644 11.0521 92.6771 11.5086 93.0811 11.896C93.485 12.2889 93.9692 12.5988 94.5337 12.8257C95.0981 13.0526 95.7262 13.166 96.418 13.166ZM96.144 5.72021C96.4373 5.72021 96.6947 5.76725 96.916 5.86133C97.1429 5.94987 97.3338 6.07161 97.4888 6.22656C97.6437 6.38704 97.7655 6.5752 97.854 6.79102C97.9425 7.00684 97.9868 7.23649 97.9868 7.47998V7.6626H94.2017C94.257 7.3693 94.34 7.10368 94.4507 6.86572C94.5614 6.62777 94.6997 6.42301 94.8657 6.25146C95.0262 6.07992 95.2144 5.94987 95.4302 5.86133C95.646 5.76725 95.884 5.72021 96.144 5.72021ZM108.72 3.85254C108.117 3.85254 107.56 3.99919 107.051 4.29248C106.542 4.58024 106.105 4.97868 105.74 5.48779L105.723 5.28857L105.632 4.01855H103.482V13H105.79V7.60449C105.895 7.34993 106.028 7.12858 106.188 6.94043C106.348 6.75228 106.542 6.59733 106.769 6.47559C106.957 6.37044 107.17 6.29297 107.408 6.24316C107.652 6.18783 107.923 6.16016 108.222 6.16016C108.509 6.16016 108.811 6.17952 109.126 6.21826C109.447 6.25146 109.76 6.30404 110.064 6.37598L110.405 4.07666C110.222 4.02132 109.981 3.97152 109.683 3.92725C109.389 3.87744 109.068 3.85254 108.72 3.85254ZM113.094 4.01855V5.90283H115.651V11.124H113.094V13H120.416V11.124H117.983V4.01855H113.094ZM115.485 1.71924C115.485 1.89632 115.515 2.06234 115.576 2.21729C115.643 2.3667 115.734 2.49398 115.85 2.59912C115.966 2.7098 116.105 2.79557 116.265 2.85645C116.431 2.91732 116.614 2.94775 116.813 2.94775C117.222 2.94775 117.546 2.83431 117.784 2.60742C118.028 2.375 118.149 2.07894 118.149 1.71924C118.149 1.35954 118.028 1.06624 117.784 0.839355C117.546 0.606934 117.222 0.490723 116.813 0.490723C116.614 0.490723 116.431 0.521159 116.265 0.582031C116.105 0.642904 115.966 0.725911 115.85 0.831055C115.734 0.941732 115.643 1.07454 115.576 1.22949C115.515 1.37891 115.485 1.54215 115.485 1.71924ZM122.69 13H125.006V6.6167C125.083 6.49495 125.169 6.38428 125.263 6.28467C125.357 6.18506 125.462 6.09928 125.579 6.02734C125.722 5.92773 125.886 5.85303 126.068 5.80322C126.257 5.75342 126.461 5.72852 126.683 5.72852C126.948 5.72852 127.186 5.75618 127.396 5.81152C127.607 5.86133 127.787 5.95264 127.936 6.08545C128.085 6.21826 128.199 6.40088 128.276 6.6333C128.359 6.86019 128.401 7.15072 128.401 7.50488V13H130.708V7.47168C130.708 6.81868 130.631 6.2653 130.476 5.81152C130.327 5.35221 130.116 4.97591 129.845 4.68262C129.569 4.39486 129.242 4.18457 128.866 4.05176C128.489 3.91895 128.074 3.85254 127.621 3.85254C127.266 3.85254 126.932 3.90234 126.616 4.00195C126.301 4.10156 126.01 4.24544 125.745 4.43359C125.59 4.54427 125.443 4.66878 125.305 4.80713C125.166 4.94548 125.039 5.09766 124.923 5.26367L124.782 4.01855H122.69V13ZM132.584 8.42627V8.60059C132.584 9.25911 132.679 9.86784 132.867 10.4268C133.055 10.9801 133.332 11.4616 133.697 11.8711C134.056 12.2806 134.499 12.6016 135.025 12.834C135.556 13.0609 136.159 13.1743 136.834 13.1743C137.504 13.1743 138.102 13.0609 138.627 12.834C139.153 12.6016 139.596 12.2806 139.956 11.8711C140.315 11.4616 140.589 10.9801 140.777 10.4268C140.965 9.86784 141.06 9.25911 141.06 8.60059V8.42627C141.06 7.77327 140.965 7.17008 140.777 6.6167C140.589 6.05778 140.315 5.57357 139.956 5.16406C139.59 4.75456 139.145 4.43359 138.619 4.20117C138.093 3.96875 137.493 3.85254 136.818 3.85254C136.143 3.85254 135.542 3.96875 135.017 4.20117C134.496 4.43359 134.056 4.75456 133.697 5.16406C133.332 5.57357 133.055 6.05778 132.867 6.6167C132.679 7.17008 132.584 7.77327 132.584 8.42627ZM134.892 8.60059V8.42627C134.892 8.06104 134.928 7.71517 135 7.38867C135.072 7.06217 135.185 6.77441 135.34 6.52539C135.495 6.27637 135.694 6.07992 135.938 5.93604C136.181 5.79215 136.475 5.72021 136.818 5.72021C137.167 5.72021 137.463 5.79215 137.706 5.93604C137.95 6.07992 138.149 6.27637 138.304 6.52539C138.453 6.77441 138.564 7.06217 138.636 7.38867C138.708 7.71517 138.744 8.06104 138.744 8.42627V8.60059C138.744 8.97689 138.708 9.33105 138.636 9.66309C138.564 9.98958 138.453 10.2746 138.304 10.5181C138.149 10.7671 137.95 10.9635 137.706 11.1074C137.463 11.2513 137.172 11.3232 136.834 11.3232C136.486 11.3232 136.187 11.2513 135.938 11.1074C135.694 10.9635 135.495 10.7671 135.34 10.5181C135.185 10.2746 135.072 9.98958 135 9.66309C134.928 9.33105 134.892 8.97689 134.892 8.60059Z" fill="black"/>
</svg>
