<svg width="40" height="43" viewBox="0 0 40 43" fill="none" xmlns="http://www.w3.org/2000/svg">
<g clip-path="url(#clip0_543_635)">
<path d="M17.983 18.1414C17.2953 18.5212 16.7409 19.0875 16.3898 19.7686C16.0387 20.4497 15.9067 21.2151 16.0104 21.968C16.1142 22.7209 16.4491 23.4274 16.9727 23.9983C17.4964 24.5692 18.1853 24.9788 18.9523 25.1752C19.7194 25.3717 20.5301 25.3462 21.282 25.102C22.0339 24.8579 22.6932 24.4059 23.1766 23.8034C23.6599 23.2009 23.9456 22.4749 23.9974 21.7171C24.0493 20.9593 23.865 20.2039 23.468 19.5462C23.2043 19.1096 22.8532 18.7268 22.4349 18.4199C22.0165 18.113 21.539 17.8878 21.0297 17.7574C20.5204 17.6269 19.9892 17.5937 19.4664 17.6596C18.9436 17.7255 18.4396 17.8892 17.983 18.1414ZM35.983 22.3071C35.7163 22.019 35.4383 21.7302 35.1489 21.4407C35.3536 21.2354 35.5516 21.0301 35.743 20.8248C39.353 16.946 40.8769 13.0557 39.465 10.7165C38.111 8.47396 34.084 7.80549 29.0429 8.74364C28.5463 8.83672 28.0523 8.9416 27.561 9.05827C27.467 8.74842 27.367 8.44017 27.261 8.13351C25.5459 3.20463 22.7829 0 19.9599 0C17.2519 0 14.635 3.0038 12.966 7.65057C12.802 8.10896 12.65 8.57086 12.51 9.03627C12.1813 8.95913 11.8516 8.88804 11.521 8.82301C6.20195 7.77871 1.92095 8.46631 0.507951 10.8064C-0.843049 13.0509 0.569951 16.7184 3.94395 20.4213C4.27728 20.7879 4.62128 21.1462 4.97595 21.4962C4.55895 21.9064 4.16395 22.3177 3.79595 22.725C0.502951 26.3753 -0.829049 29.9835 0.519951 32.2184C1.91295 34.526 6.13695 35.2787 11.278 34.3137C11.6946 34.2347 12.109 34.1457 12.521 34.0469C12.6716 34.5506 12.8383 35.0501 13.021 35.5455C14.683 40.0976 17.285 43.0048 19.9839 43.0048C22.7699 43.0048 25.564 39.8814 27.256 35.1381C27.39 34.7632 27.5159 34.373 27.636 33.9733C28.1693 34.1008 28.705 34.2133 29.243 34.3109C34.1969 35.2069 38.1289 34.5021 39.4749 32.2663C40.8649 29.9567 39.4319 26.0827 35.9799 22.3129L35.983 22.3071ZM2.17195 11.7216C3.03895 10.2814 6.54095 9.71909 11.133 10.6209C11.4263 10.6789 11.7263 10.7427 12.033 10.8122C11.5846 12.7091 11.2682 14.6323 11.086 16.5692C9.4288 17.6839 7.84883 18.9 6.35595 20.2099C6.02728 19.8848 5.70728 19.5517 5.39595 19.2106C2.49595 16.0404 1.35795 13.0739 2.17195 11.7216ZM10.91 24.0371C9.76195 23.2061 8.69495 22.354 7.72695 21.4981C8.69495 20.647 9.76195 19.7987 10.907 18.9696C10.8656 19.8143 10.8453 20.6594 10.846 21.5048C10.8466 22.3502 10.868 23.1943 10.91 24.0371ZM10.91 32.5092C8.9612 32.9235 6.94935 32.9912 4.97495 32.709C4.43369 32.6687 3.90684 32.5226 3.42696 32.2798C2.94708 32.037 2.52436 31.7027 2.18495 31.2975C1.36695 29.9414 2.43595 27.0447 5.25195 23.9224C5.60595 23.5309 5.97262 23.1484 6.35195 22.7748C7.84497 24.0917 9.42742 25.3127 11.089 26.4298C11.2736 28.3924 11.5936 30.3412 12.047 32.2634C11.671 32.3533 11.2926 32.4343 10.912 32.5063L10.91 32.5092ZM26.8729 15.2246C26.1189 14.7701 25.3556 14.3301 24.583 13.9049C23.8223 13.4867 23.0529 13.0837 22.275 12.6961C23.608 12.1596 24.919 11.7025 26.184 11.3295C26.4823 12.616 26.7126 13.916 26.874 15.2246H26.8729ZM14.781 8.24348C16.211 4.26328 18.3279 1.83614 19.9599 1.83614C21.698 1.83614 23.96 4.4555 25.433 8.71113C25.529 8.98846 25.6196 9.26738 25.705 9.54791C23.7652 10.1232 21.8674 10.8206 20.024 11.6356C18.1881 10.8107 16.2961 10.1053 14.361 9.524C14.4903 9.09493 14.6306 8.66873 14.782 8.2454L14.781 8.24348ZM13.881 11.3037C15.2007 11.7009 16.4987 12.1615 17.77 12.6837C16.1953 13.4608 14.662 14.3075 13.17 15.2237C13.348 13.8552 13.588 12.5412 13.882 11.3066L13.881 11.3037ZM13.17 27.7744C13.9146 28.2303 14.6703 28.6695 15.437 29.0922C16.219 29.5226 17.0113 29.9351 17.8139 30.3297C16.5344 30.8707 15.2267 31.3485 13.896 31.7613C13.596 30.5066 13.353 29.1726 13.171 27.7773L13.17 27.7744ZM25.436 34.5394C24.8379 36.3605 23.8945 38.0608 22.653 39.5553C22.346 39.9834 21.9505 40.3468 21.4909 40.623C21.0314 40.8991 20.5174 41.0823 19.9809 41.161C18.344 41.161 16.254 38.8285 14.833 34.9363C14.6656 34.476 14.5116 34.0115 14.371 33.5429C16.3154 32.943 18.2151 32.2178 20.0569 31.3721C21.9157 32.1925 23.8289 32.8953 25.784 33.476C25.6773 33.833 25.5616 34.1872 25.437 34.5385L25.436 34.5394ZM26.25 31.6925C24.9699 31.3099 23.641 30.849 22.288 30.3048C23.0506 29.9223 23.8173 29.5172 24.5879 29.0894C25.382 28.6514 26.1553 28.2022 26.9079 27.7419C26.7578 29.0691 26.5365 30.388 26.245 31.6934L26.25 31.6925ZM27.25 21.4962C27.25 22.8019 27.2073 24.1066 27.122 25.4104C26.014 26.1276 24.845 26.8277 23.628 27.499C22.4109 28.1703 21.216 28.7824 20.038 29.339C18.7986 28.7709 17.5833 28.1589 16.392 27.5028C15.2006 26.8468 14.0446 26.1522 12.924 25.419C12.8206 24.1159 12.7686 22.8089 12.768 21.4981C12.768 20.1911 12.819 18.8841 12.921 17.5772C14.028 16.8542 15.189 16.1542 16.389 15.4914C17.589 14.8287 18.8099 14.2138 20.0189 13.6582C21.243 14.2269 22.445 14.8364 23.625 15.4867C24.805 16.137 25.9656 16.8239 27.107 17.5475C27.205 18.8583 27.254 20.171 27.254 21.4857L27.25 21.4962ZM29.401 10.5463C33.72 9.74299 36.977 10.2833 37.7929 11.6346C38.6619 13.0739 37.416 16.2536 34.2999 19.6036C34.1279 19.7885 33.9493 19.974 33.764 20.1602C32.2453 18.8472 30.6349 17.6347 28.944 16.531C28.7731 14.6153 28.4685 12.7128 28.0319 10.8361C28.4986 10.7264 28.955 10.6308 29.401 10.5492V10.5463ZM29.109 18.8979C30.2494 19.6941 31.3458 20.5464 32.394 21.4512C31.3503 22.371 30.2572 23.238 29.1189 24.0486C29.1536 23.1975 29.1706 22.3457 29.1699 21.4933C29.1699 20.6275 29.1493 19.762 29.108 18.8969L29.109 18.8979ZM37.8089 31.3434C36.9919 32.7004 33.8349 33.2666 29.5979 32.4996C29.1126 32.4123 28.6146 32.308 28.104 32.1869C28.5298 30.286 28.8208 28.3597 28.9749 26.4212C30.6615 25.2981 32.2653 24.0653 33.775 22.7317C34.0416 22.9944 34.2933 23.2558 34.5299 23.5159C35.8811 24.921 36.9502 26.5519 37.6839 28.3272C37.9186 28.7952 38.0504 29.3042 38.0712 29.8228C38.0921 30.3414 38.0014 30.8586 37.805 31.3425L37.8089 31.3434Z" fill="white"/>
</g>
<defs>
<clipPath id="clip0_543_635">
<rect width="40" height="43" fill="white"/>
</clipPath>
</defs>
</svg>
