<?xml version="1.0" encoding="UTF-8"?>
<!DOCTYPE svg PUBLIC "-//W3C//DTD SVG 1.1//EN" "http://www.w3.org/Graphics/SVG/1.1/DTD/svg11.dtd">
<svg xmlns="http://www.w3.org/2000/svg" version="1.1" width="469px" height="490px" style="shape-rendering:geometricPrecision; text-rendering:geometricPrecision; image-rendering:optimizeQuality; fill-rule:evenodd; clip-rule:evenodd" xmlns:xlink="http://www.w3.org/1999/xlink">
<g><path style="opacity:0.999" fill="#eeeced" d="M 373.5,134.5 C 371.742,134.123 370.075,133.456 368.5,132.5C 368.167,132.833 367.833,133.167 367.5,133.5C 377.829,148.874 384.829,165.541 388.5,183.5C 389.765,189.466 390.931,195.466 392,201.5C 392.5,219.83 392.667,238.164 392.5,256.5C 398.5,256.5 404.5,256.5 410.5,256.5C 405.1,257.187 399.6,257.854 394,258.5C 393.219,263.917 393.385,269.25 394.5,274.5C 393.175,278.276 392.509,282.443 392.5,287C 392.509,291.557 393.175,295.724 394.5,299.5C 393.376,305.752 393.21,312.085 394,318.5C 394.671,319.252 395.504,319.586 396.5,319.5C 395.07,321.155 394.236,323.155 394,325.5C 388.965,327.868 385.298,331.535 383,336.5C 382.586,336.043 382.086,335.709 381.5,335.5C 377.675,338.493 374.341,341.993 371.5,346C 341.632,356.803 310.965,365.136 279.5,371C 266.852,372.014 254.185,372.514 241.5,372.5C 241.5,371.5 241.5,370.5 241.5,369.5C 242.214,359.842 242.88,350.176 243.5,340.5C 243.741,335.568 242.908,330.902 241,326.5C 239.942,331.935 239.442,337.435 239.5,343C 239.905,351.833 240.238,360.667 240.5,369.5C 239.129,370.787 237.295,371.453 235,371.5C 204.166,368.173 175,359.673 147.5,346C 146.284,344.26 144.618,343.26 142.5,343C 129.198,330.735 120.531,315.735 116.5,298C 116.833,297.5 117.167,297 117.5,296.5C 118.368,298.796 119.702,299.463 121.5,298.5C 121.5,299.167 121.833,299.5 122.5,299.5C 124.446,302.518 127.113,304.851 130.5,306.5C 134.147,309.935 138.48,312.435 143.5,314C 153.924,317.442 164.59,319.275 175.5,319.5C 212.833,319.5 250.167,319.5 287.5,319.5C 306.813,320.308 325.813,318.308 344.5,313.5C 346.695,308.9 350.362,306.567 355.5,306.5C 359.112,302.677 362.778,298.844 366.5,295C 369.117,294.178 371.784,293.678 374.5,293.5C 374.425,287.471 374.759,281.471 375.5,275.5C 380.218,252.415 381.718,229.081 380,205.5C 378.967,186.268 371.134,170.435 356.5,158C 339.887,145.119 321.22,136.452 300.5,132C 260.566,123.777 220.566,123.443 180.5,131C 161.976,135.267 144.976,142.767 129.5,153.5C 128.711,153.217 128.044,152.717 127.5,152C 141.378,123.803 160.045,98.6359 183.5,76.5C 183,76.1667 182.5,75.8333 182,75.5C 178.849,77.7174 175.349,79.0507 171.5,79.5C 198.008,65.3658 226.342,59.8658 256.5,63C 300.996,68.8204 336.496,89.6537 363,125.5C 366.292,128.873 369.792,131.873 373.5,134.5 Z"/></g>
<g><path style="opacity:0.999" fill="#dcdbdb" d="M 129.5,153.5 C 113.451,167.781 105.617,185.781 106,207.5C 104.922,226.906 105.589,246.239 108,265.5C 109.887,277.684 114.387,288.684 121.5,298.5C 119.702,299.463 118.368,298.796 117.5,296.5C 117.167,297 116.833,297.5 116.5,298C 120.531,315.735 129.198,330.735 142.5,343C 144.618,343.26 146.284,344.26 147.5,346C 175,359.673 204.166,368.173 235,371.5C 237.295,371.453 239.129,370.787 240.5,369.5C 240.833,369.5 241.167,369.5 241.5,369.5C 241.5,370.5 241.5,371.5 241.5,372.5C 254.185,372.514 266.852,372.014 279.5,371C 310.965,365.136 341.632,356.803 371.5,346C 374.341,341.993 377.675,338.493 381.5,335.5C 382.086,335.709 382.586,336.043 383,336.5C 385.298,331.535 388.965,327.868 394,325.5C 394.236,323.155 395.07,321.155 396.5,319.5C 399.579,314.857 401.245,309.69 401.5,304C 401.298,298.946 398.965,297.446 394.5,299.5C 396.459,292.221 398.459,284.887 400.5,277.5C 402.365,280.023 404.865,281.689 408,282.5C 409.562,284.957 410.562,287.624 411,290.5C 414.277,291.447 416.61,293.447 418,296.5C 419.507,306.584 418.173,316.251 414,325.5C 411.575,328.053 409.408,330.72 407.5,333.5C 406.325,333.281 405.325,333.614 404.5,334.5C 402.981,336.424 401.647,338.424 400.5,340.5C 399.221,341.968 397.554,342.635 395.5,342.5C 393.719,346.503 390.719,349.336 386.5,351C 382.585,354.392 378.918,358.059 375.5,362C 374.207,362.49 372.873,362.657 371.5,362.5C 371.703,364.39 371.037,365.89 369.5,367C 364.685,368.613 360.018,370.447 355.5,372.5C 355.473,374.199 354.806,375.533 353.5,376.5C 350.338,376.694 347.004,377.527 343.5,379C 344.094,379.464 344.761,379.631 345.5,379.5C 343.66,381.669 341.326,383.002 338.5,383.5C 336.468,379.709 333.968,376.043 331,372.5C 330.517,371.552 330.351,370.552 330.5,369.5C 333.278,368.032 336.278,367.199 339.5,367C 340.993,365.844 340.826,365.01 339,364.5C 283.778,379.045 227.945,381.545 171.5,372C 144.005,366.724 117.672,358.057 92.5,346C 89.3072,344.974 87.9738,342.808 88.5,339.5C 85.2807,338.052 84.2807,339.052 85.5,342.5C 84.9744,344.23 83.9744,345.564 82.5,346.5C 81.2612,344.993 81.5946,343.826 83.5,343C 82.2341,342.691 81.0674,342.191 80,341.5C 78.6703,342.582 77.1703,343.249 75.5,343.5C 79.005,340.486 82.8384,337.819 87,335.5C 87.6667,332.167 87.6667,328.833 87,325.5C 79.1492,321.134 74.8158,314.468 74,305.5C 72.6244,304.295 71.4577,302.962 70.5,301.5C 72.0443,301.703 73.3777,302.37 74.5,303.5C 75.087,302.767 75.087,301.767 74.5,300.5C 77.4773,295.358 81.644,291.358 87,288.5C 88.0683,281.226 87.5683,274.226 85.5,267.5C 86.4959,267.586 87.3292,267.252 88,266.5C 88.3333,245.167 88.6667,223.833 89,202.5C 89.2963,199.294 89.7963,196.128 90.5,193C 88.5719,181.981 87.9053,170.815 88.5,159.5C 92.0889,158.908 94.4222,156.908 95.5,153.5C 99.1645,149.003 103.331,145.003 108,141.5C 122.789,114.21 143.955,93.5437 171.5,79.5C 175.349,79.0507 178.849,77.7174 182,75.5C 182.5,75.8333 183,76.1667 183.5,76.5C 160.045,98.6359 141.378,123.803 127.5,152C 128.044,152.717 128.711,153.217 129.5,153.5 Z M 396.5,319.5 C 395.504,319.586 394.671,319.252 394,318.5C 393.21,312.085 393.376,305.752 394.5,299.5C 398.965,297.446 401.298,298.946 401.5,304C 401.245,309.69 399.579,314.857 396.5,319.5 Z"/></g>
<g><path style="opacity:1" fill="#514f50" d="M 240.5,69.5 C 241.944,77.6201 242.611,85.9534 242.5,94.5C 242.576,100.896 242.076,107.23 241,113.5C 239.401,109.503 238.567,105.336 238.5,101C 239.259,90.5014 239.926,80.0014 240.5,69.5 Z"/></g>
<g><path style="opacity:0.018" fill="#fafcfc" d="M 88.5,105.5 C 89.1667,122.671 89.8333,140.005 90.5,157.5C 92.1856,156.143 93.8523,154.81 95.5,153.5C 94.4222,156.908 92.0889,158.908 88.5,159.5C 88.5,141.5 88.5,123.5 88.5,105.5 Z"/></g>
<g><path style="opacity:1" fill="#444243" d="M 284.5,105.5 C 294.745,104.57 297.745,108.736 293.5,118C 284.242,121.295 280.409,118.128 282,108.5C 283.045,107.627 283.878,106.627 284.5,105.5 Z"/></g>
<g><path style="opacity:1" fill="#4c4a4b" d="M 192.5,103.5 C 199.655,103.153 202.821,106.486 202,113.5C 198.038,119.631 193.705,119.964 189,114.5C 187.518,109.774 188.685,106.107 192.5,103.5 Z"/></g>
<g><path style="opacity:1" fill="#eae8e9" d="M 192.5,105.5 C 199.803,105.602 201.803,108.769 198.5,115C 196.101,115.711 193.768,115.544 191.5,114.5C 190.064,111.232 190.397,108.232 192.5,105.5 Z"/></g>
<g><path style="opacity:1" fill="#e8e6e7" d="M 285.5,107.5 C 293.486,106.998 295.486,110.165 291.5,117C 283.424,117.805 281.424,114.638 285.5,107.5 Z"/></g>
<g><path style="opacity:1" fill="#464445" d="M 156.5,117.5 C 165.307,117.465 167.64,121.298 163.5,129C 155.735,131.575 152.568,128.742 154,120.5C 155.045,119.627 155.878,118.627 156.5,117.5 Z"/></g>
<g><path style="opacity:1" fill="#e9e7e8" d="M 156.5,119.5 C 163.486,119.331 165.153,122.164 161.5,128C 154.836,128.176 153.17,125.343 156.5,119.5 Z"/></g>
<g><path style="opacity:1" fill="#030202" d="M 375.5,275.5 C 374.662,275.842 374.328,276.508 374.5,277.5C 370.289,275.902 366.622,273.568 363.5,270.5C 366.1,263.201 368.6,255.867 371,248.5C 371.667,246.5 371.667,244.5 371,242.5C 369.675,246.139 368.508,249.806 367.5,253.5C 365.876,253.64 364.71,252.973 364,251.5C 361.403,252.414 361.07,254.081 363,256.5C 364.065,254.604 364.898,254.437 365.5,256C 363.959,260.244 362.292,264.411 360.5,268.5C 356.638,267.572 352.971,266.072 349.5,264C 343.985,262.11 338.319,261.276 332.5,261.5C 326.681,260.347 320.681,260.181 314.5,261C 312.842,262.624 311.175,264.291 309.5,266C 306.961,267.047 304.295,267.547 301.5,267.5C 291.51,266.334 281.51,265.334 271.5,264.5C 265.144,263.362 259.81,260.195 255.5,255C 246.305,252.619 236.972,251.619 227.5,252C 220.511,254.33 213.511,256.663 206.5,259C 202.928,262.815 199.595,266.815 196.5,271C 189.104,273.511 182.104,276.678 175.5,280.5C 170.168,279.924 165.002,278.591 160,276.5C 144.425,279.202 131.925,286.868 122.5,299.5C 121.833,299.5 121.5,299.167 121.5,298.5C 114.387,288.684 109.887,277.684 108,265.5C 105.589,246.239 104.922,226.906 106,207.5C 105.617,185.781 113.451,167.781 129.5,153.5C 144.976,142.767 161.976,135.267 180.5,131C 220.566,123.443 260.566,123.777 300.5,132C 321.22,136.452 339.887,145.119 356.5,158C 371.134,170.435 378.967,186.268 380,205.5C 381.718,229.081 380.218,252.415 375.5,275.5 Z"/></g>
<g><path style="opacity:1" fill="#454445" d="M 320.5,120.5 C 325.319,120.153 328.319,122.32 329.5,127C 327.029,133.745 323.029,134.912 317.5,130.5C 316.978,129.393 316.645,128.226 316.5,127C 317.205,124.458 318.539,122.292 320.5,120.5 Z"/></g>
<g><path style="opacity:1" fill="#e7e6e6" d="M 320.5,122.5 C 327.486,122.331 329.153,125.164 325.5,131C 318.416,131.475 316.749,128.642 320.5,122.5 Z"/></g>
<g><path style="opacity:1" fill="#ebebeb" d="M 346.5,173.5 C 316.275,154.592 283.275,143.759 247.5,141C 245.043,139.846 245.043,138.512 247.5,137C 250.575,135.993 253.742,135.493 257,135.5C 288.657,138.75 317.157,149.917 342.5,169C 344.041,170.371 345.375,171.871 346.5,173.5 Z"/></g>
<g><path style="opacity:1" fill="#a6a6a6" d="M 165.5,146.5 C 167.337,146.639 167.67,147.306 166.5,148.5C 165.702,148.043 165.369,147.376 165.5,146.5 Z"/></g>
<g><path style="opacity:0.99" fill="#d7d7d7" d="M 373.5,134.5 C 390.906,145.748 403.406,161.082 411,180.5C 411.83,206.003 411.663,231.337 410.5,256.5C 410.5,231.5 410.5,206.5 410.5,181.5C 402.757,180.87 395.424,181.537 388.5,183.5C 384.829,165.541 377.829,148.874 367.5,133.5C 367.833,133.167 368.167,132.833 368.5,132.5C 370.075,133.456 371.742,134.123 373.5,134.5 Z"/></g>
<g><path style="opacity:1" fill="#cfd1c0" d="M 196.5,160.5 C 197.186,161.848 198.186,163.015 199.5,164C 198.234,164.309 197.067,164.809 196,165.5C 195.5,164.333 194.667,163.5 193.5,163C 195.119,162.764 196.119,161.931 196.5,160.5 Z"/></g>
<g><path style="opacity:1" fill="#9da0a4" d="M 88.5,105.5 C 88.5,123.5 88.5,141.5 88.5,159.5C 87.9053,170.815 88.5719,181.981 90.5,193C 89.7963,196.128 89.2963,199.294 89,202.5C 88.6667,223.833 88.3333,245.167 88,266.5C 87.3292,267.252 86.4959,267.586 85.5,267.5C 80.8215,267.666 76.1548,267.499 71.5,267C 70.7476,266.329 70.4142,265.496 70.5,264.5C 70.5,251.167 70.5,237.833 70.5,224.5C 70.5,219.833 70.5,215.167 70.5,210.5C 71.4902,204.355 71.8235,198.022 71.5,191.5C 75.1667,191.5 78.8333,191.5 82.5,191.5C 82.5,162.833 82.5,134.167 82.5,105.5C 83.0717,102.756 84.7383,101.923 87.5,103C 88.2524,103.671 88.5858,104.504 88.5,105.5 Z"/></g>
<g><path style="opacity:1" fill="#2f2f2f" d="M 175.5,170.5 C 182.357,170.508 184.69,173.675 182.5,180C 175.253,183.385 171.753,181.218 172,173.5C 173.145,172.364 174.312,171.364 175.5,170.5 Z"/></g>
<g><path style="opacity:1" fill="#2f2f2f" d="M 227.5,171.5 C 233.83,170.666 236.663,173.333 236,179.5C 230.754,184.12 226.92,183.287 224.5,177C 224.685,174.624 225.685,172.791 227.5,171.5 Z"/></g>
<g><path style="opacity:1" fill="#a2a2a2" d="M 346.5,173.5 C 349.323,174.148 350.823,175.814 351,178.5C 349.242,176.917 347.742,175.25 346.5,173.5 Z"/></g>
<g><path style="opacity:1" fill="#313131" d="M 338.5,175.5 C 343.934,174.675 346.934,176.675 347.5,181.5C 344.019,186.308 340.186,186.641 336,182.5C 335.162,179.519 335.995,177.186 338.5,175.5 Z"/></g>
<g><path style="opacity:1" fill="#ac4149" d="M 317.5,198.5 C 317.167,198.5 316.833,198.5 316.5,198.5C 316.688,194.909 315.855,191.576 314,188.5C 310.529,185.847 306.696,183.847 302.5,182.5C 298.427,183.778 294.761,185.778 291.5,188.5C 295.826,182.187 301.826,180.021 309.5,182C 311.86,184.605 314.36,187.105 317,189.5C 317.498,192.482 317.665,195.482 317.5,198.5 Z"/></g>
<g><path style="opacity:1" fill="#d6d7d8" d="M 82.5,105.5 C 82.5,134.167 82.5,162.833 82.5,191.5C 78.8333,191.5 75.1667,191.5 71.5,191.5C 71.8235,198.022 71.4902,204.355 70.5,210.5C 69.5,210.5 68.5,210.5 67.5,210.5C 67.8587,195.589 72.3587,181.922 81,169.5C 81.1681,147.996 81.6681,126.663 82.5,105.5 Z"/></g>
<g><path style="opacity:1" fill="#e5e5e5" d="M 261.5,183.5 C 264.1,185.244 263.934,186.577 261,187.5C 260.5,186.333 259.667,185.5 258.5,185C 259.737,184.768 260.737,184.268 261.5,183.5 Z"/></g>
<g><path style="opacity:1" fill="#acacac" d="M 124.5,186.5 C 128.202,188.221 128.202,189.888 124.5,191.5C 122.016,189.631 122.016,187.964 124.5,186.5 Z"/></g>
<g><path style="opacity:1" fill="#d7d1a6" d="M 289.5,189.5 C 288.833,190.167 288.167,190.833 287.5,191.5C 284.148,191.216 281.148,190.05 278.5,188C 282.327,187.416 285.994,187.916 289.5,189.5 Z"/></g>
<g><path style="opacity:1" fill="#e7e7e7" d="M 158.5,145.5 C 160.379,145.393 160.712,145.893 159.5,147C 147.323,154.175 135.99,162.508 125.5,172C 119.673,179.105 116.173,187.271 115,196.5C 113.242,208.116 111.908,219.783 111,231.5C 109.885,216.401 110.552,201.401 113,186.5C 116.47,175.695 122.97,167.195 132.5,161C 140.767,155.039 149.433,149.872 158.5,145.5 Z"/></g>
<g><path style="opacity:1" fill="#f04851" d="M 316.5,198.5 C 308.02,195.675 299.687,192.675 291.5,189.5C 291.5,189.167 291.5,188.833 291.5,188.5C 294.761,185.778 298.427,183.778 302.5,182.5C 306.696,183.847 310.529,185.847 314,188.5C 315.855,191.576 316.688,194.909 316.5,198.5 Z"/></g>
<g><path style="opacity:1" fill="#f28d7b" d="M 289.5,189.5 C 290.167,189.5 290.833,189.5 291.5,189.5C 299.687,192.675 308.02,195.675 316.5,198.5C 316.833,198.5 317.167,198.5 317.5,198.5C 317.5,198.833 317.5,199.167 317.5,199.5C 317.5,200.167 317.5,200.833 317.5,201.5C 317.167,201.5 316.833,201.5 316.5,201.5C 316.5,200.167 315.833,199.5 314.5,199.5C 307.653,196.717 300.653,194.217 293.5,192C 291.934,191.235 290.601,191.402 289.5,192.5C 288.508,192.672 287.842,192.338 287.5,191.5C 288.167,190.833 288.833,190.167 289.5,189.5 Z"/></g>
<g><path style="opacity:1" fill="#474b4f" d="M 79.5,198.5 C 81.4286,198.231 83.0953,198.731 84.5,200C 80.4197,201.295 78.0864,204.128 77.5,208.5C 74.4621,204.355 75.1288,201.022 79.5,198.5 Z"/></g>
<g><path style="opacity:1" fill="#eb454e" d="M 314.5,199.5 C 314.67,200.822 314.337,201.989 313.5,203C 310.343,203.742 307.677,205.242 305.5,207.5C 302.187,208.51 298.854,208.51 295.5,207.5C 293.376,206.969 291.876,205.635 291,203.5C 289.763,199.94 289.263,196.273 289.5,192.5C 290.601,191.402 291.934,191.235 293.5,192C 300.653,194.217 307.653,196.717 314.5,199.5 Z"/></g>
<g><path style="opacity:1" fill="#b0ab8b" d="M 317.5,199.5 C 320.578,200.202 323.578,201.202 326.5,202.5C 323.24,203.786 320.24,203.453 317.5,201.5C 317.5,200.833 317.5,200.167 317.5,199.5 Z"/></g>
<g><path style="opacity:1" fill="#af424d" d="M 314.5,199.5 C 315.833,199.5 316.5,200.167 316.5,201.5C 310.928,208.805 303.928,210.805 295.5,207.5C 298.854,208.51 302.187,208.51 305.5,207.5C 307.677,205.242 310.343,203.742 313.5,203C 314.337,201.989 314.67,200.822 314.5,199.5 Z"/></g>
<g><path style="opacity:1" fill="#b5b8a5" d="M 365.5,211.5 C 367.121,211.787 368.121,212.787 368.5,214.5C 366.635,215.666 364.968,215.333 363.5,213.5C 364.243,212.818 364.909,212.151 365.5,211.5 Z"/></g>
<g><path style="opacity:1" fill="#4b4b4f" d="M 67.5,210.5 C 68.5,210.5 69.5,210.5 70.5,210.5C 70.5,215.167 70.5,219.833 70.5,224.5C 69.5,224.5 68.5,224.5 67.5,224.5C 66.7051,220.215 66.3718,215.881 66.5,211.5C 66.5,210.833 66.8333,210.5 67.5,210.5 Z"/></g>
<g><path style="opacity:1" fill="#484c51" d="M 78.5,216.5 C 81.0728,216.148 83.4062,216.648 85.5,218C 80.6231,218.711 77.9565,221.544 77.5,226.5C 74.4914,222.608 74.8247,219.275 78.5,216.5 Z"/></g>
<g><path style="opacity:1" fill="#2884b1" d="M 156.5,226.5 C 154.833,227.167 153.167,227.833 151.5,228.5C 150.833,228.5 150.5,228.833 150.5,229.5C 147.391,229.736 144.391,229.403 141.5,228.5C 140.833,228.167 140.167,227.833 139.5,227.5C 144.178,223.332 149.512,222.499 155.5,225C 156.056,225.383 156.389,225.883 156.5,226.5 Z"/></g>
<g><path style="opacity:1" fill="#468769" d="M 156.5,226.5 C 157.791,226.263 158.791,226.596 159.5,227.5C 156.904,228.265 154.237,228.599 151.5,228.5C 153.167,227.833 154.833,227.167 156.5,226.5 Z"/></g>
<g><path style="opacity:0.937" fill="#a7a8ae" d="M 410.5,256.5 C 404.5,256.5 398.5,256.5 392.5,256.5C 392.667,238.164 392.5,219.83 392,201.5C 390.931,195.466 389.765,189.466 388.5,183.5C 395.424,181.537 402.757,180.87 410.5,181.5C 410.5,206.5 410.5,231.5 410.5,256.5 Z"/></g>
<g><path style="opacity:1" fill="#4d5052" d="M 399.5,219.5 C 402.471,219.435 405.138,220.269 407.5,222C 401.667,221.833 398.833,224.667 399,230.5C 395.633,226.693 395.8,223.026 399.5,219.5 Z"/></g>
<g><path style="opacity:1" fill="#494b4f" d="M 398.5,203.5 C 401.247,203.187 403.914,203.52 406.5,204.5C 404.219,205.277 402.052,206.277 400,207.5C 399.254,215.159 398.087,215.326 396.5,208C 396.519,206.167 397.185,204.667 398.5,203.5 Z"/></g>
<g><path style="opacity:1" fill="#46494e" d="M 399.5,185.5 C 401.989,185.298 404.323,185.798 406.5,187C 401.272,187.429 398.605,190.262 398.5,195.5C 395.601,191.785 395.935,188.451 399.5,185.5 Z"/></g>
<g><path style="opacity:1" fill="#5e9d5c" d="M 141.5,228.5 C 144.391,229.403 147.391,229.736 150.5,229.5C 151.802,231.028 153.469,232.028 155.5,232.5C 155.167,232.5 154.833,232.5 154.5,232.5C 150.865,233.114 147.198,233.448 143.5,233.5C 144.091,232.849 144.757,232.182 145.5,231.5C 143.668,230.943 142.335,229.943 141.5,228.5 Z"/></g>
<g><path style="opacity:1" fill="#8ba21b" d="M 159.5,227.5 C 159.833,228.5 160.5,229.167 161.5,229.5C 161.5,231.167 161.5,232.833 161.5,234.5C 159.114,234.741 157.114,234.075 155.5,232.5C 153.469,232.028 151.802,231.028 150.5,229.5C 150.5,228.833 150.833,228.5 151.5,228.5C 154.237,228.599 156.904,228.265 159.5,227.5 Z"/></g>
<g><path style="opacity:0.017" fill="#fbfbfe" d="M 67.5,224.5 C 68.5,224.5 69.5,224.5 70.5,224.5C 70.5,237.833 70.5,251.167 70.5,264.5C 70.1295,251.098 69.1295,237.764 67.5,224.5 Z"/></g>
<g><path style="opacity:1" fill="#4c866e" d="M 161.5,229.5 C 162.268,231.715 162.935,234.048 163.5,236.5C 162.1,237.1 161.1,238.1 160.5,239.5C 159.833,234.167 159.167,234.167 158.5,239.5C 157.596,238.791 157.263,237.791 157.5,236.5C 156.167,236.5 154.833,236.5 153.5,236.5C 154.234,235.292 154.567,233.959 154.5,232.5C 154.833,232.5 155.167,232.5 155.5,232.5C 157.114,234.075 159.114,234.741 161.5,234.5C 161.5,232.833 161.5,231.167 161.5,229.5 Z"/></g>
<g><path style="opacity:1" fill="#3474b3" d="M 160.5,239.5 C 159.833,239.5 159.167,239.5 158.5,239.5C 159.167,234.167 159.833,234.167 160.5,239.5 Z"/></g>
<g><path style="opacity:1" fill="#474b50" d="M 78.5,233.5 C 81.0728,233.148 83.4062,233.648 85.5,235C 80.5325,235.635 78.0325,238.469 78,243.5C 74.5624,239.849 74.7291,236.516 78.5,233.5 Z"/></g>
<g><path style="opacity:1" fill="#8b9d29" d="M 139.5,227.5 C 140.167,227.833 140.833,228.167 141.5,228.5C 142.335,229.943 143.668,230.943 145.5,231.5C 144.757,232.182 144.091,232.849 143.5,233.5C 142.19,235.148 140.857,236.814 139.5,238.5C 142.027,239.214 144.527,239.88 147,240.5C 147.575,244.376 147.075,248.042 145.5,251.5C 145.631,252.376 145.298,253.043 144.5,253.5C 144.025,250.845 142.691,248.845 140.5,247.5C 140.214,242.888 137.88,240.221 133.5,239.5C 133.389,234.389 135.389,230.389 139.5,227.5 Z"/></g>
<g><path style="opacity:1" fill="#48494c" d="M 399.5,238.5 C 401.75,238.181 403.75,238.681 405.5,240C 401.08,241.089 398.913,243.923 399,248.5C 395.578,244.899 395.744,241.566 399.5,238.5 Z"/></g>
<g><path style="opacity:1" fill="#8b9b24" d="M 153.5,236.5 C 154.833,236.5 156.167,236.5 157.5,236.5C 157.263,237.791 157.596,238.791 158.5,239.5C 159.167,239.5 159.833,239.5 160.5,239.5C 161.1,238.1 162.1,237.1 163.5,236.5C 165.139,241.212 164.473,245.712 161.5,250C 159.866,250.494 158.199,250.66 156.5,250.5C 156.167,250.5 155.833,250.5 155.5,250.5C 155.558,247.336 156.224,244.336 157.5,241.5C 153.425,241.624 152.092,239.957 153.5,236.5 Z"/></g>
<g><path style="opacity:1" fill="#2e2e2e" d="M 287.5,240.5 C 295.022,240.67 297.022,244.003 293.5,250.5C 286.029,252.864 283.196,250.197 285,242.5C 285.995,241.934 286.828,241.267 287.5,240.5 Z"/></g>
<g><path style="opacity:1" fill="#2289b5" d="M 133.5,239.5 C 137.88,240.221 140.214,242.888 140.5,247.5C 140.768,249.099 140.434,250.432 139.5,251.5C 135.807,248.465 133.807,244.465 133.5,239.5 Z"/></g>
<g><path style="opacity:1" fill="#288ab9" d="M 154.5,232.5 C 154.567,233.959 154.234,235.292 153.5,236.5C 152.092,239.957 153.425,241.624 157.5,241.5C 156.224,244.336 155.558,247.336 155.5,250.5C 154.778,250.082 154.278,249.416 154,248.5C 151.458,250.182 148.625,251.182 145.5,251.5C 147.075,248.042 147.575,244.376 147,240.5C 144.527,239.88 142.027,239.214 139.5,238.5C 140.857,236.814 142.19,235.148 143.5,233.5C 147.198,233.448 150.865,233.114 154.5,232.5 Z"/></g>
<g><path style="opacity:1" fill="#165674" d="M 140.5,247.5 C 142.691,248.845 144.025,250.845 144.5,253.5C 145.298,253.043 145.631,252.376 145.5,251.5C 148.625,251.182 151.458,250.182 154,248.5C 154.278,249.416 154.778,250.082 155.5,250.5C 155.833,250.5 156.167,250.5 156.5,250.5C 157.263,251.268 158.263,251.768 159.5,252C 154.638,255.224 149.304,256.224 143.5,255C 141.907,254.051 140.574,252.885 139.5,251.5C 140.434,250.432 140.768,249.099 140.5,247.5 Z"/></g>
<g><path style="opacity:1" fill="#4c4d51" d="M 78.5,251.5 C 85.3704,251.481 85.8704,252.814 80,255.5C 78.9562,257.715 78.2895,260.048 78,262.5C 74.5487,258.617 74.7154,254.95 78.5,251.5 Z"/></g>
<g><path style="opacity:1" fill="#8b8b87" d="M 276.5,255.5 C 277.386,254.224 278.386,254.224 279.5,255.5C 278.575,256.562 277.575,256.562 276.5,255.5 Z"/></g>
<g><path style="opacity:1" fill="#f3be86" d="M 271.5,264.5 C 271.5,265.5 271.5,266.5 271.5,267.5C 269.473,267.338 267.473,267.505 265.5,268C 262.945,273.537 258.778,277.37 253,279.5C 246.872,280.614 240.705,281.447 234.5,282C 233.196,282.804 232.529,283.971 232.5,285.5C 233.046,287.135 233.38,288.801 233.5,290.5C 241.931,290.144 250.264,288.977 258.5,287C 263.17,284.084 267.336,280.584 271,276.5C 271.497,274.19 271.663,271.857 271.5,269.5C 283.833,268.392 296.167,268.225 308.5,269C 309.988,267.283 311.821,266.116 314,265.5C 314.483,264.552 314.649,263.552 314.5,262.5C 320.545,262.697 326.545,262.363 332.5,261.5C 338.319,261.276 343.985,262.11 349.5,264C 352.971,266.072 356.638,267.572 360.5,268.5C 359.737,270.368 358.737,272.035 357.5,273.5C 356.475,271.799 354.975,270.465 353,269.5C 348.713,268.183 344.546,266.683 340.5,265C 324.877,263.576 322.544,268.243 333.5,279C 339.026,282.601 345.026,284.768 351.5,285.5C 351.5,286.167 351.5,286.833 351.5,287.5C 340.168,292.912 328.668,298.245 317,303.5C 312.63,305.025 308.13,305.692 303.5,305.5C 303.5,306.5 303.5,307.5 303.5,308.5C 312.938,306.972 322.271,305.138 331.5,303C 332.858,302.066 334.192,301.232 335.5,300.5C 338.432,300.716 341.098,300.049 343.5,298.5C 346.58,299.819 349.246,301.486 351.5,303.5C 351.5,304.5 351.5,305.5 351.5,306.5C 346.351,308.901 341.017,311.067 335.5,313C 330.262,314.367 324.928,315.534 319.5,316.5C 298.167,315.167 276.833,315.167 255.5,316.5C 255.5,314.833 255.5,313.167 255.5,311.5C 260.833,311.167 266.167,310.833 271.5,310.5C 271.5,309.167 271.5,307.833 271.5,306.5C 239.517,307.833 207.517,308.499 175.5,308.5C 175.5,307.5 175.5,306.5 175.5,305.5C 179.898,303.569 184.565,302.569 189.5,302.5C 190.397,297.728 188.397,295.395 183.5,295.5C 183.167,294.667 182.833,293.833 182.5,293C 183.256,289.875 183.589,286.709 183.5,283.5C 181.278,283.178 179.444,283.845 178,285.5C 176.375,289.332 175.375,293.332 175,297.5C 171.171,302.074 166.504,305.408 161,307.5C 160.312,308.332 160.479,308.998 161.5,309.5C 163.071,310.309 164.738,310.643 166.5,310.5C 166.918,311.222 167.584,311.722 168.5,312C 176.159,312.5 183.826,312.666 191.5,312.5C 196.833,312.5 202.167,312.5 207.5,312.5C 217.781,314.476 228.448,315.143 239.5,314.5C 239.5,315.5 239.5,316.5 239.5,317.5C 217.987,317.506 196.654,318.172 175.5,319.5C 164.59,319.275 153.924,317.442 143.5,314C 138.48,312.435 134.147,309.935 130.5,306.5C 132.156,307.146 133.823,307.813 135.5,308.5C 147.875,304.972 157.875,297.972 165.5,287.5C 166.167,285.167 166.833,282.833 167.5,280.5C 170.039,281.115 172.539,281.782 175,282.5C 175.464,281.906 175.631,281.239 175.5,280.5C 182.104,276.678 189.104,273.511 196.5,271C 199.595,266.815 202.928,262.815 206.5,259C 213.511,256.663 220.511,254.33 227.5,252C 236.972,251.619 246.305,252.619 255.5,255C 259.81,260.195 265.144,263.362 271.5,264.5 Z"/></g>
<g><path style="opacity:1" fill="#d7a16c" d="M 220.5,255.5 C 229.506,255.334 238.506,255.5 247.5,256C 258.088,260.392 258.088,265.059 247.5,270C 235.475,273.304 223.475,273.304 211.5,270C 210.308,268.088 209.308,266.088 208.5,264C 210.301,263.683 210.634,263.016 209.5,262C 213.56,260.311 217.227,258.144 220.5,255.5 Z"/></g>
<g><path style="opacity:1" fill="#d6a16b" d="M 357.5,273.5 C 355.487,277.527 353.487,281.527 351.5,285.5C 345.026,284.768 339.026,282.601 333.5,279C 322.544,268.243 324.877,263.576 340.5,265C 344.546,266.683 348.713,268.183 353,269.5C 354.975,270.465 356.475,271.799 357.5,273.5 Z"/></g>
<g><path style="opacity:1" fill="#f3f1ea" d="M 363.5,270.5 C 361.037,275.425 358.537,280.425 356,285.5C 354.89,287.037 353.39,287.703 351.5,287.5C 351.5,286.833 351.5,286.167 351.5,285.5C 353.487,281.527 355.487,277.527 357.5,273.5C 358.737,272.035 359.737,270.368 360.5,268.5C 362.292,264.411 363.959,260.244 365.5,256C 364.898,254.437 364.065,254.604 363,256.5C 361.07,254.081 361.403,252.414 364,251.5C 364.71,252.973 365.876,253.64 367.5,253.5C 368.508,249.806 369.675,246.139 371,242.5C 371.667,244.5 371.667,246.5 371,248.5C 368.6,255.867 366.1,263.201 363.5,270.5 Z"/></g>
<g><path style="opacity:1" fill="#e0b081" d="M 332.5,261.5 C 326.545,262.363 320.545,262.697 314.5,262.5C 314.649,263.552 314.483,264.552 314,265.5C 311.821,266.116 309.988,267.283 308.5,269C 296.167,268.225 283.833,268.392 271.5,269.5C 271.663,271.857 271.497,274.19 271,276.5C 267.336,280.584 263.17,284.084 258.5,287C 250.264,288.977 241.931,290.144 233.5,290.5C 233.38,288.801 233.046,287.135 232.5,285.5C 232.529,283.971 233.196,282.804 234.5,282C 240.705,281.447 246.872,280.614 253,279.5C 258.778,277.37 262.945,273.537 265.5,268C 267.473,267.505 269.473,267.338 271.5,267.5C 271.5,266.5 271.5,265.5 271.5,264.5C 281.51,265.334 291.51,266.334 301.5,267.5C 304.295,267.547 306.961,267.047 309.5,266C 311.175,264.291 312.842,262.624 314.5,261C 320.681,260.181 326.681,260.347 332.5,261.5 Z"/></g>
<g><path style="opacity:1" fill="#bdbdbd" d="M 394.5,274.5 C 397.089,274.461 399.089,275.461 400.5,277.5C 398.459,284.887 396.459,292.221 394.5,299.5C 393.175,295.724 392.509,291.557 392.5,287C 392.509,282.443 393.175,278.276 394.5,274.5 Z"/></g>
<g><path style="opacity:0.686" fill="#b4b4b4" d="M 66.5,211.5 C 66.3718,215.881 66.7051,220.215 67.5,224.5C 63.3662,229.773 60.5328,235.773 59,242.5C 51.106,265.597 56.2727,284.93 74.5,300.5C 75.087,301.767 75.087,302.767 74.5,303.5C 73.3777,302.37 72.0443,301.703 70.5,301.5C 66.1691,298.002 62.3358,294.002 59,289.5C 52.3287,276.462 50.8287,262.629 54.5,248C 54.1667,247.667 53.8333,247.333 53.5,247C 55.1458,245.445 55.4791,243.779 54.5,242C 57.6053,234.028 61.1053,226.195 65,218.5C 65.1862,215.964 65.6862,213.631 66.5,211.5 Z"/></g>
<g><path style="opacity:1" fill="#dead7e" d="M 175.5,308.5 C 172.5,309.167 169.5,309.833 166.5,310.5C 164.738,310.643 163.071,310.309 161.5,309.5C 160.479,308.998 160.312,308.332 161,307.5C 166.504,305.408 171.171,302.074 175,297.5C 175.375,293.332 176.375,289.332 178,285.5C 179.444,283.845 181.278,283.178 183.5,283.5C 183.589,286.709 183.256,289.875 182.5,293C 182.833,293.833 183.167,294.667 183.5,295.5C 188.397,295.395 190.397,297.728 189.5,302.5C 184.565,302.569 179.898,303.569 175.5,305.5C 175.5,306.5 175.5,307.5 175.5,308.5 Z"/></g>
<g><path style="opacity:1" fill="#d7a470" d="M 175.5,280.5 C 175.631,281.239 175.464,281.906 175,282.5C 172.539,281.782 170.039,281.115 167.5,280.5C 166.833,282.833 166.167,285.167 165.5,287.5C 157.875,297.972 147.875,304.972 135.5,308.5C 133.823,307.813 132.156,307.146 130.5,306.5C 127.113,304.851 124.446,302.518 122.5,299.5C 131.925,286.868 144.425,279.202 160,276.5C 165.002,278.591 170.168,279.924 175.5,280.5 Z"/></g>
<g><path style="opacity:1" fill="#e2b786" d="M 363.5,270.5 C 366.622,273.568 370.289,275.902 374.5,277.5C 373.955,282.229 371.621,285.562 367.5,287.5C 367.785,289.288 367.452,290.955 366.5,292.5C 363.038,296.127 359.371,299.627 355.5,303C 354.207,303.49 352.873,303.657 351.5,303.5C 349.246,301.486 346.58,299.819 343.5,298.5C 341.098,300.049 338.432,300.716 335.5,300.5C 340.407,297.71 345.407,294.71 350.5,291.5C 351.429,290.311 351.762,288.978 351.5,287.5C 353.39,287.703 354.89,287.037 356,285.5C 358.537,280.425 361.037,275.425 363.5,270.5 Z"/></g>
<g><path style="opacity:1" fill="#d19761" d="M 367.5,287.5 C 364.332,288.792 361.165,288.792 358,287.5C 357.333,286.5 357.333,285.5 358,284.5C 360.159,281.872 361.659,278.872 362.5,275.5C 365.177,277.845 367.51,280.512 369.5,283.5C 368.37,284.622 367.703,285.956 367.5,287.5 Z"/></g>
<g><path style="opacity:1" fill="#faf0e4" d="M 351.5,287.5 C 351.762,288.978 351.429,290.311 350.5,291.5C 345.407,294.71 340.407,297.71 335.5,300.5C 334.192,301.232 332.858,302.066 331.5,303C 322.271,305.138 312.938,306.972 303.5,308.5C 303.5,307.5 303.5,306.5 303.5,305.5C 308.13,305.692 312.63,305.025 317,303.5C 328.668,298.245 340.168,292.912 351.5,287.5 Z"/></g>
<g><path style="opacity:1" fill="#f5e9dc" d="M 375.5,275.5 C 374.759,281.471 374.425,287.471 374.5,293.5C 371.784,293.678 369.117,294.178 366.5,295C 362.778,298.844 359.112,302.677 355.5,306.5C 350.362,306.567 346.695,308.9 344.5,313.5C 325.813,318.308 306.813,320.308 287.5,319.5C 298.167,318.5 308.833,317.5 319.5,316.5C 324.928,315.534 330.262,314.367 335.5,313C 341.017,311.067 346.351,308.901 351.5,306.5C 351.5,305.5 351.5,304.5 351.5,303.5C 352.873,303.657 354.207,303.49 355.5,303C 359.371,299.627 363.038,296.127 366.5,292.5C 367.452,290.955 367.785,289.288 367.5,287.5C 371.621,285.562 373.955,282.229 374.5,277.5C 374.328,276.508 374.662,275.842 375.5,275.5 Z"/></g>
<g><path style="opacity:1" fill="#edc292" d="M 319.5,316.5 C 308.833,317.5 298.167,318.5 287.5,319.5C 250.167,319.5 212.833,319.5 175.5,319.5C 196.654,318.172 217.987,317.506 239.5,317.5C 239.5,316.5 239.5,315.5 239.5,314.5C 228.448,315.143 217.781,314.476 207.5,312.5C 250.167,311.833 250.167,311.167 207.5,310.5C 196.993,309.177 186.326,309.177 175.5,310.5C 180.792,311.495 186.125,311.828 191.5,311.5C 191.5,311.833 191.5,312.167 191.5,312.5C 183.826,312.666 176.159,312.5 168.5,312C 167.584,311.722 166.918,311.222 166.5,310.5C 169.5,309.833 172.5,309.167 175.5,308.5C 207.517,308.499 239.517,307.833 271.5,306.5C 271.5,307.833 271.5,309.167 271.5,310.5C 266.167,310.833 260.833,311.167 255.5,311.5C 255.5,313.167 255.5,314.833 255.5,316.5C 276.833,315.167 298.167,315.167 319.5,316.5 Z"/></g>
<g><path style="opacity:1" fill="#fee9cb" d="M 207.5,310.5 C 250.167,311.167 250.167,311.833 207.5,312.5C 202.167,312.5 196.833,312.5 191.5,312.5C 191.5,312.167 191.5,311.833 191.5,311.5C 197.026,311.821 202.36,311.488 207.5,310.5 Z"/></g>
<g><path style="opacity:1" fill="#f6f4ee" d="M 207.5,310.5 C 202.36,311.488 197.026,311.821 191.5,311.5C 186.125,311.828 180.792,311.495 175.5,310.5C 186.326,309.177 196.993,309.177 207.5,310.5 Z"/></g>
<g><path style="opacity:1" fill="#a9a8a8" d="M 252.5,334.5 C 253.825,338.445 254.492,342.778 254.5,347.5C 254.167,351.833 253.833,356.167 253.5,360.5C 252.502,351.859 252.169,343.192 252.5,334.5 Z"/></g>
<g><path style="opacity:1" fill="#cecccc" d="M 400.5,340.5 C 410.319,344.765 411.986,351.098 405.5,359.5C 389.45,368.851 372.117,374.518 353.5,376.5C 354.806,375.533 355.473,374.199 355.5,372.5C 360.018,370.447 364.685,368.613 369.5,367C 371.037,365.89 371.703,364.39 371.5,362.5C 372.873,362.657 374.207,362.49 375.5,362C 378.918,358.059 382.585,354.392 386.5,351C 390.719,349.336 393.719,346.503 395.5,342.5C 397.554,342.635 399.221,341.968 400.5,340.5 Z"/></g>
<g><path style="opacity:1" fill="#a7a5a6" d="M 221.5,337.5 C 222.82,340.428 223.486,343.761 223.5,347.5C 223.167,350.833 222.833,354.167 222.5,357.5C 221.503,350.866 221.17,344.2 221.5,337.5 Z"/></g>
<g><path style="opacity:1" fill="#a5a3a4" d="M 258.5,338.5 C 259.818,341.258 260.485,344.424 260.5,348C 260.167,351.167 259.833,354.333 259.5,357.5C 258.504,351.202 258.17,344.868 258.5,338.5 Z"/></g>
<g><path style="opacity:1" fill="#a6a4a5" d="M 227.5,334.5 C 228.826,338.614 229.493,343.114 229.5,348C 229.167,352.5 228.833,357 228.5,361.5C 227.502,352.525 227.168,343.525 227.5,334.5 Z"/></g>
<g><path style="opacity:1" fill="#a7a6a7" d="M 241.5,369.5 C 241.167,369.5 240.833,369.5 240.5,369.5C 240.238,360.667 239.905,351.833 239.5,343C 239.442,337.435 239.942,331.935 241,326.5C 242.908,330.902 243.741,335.568 243.5,340.5C 242.88,350.176 242.214,359.842 241.5,369.5 Z"/></g>
<g><path style="opacity:1" fill="#b7b6b7" d="M 246.5,331.5 C 247.829,336.624 248.495,342.124 248.5,348C 248.167,353.5 247.833,359 247.5,364.5C 246.501,353.52 246.168,342.52 246.5,331.5 Z"/></g>
<g><path style="opacity:1" fill="#bbb9ba" d="M 232.5,331.5 C 233.5,331.5 234.5,331.5 235.5,331.5C 235.832,342.52 235.499,353.52 234.5,364.5C 233.914,364.291 233.414,363.957 233,363.5C 232.5,352.839 232.333,342.172 232.5,331.5 Z"/></g>
<g><path style="opacity:1" fill="#f2f2f2" d="M 73.5,345.5 C 70.6388,350.023 70.9721,354.357 74.5,358.5C 80.2536,363.044 86.587,366.544 93.5,369C 122.299,376.892 151.633,381.559 181.5,383C 183.833,383.333 186.167,383.667 188.5,384C 186.866,384.494 185.199,384.66 183.5,384.5C 152.659,383.353 122.326,378.853 92.5,371C 85.8882,368.91 79.5549,366.243 73.5,363C 69.9734,360.638 66.9734,357.804 64.5,354.5C 64.369,353.761 64.5357,353.094 65,352.5C 68.631,351.027 71.4644,348.694 73.5,345.5 Z"/></g>
<g><path style="opacity:1" fill="#bbbbbb" d="M 64.5,354.5 C 66.9734,357.804 69.9734,360.638 73.5,363C 79.5549,366.243 85.8882,368.91 92.5,371C 122.326,378.853 152.659,383.353 183.5,384.5C 203.314,385.945 223.314,386.612 243.5,386.5C 259.934,386.713 276.267,386.047 292.5,384.5C 303.147,385.009 303.147,385.842 292.5,387C 290.968,387.7 289.968,388.866 289.5,390.5C 288.333,390.833 287.167,391.167 286,391.5C 275.021,387.567 268.521,391.234 266.5,402.5C 267.945,411.123 272.945,414.957 281.5,414C 289.33,408.991 296.996,403.824 304.5,398.5C 313.053,395.028 321.719,391.862 330.5,389C 332.346,387.97 334.013,386.804 335.5,385.5C 337.027,385.573 338.027,384.906 338.5,383.5C 341.326,383.002 343.66,381.669 345.5,379.5C 360.035,377.744 374.368,374.91 388.5,371C 398.742,368.217 407.742,363.383 415.5,356.5C 416.66,369.327 416.827,382.327 416,395.5C 415.252,397.751 413.752,399.084 411.5,399.5C 411.44,398.957 411.107,398.624 410.5,398.5C 402.78,400.846 395.113,403.346 387.5,406C 383.554,407.324 379.554,407.991 375.5,408C 381.091,405.803 386.758,403.803 392.5,402C 396.556,399.611 399.056,396.111 400,391.5C 400.667,386.167 400.667,380.833 400,375.5C 398.938,374.903 397.772,374.57 396.5,374.5C 391.956,375.77 387.623,377.603 383.5,380C 374.883,381.828 366.216,383.495 357.5,385C 350.908,391.106 348.742,398.606 351,407.5C 352.71,410.896 355.543,412.396 359.5,412C 340.979,415.42 322.313,417.753 303.5,419C 246.945,422.262 190.945,418.262 135.5,407C 114.29,401.154 93.9563,393.154 74.5,383C 71.9482,380.147 69.1149,377.647 66,375.5C 65.8171,378.365 65.3171,381.031 64.5,383.5C 64.5,373.833 64.5,364.167 64.5,354.5 Z"/></g>
<g><path style="opacity:1" fill="#f6f5f6" d="M 407.5,333.5 C 406.588,334.738 406.421,336.072 407,337.5C 417.251,344.593 421.085,354.426 418.5,367C 418.499,372.012 418.166,376.845 417.5,381.5C 417.831,372.808 417.498,364.141 416.5,355.5C 415.893,355.624 415.56,355.957 415.5,356.5C 407.742,363.383 398.742,368.217 388.5,371C 374.368,374.91 360.035,377.744 345.5,379.5C 344.761,379.631 344.094,379.464 343.5,379C 347.004,377.527 350.338,376.694 353.5,376.5C 372.117,374.518 389.45,368.851 405.5,359.5C 411.986,351.098 410.319,344.765 400.5,340.5C 401.647,338.424 402.981,336.424 404.5,334.5C 405.325,333.614 406.325,333.281 407.5,333.5 Z"/></g>
<g><path style="opacity:1" fill="#cdcccd" d="M 88.5,339.5 C 87.3054,339.866 86.6387,340.699 86.5,342C 87.2887,343.626 88.2887,345.126 89.5,346.5C 141.794,371.854 197.128,383.021 255.5,380C 280.803,378.546 305.803,375.046 330.5,369.5C 330.351,370.552 330.517,371.552 331,372.5C 333.968,376.043 336.468,379.709 338.5,383.5C 338.027,384.906 337.027,385.573 335.5,385.5C 335.244,379.423 332.411,375.09 327,372.5C 321.987,375.203 316.82,377.703 311.5,380C 308.854,380.497 306.187,380.664 303.5,380.5C 303.5,381.5 303.5,382.5 303.5,383.5C 299.629,383.185 295.962,383.518 292.5,384.5C 276.267,386.047 259.934,386.713 243.5,386.5C 223.314,386.612 203.314,385.945 183.5,384.5C 185.199,384.66 186.866,384.494 188.5,384C 186.167,383.667 183.833,383.333 181.5,383C 151.633,381.559 122.299,376.892 93.5,369C 86.587,366.544 80.2536,363.044 74.5,358.5C 70.9721,354.357 70.6388,350.023 73.5,345.5C 73.8333,344.5 74.5,343.833 75.5,343.5C 77.1703,343.249 78.6703,342.582 80,341.5C 81.0674,342.191 82.2341,342.691 83.5,343C 81.5946,343.826 81.2612,344.993 82.5,346.5C 83.9744,345.564 84.9744,344.23 85.5,342.5C 84.2807,339.052 85.2807,338.052 88.5,339.5 Z"/></g>
<g><path style="opacity:1" fill="#b4b2b3" d="M 88.5,339.5 C 87.9738,342.808 89.3072,344.974 92.5,346C 117.672,358.057 144.005,366.724 171.5,372C 227.945,381.545 283.778,379.045 339,364.5C 340.826,365.01 340.993,365.844 339.5,367C 336.278,367.199 333.278,368.032 330.5,369.5C 305.803,375.046 280.803,378.546 255.5,380C 197.128,383.021 141.794,371.854 89.5,346.5C 88.2887,345.126 87.2887,343.626 86.5,342C 86.6387,340.699 87.3054,339.866 88.5,339.5 Z"/></g>
<g><path style="opacity:0.937" fill="#d5d5d5" d="M 64.5,354.5 C 64.5,364.167 64.5,373.833 64.5,383.5C 64.1908,388.267 64.6908,392.934 66,397.5C 70.8911,401.037 76.0577,404.203 81.5,407C 119.921,418.388 159.254,424.388 199.5,425C 244.935,426.635 290.268,425.302 335.5,421C 357.348,417.663 378.848,412.829 400,406.5C 404.45,405.032 408.283,402.699 411.5,399.5C 413.752,399.084 415.252,397.751 416,395.5C 416.827,382.327 416.66,369.327 415.5,356.5C 415.56,355.957 415.893,355.624 416.5,355.5C 417.498,364.141 417.831,372.808 417.5,381.5C 417.642,385.545 417.642,389.379 417.5,393C 423.196,394.93 428.363,397.764 433,401.5C 433.449,406.427 431.282,409.927 426.5,412C 401.217,420.657 375.217,425.99 348.5,428C 262.628,436.243 176.961,434.576 91.5,423C 80.2768,421.222 69.2768,418.556 58.5,415C 53.4676,413.402 48.9676,410.902 45,407.5C 42.9548,404.281 43.4548,401.448 46.5,399C 51.7387,395.753 57.4053,393.586 63.5,392.5C 63.1713,379.656 63.5046,366.989 64.5,354.5 Z"/></g>
<g><path style="opacity:1" fill="#acacac" d="M 411.5,399.5 C 408.283,402.699 404.45,405.032 400,406.5C 378.848,412.829 357.348,417.663 335.5,421C 290.268,425.302 244.935,426.635 199.5,425C 159.254,424.388 119.921,418.388 81.5,407C 76.0577,404.203 70.8911,401.037 66,397.5C 64.6908,392.934 64.1908,388.267 64.5,383.5C 65.3171,381.031 65.8171,378.365 66,375.5C 69.1149,377.647 71.9482,380.147 74.5,383C 93.9563,393.154 114.29,401.154 135.5,407C 190.945,418.262 246.945,422.262 303.5,419C 322.313,417.753 340.979,415.42 359.5,412C 355.543,412.396 352.71,410.896 351,407.5C 348.742,398.606 350.908,391.106 357.5,385C 366.216,383.495 374.883,381.828 383.5,380C 387.623,377.603 391.956,375.77 396.5,374.5C 397.772,374.57 398.938,374.903 400,375.5C 400.667,380.833 400.667,386.167 400,391.5C 399.056,396.111 396.556,399.611 392.5,402C 386.758,403.803 381.091,405.803 375.5,408C 379.554,407.991 383.554,407.324 387.5,406C 395.113,403.346 402.78,400.846 410.5,398.5C 411.107,398.624 411.44,398.957 411.5,399.5 Z"/></g>
<g><path style="opacity:1" fill="#8c8889" d="M 383.5,382.5 C 387.427,383.531 391.261,384.865 395,386.5C 397.101,390.451 396.934,394.284 394.5,398C 392.101,398.711 389.768,398.544 387.5,397.5C 385.726,399.94 383.392,401.606 380.5,402.5C 377.994,402.665 376.161,401.665 375,399.5C 373.874,402.962 371.541,404.962 368,405.5C 364.022,404.063 360.355,402.063 357,399.5C 355.59,389.065 359.423,386.399 368.5,391.5C 371.245,386.547 375.245,385.213 380.5,387.5C 380.31,385.041 381.31,383.374 383.5,382.5 Z"/></g>
<g><path style="opacity:1" fill="#dcd9d9" d="M 335.5,385.5 C 334.013,386.804 332.346,387.97 330.5,389C 321.719,391.862 313.053,395.028 304.5,398.5C 296.996,403.824 289.33,408.991 281.5,414C 272.945,414.957 267.945,411.123 266.5,402.5C 268.521,391.234 275.021,387.567 286,391.5C 287.167,391.167 288.333,390.833 289.5,390.5C 289.968,388.866 290.968,387.7 292.5,387C 303.147,385.842 303.147,385.009 292.5,384.5C 295.962,383.518 299.629,383.185 303.5,383.5C 303.5,382.5 303.5,381.5 303.5,380.5C 306.187,380.664 308.854,380.497 311.5,380C 316.82,377.703 321.987,375.203 327,372.5C 332.411,375.09 335.244,379.423 335.5,385.5 Z"/></g>
</svg>
