<svg width="123" height="123" viewBox="0 0 123 123" fill="none" xmlns="http://www.w3.org/2000/svg">
<path d="M55.3085 1.6192C44.8233 3.30049 40.0376 4.73895 33.3618 8.26774C27.725 11.2193 23.9679 14.0167 19.2025 18.718C6.91249 30.9501 1.04286 45.3563 1.3863 62.5499C1.67994 75.2091 5.08429 85.8604 12.194 96.2598C14.8883 100.18 24.8009 109.629 28.8472 112.135C39.4682 118.692 50.338 121.647 62.7943 121.358C78.9044 120.985 92.4529 115.25 103.606 104.151C116.004 91.8053 121.764 77.4569 121.36 60.0435C120.957 42.6301 114.537 28.5642 101.58 16.8071C93.0358 9.04063 82.9515 4.13068 71.9413 2.28429C67.7146 1.55268 58.0123 1.16931 55.3085 1.6192ZM64.3984 11.4195C65.3945 16.1531 70.2387 22.0143 75.5132 24.934C83.6495 29.4466 85.8973 30.8326 88.2171 32.9359C89.6873 34.2292 90.9296 35.2513 90.9271 35.1407C90.9811 35.0842 92.0022 33.733 93.2937 32.0991C94.638 30.3533 95.4338 28.8414 95.2008 28.349C94.6138 26.9246 87.017 21.791 80.0637 18.1359C76.9237 16.4941 73.0179 12.8789 72.9897 11.6627C72.9653 10.6124 73.2975 10.6047 76.9255 11.7927C81.389 13.1825 87.3291 16.1421 91.1577 18.8188C94.7058 21.3361 100.025 26.1907 101.515 28.3132C102.261 29.4574 102.265 29.6233 100.796 30.7635C95.9019 34.6935 92.7586 40.0762 92.0101 46.0118C91.0142 53.2252 92.7261 57.7763 101.238 71.2958C108.139 82.2531 108.828 85.7217 104.569 88.3647C99.8182 91.2958 91.8218 90.4304 80.8002 85.7081L76.6599 83.9236L80.7207 82.2807C87.5266 79.5785 96.5934 74.0584 96.5614 72.6764C96.5498 72.1789 93.4964 67.1058 92.7575 66.2933C92.6442 66.1853 91.3348 67.0454 89.8644 68.1304C85.891 71.154 76.089 76.0274 73.9299 76.0775C73.6531 76.0839 74.064 74.6916 74.7993 72.96C76.2699 69.4966 76.1942 66.235 74.4911 64.4493C73.6389 63.5288 73.6299 63.1418 75.1289 58.5163C77.241 51.6641 77.8633 47.4461 77.4634 42.1456C77.066 36.9556 75.7724 33.7223 72.93 30.5803C68.3277 25.5985 59.6555 24.2509 53.3054 27.4956C43.6721 32.4758 41.7257 44.0808 47.8551 59.9786C49.3276 63.7609 49.334 64.0373 48.4713 65.0529C46.8528 66.9157 46.9272 70.1219 48.5581 73.5687C49.3729 75.2644 49.8478 76.6361 49.571 76.6425C47.4119 76.6926 37.3946 72.2789 33.2852 69.4428C31.7661 68.4271 30.4182 67.6287 30.31 67.7419C29.6096 68.5878 26.7947 73.7969 26.8062 74.2945C26.8383 75.6765 36.1514 80.7702 43.0751 83.1539L47.2078 84.6067L43.3735 86.4656C32.418 91.753 24.4162 93.0448 19.5344 90.3372C15.2126 87.8932 15.6842 84.3424 21.8586 73.5243C29.8447 59.622 31.3902 54.6083 30.1162 47.4475C29.0933 41.553 25.7039 36.3218 20.6329 32.623C19.1125 31.5521 19.1086 31.3862 19.8014 30.2086C21.1908 28.0193 26.2793 22.9233 29.7068 20.2442C33.4073 17.3929 39.2037 14.1611 43.598 12.5657C47.167 11.2108 47.4992 11.2031 47.5235 12.2534C47.5517 13.4696 43.8177 17.262 40.7572 19.0476C33.9809 23.0212 26.6303 28.5015 26.11 29.9517C25.9001 30.4543 26.7651 31.9277 28.1889 33.6093C29.5548 35.1816 30.6374 36.4839 30.6941 36.5379C30.6966 36.6485 31.8902 35.5699 33.2988 34.2098C35.5186 32.0012 37.6997 30.5125 45.6181 25.6274C50.7515 22.4663 55.3187 16.3868 56.0943 11.6122L56.4343 9.55779L60.1989 9.47046L63.9635 9.38314L64.3984 11.4195ZM18.0597 41.0899C22.8229 45.8467 23.6373 52.2991 20.3111 59.3454C18.0936 64.0429 11.7621 75.2518 11.2638 75.2634C10.6562 75.3328 9.47243 67.2849 9.36087 62.4755C9.24162 57.3344 9.83822 52.0108 11.0179 47.9458C12.3032 43.6571 14.4602 38.7397 15.0692 38.7256C15.4013 38.7179 16.7003 39.794 18.0597 41.0899ZM108.703 39.7063C111.852 46.5471 113.264 52.4879 113.44 60.0613C113.562 65.313 112.742 72.9648 112.023 72.9815C111.746 72.9879 111.519 72.7719 111.514 72.5508C111.508 72.2744 109.666 69.2751 107.37 65.8437C100.194 54.9481 98.7586 50.3907 100.666 44.2623C101.491 41.6435 105.419 36.6298 106.637 36.6016C106.969 36.5939 107.888 38.0106 108.703 39.7063ZM57.6965 73.5226C58.0364 73.8466 58.3788 74.2811 58.3826 74.447C58.398 75.1103 55.5115 74.8454 53.9422 74.0522C52.0368 73.1008 51.119 71.7393 51.0716 69.6939L51.0369 68.2014L54.0275 70.5656C55.6071 71.8011 57.3 73.1446 57.6965 73.5226ZM71.9271 70.9248C71.5227 72.5935 68.6875 74.5398 66.5838 74.5886C65.698 74.6091 65.0298 74.4587 65.0788 74.181C65.0737 73.9599 66.5904 72.4866 68.4355 70.8398C71.9107 67.8278 72.6317 67.8664 71.9271 70.9248ZM52.7766 93.0507C51.1219 95.744 45.8247 101.398 42.7204 103.682L41.1406 104.825L45.2166 106.224C47.4503 107.002 49.6801 107.614 50.2337 107.601C51.5624 107.57 57.2343 101.354 59.9023 96.9784L62.0385 93.5549L64.1638 96.8242C67.2083 101.51 72.7657 107.078 74.4266 107.04C75.7552 107.009 81.7422 104.824 82.5559 104.086C82.771 103.804 82.4272 103.314 81.6986 102.944C79.2898 101.783 73.7349 96.3256 71.4435 93.0602C70.2386 91.2629 69.3723 89.7343 69.4805 89.6211C69.5886 89.508 72.0489 90.5018 74.9056 91.8736C81.3466 94.9322 89.9955 97.6631 94.4359 98.0579C97.7112 98.3691 97.7112 98.3691 96.7957 99.4965C95.1772 101.359 89.5094 105.362 85.4588 107.448C70.902 115.086 54.4044 115.469 39.509 108.513C35.3662 106.618 29.5188 102.882 27.8157 101.097C26.8489 100.013 26.8489 100.013 30.1062 99.5501C34.4682 98.9511 43.0366 95.8209 49.1086 92.5273C51.8446 91.0811 54.1467 90.0321 54.26 90.1401C54.3733 90.2481 53.6831 91.5363 52.7766 93.0507Z" fill="white"/>
</svg>
