<svg width="42" height="42" viewBox="0 0 42 42" fill="none" xmlns="http://www.w3.org/2000/svg">
<g clip-path="url(#clip0_543_655)">
<path d="M16 32.111L14.333 38.778L12.111 41H29.889L27.667 38.778L26 32.111M1 23.222H41M5.444 32.111H36.556C37.1396 32.111 37.7175 31.9961 38.2566 31.7727C38.7958 31.5494 39.2857 31.222 39.6984 30.8094C40.111 30.3967 40.4384 29.9068 40.6617 29.3676C40.8851 28.8285 41 28.2506 41 27.667V5.444C41 4.86041 40.8851 4.28253 40.6617 3.74335C40.4384 3.20418 40.111 2.71428 39.6984 2.30162C39.2857 1.88895 38.7958 1.56161 38.2566 1.33828C37.7175 1.11495 37.1396 1 36.556 1H5.444C4.26538 1 3.13503 1.46821 2.30162 2.30162C1.46821 3.13503 1 4.26538 1 5.444V27.667C1 28.8456 1.46821 29.976 2.30162 30.8094C3.13503 31.6428 4.26538 32.111 5.444 32.111Z" stroke="white" stroke-width="2" stroke-linecap="round" stroke-linejoin="round"/>
</g>
<defs>
<clipPath id="clip0_543_655">
<rect width="42" height="42" fill="white"/>
</clipPath>
</defs>
</svg>
