<svg width="51" height="48" viewBox="0 0 51 48" fill="none" xmlns="http://www.w3.org/2000/svg">
<path fill-rule="evenodd" clip-rule="evenodd" d="M39.8656 42.7682L35.3783 36.3552L24.1404 20.2944C20.434 15.008 17.3336 10.6176 17.2504 10.528C16.9534 10.2256 16.7634 10.1808 15.6348 10.1808C14.6726 10.1808 14.5776 10.192 14.3519 10.2928C14.2212 10.3712 14.0311 10.5056 13.9361 10.6176C13.8279 10.7561 13.7696 10.9214 13.7692 11.0909L13.746 21.3585L13.7344 31.6606C13.7342 31.824 13.7747 31.9853 13.8529 32.1327C13.9377 32.2883 14.0648 32.4198 14.2212 32.5137C14.3912 32.6229 14.5947 32.6817 14.8033 32.6817H15.4448C16.2882 32.6817 16.4426 32.6592 16.6208 32.5695C16.8417 32.4745 17.0189 32.3075 17.1198 32.0991C17.2138 31.9219 17.2148 31.6128 17.2378 24.2669L17.2385 24.0351C17.2466 21.1198 17.26 18.561 17.2752 17.2036C17.2824 16.5586 17.5348 16.4966 17.9273 17.0353C19.648 19.397 21.3547 21.7676 23.0475 24.1473L28.7614 32.1105L33.3232 37.9233C35.6843 40.9334 37.6941 43.4725 37.9329 43.7643C37.9489 43.7839 37.9773 43.7975 37.9761 43.8219M34.5882 9.80792C34.4904 9.70221 34.3712 9.61577 34.238 9.55362C34.0597 9.45282 33.9171 9.45282 33.0856 9.45282C32.2065 9.45282 32.1353 9.45282 31.8977 9.56481C31.7643 9.63487 31.6472 9.72945 31.5533 9.84296C31.4593 9.95647 31.3907 10.0866 31.3512 10.2256C31.3157 10.3488 31.2919 12.8464 31.2919 17.2816V23.6068C31.2919 23.9672 31.4041 24.3205 31.6159 24.6259L33.0618 26.712C33.5782 27.4518 34.8438 27.1214 34.8438 26.2468V19.8129C34.8555 13.2272 34.8438 10.304 34.8081 10.1696C34.7609 10.0366 34.6861 9.91364 34.5882 9.80792Z" fill="#11212D"/>
</svg>
