<svg width="51" height="48" viewBox="0 0 51 48" fill="none" xmlns="http://www.w3.org/2000/svg">
<path fill-rule="evenodd" clip-rule="evenodd" d="M39.8656 42.7682L35.3782 36.3552L24.1404 20.2944C20.4339 15.008 17.3335 10.6176 17.2504 10.528C16.9534 10.2256 16.7633 10.1808 15.6348 10.1808C14.6725 10.1808 14.5775 10.192 14.3518 10.2928C14.2211 10.3712 14.0311 10.5056 13.936 10.6176C13.8278 10.7561 13.7695 10.9214 13.7691 11.0909L13.746 21.3585L13.7344 31.6606C13.7342 31.824 13.7747 31.9853 13.8529 32.1327C13.9377 32.2883 14.0647 32.4198 14.2211 32.5137C14.3911 32.6229 14.5946 32.6817 14.8032 32.6817H15.4447C16.2882 32.6817 16.4426 32.6592 16.6208 32.5695C16.8417 32.4745 17.0188 32.3075 17.1197 32.0991C17.2138 31.9219 17.2147 31.6128 17.2378 24.2669L17.2385 24.0351C17.2465 21.1198 17.2599 18.561 17.2751 17.2036C17.2823 16.5586 17.5347 16.4966 17.9272 17.0353C19.648 19.397 21.3547 21.7676 23.0475 24.1473L28.7614 32.1105L33.3231 37.9233C35.6842 40.9334 37.694 43.4725 37.9329 43.7643C37.9488 43.7839 37.9773 43.7975 37.976 43.8219M34.5881 9.80792C34.4904 9.70221 34.3712 9.61577 34.2379 9.55362C34.0596 9.45282 33.917 9.45282 33.0855 9.45282C32.2064 9.45282 32.1352 9.45282 31.8977 9.56481C31.7642 9.63487 31.6471 9.72945 31.5532 9.84296C31.4593 9.95647 31.3906 10.0866 31.3511 10.2256C31.3156 10.3488 31.2918 12.8464 31.2918 17.2816V23.6068C31.2918 23.9672 31.404 24.3205 31.6159 24.6259L33.0617 26.712C33.5781 27.4518 34.8438 27.1214 34.8438 26.2468V19.8129C34.8554 13.2272 34.8438 10.304 34.8081 10.1696C34.7609 10.0366 34.6861 9.91364 34.5881 9.80792Z" fill="white"/>
</svg>
