<svg width="64" height="65" viewBox="0 0 64 65" fill="none" xmlns="http://www.w3.org/2000/svg">
<path d="M22.75 64.5C28.7 64.5 33.5 59.7 33.5 53.75V43H22.75C16.8 43 12 47.8 12 53.75C12 59.7 16.8 64.5 22.75 64.5Z" fill="#0ACF83"/>
<path d="M12 32.25C12 26.3 16.8 21.5 22.75 21.5H33.5V43H22.75C16.8 43 12 38.2 12 32.25Z" fill="#A259FF"/>
<path d="M12 10.75C12 4.8 16.8 0 22.75 0H33.5V21.5H22.75C16.8 21.5 12 16.7 12 10.75Z" fill="#F24E1E"/>
<path d="M33.5 0H44.25C50.2 0 55 4.8 55 10.75C55 16.7 50.2 21.5 44.25 21.5H33.5V0Z" fill="#FF7262"/>
<path d="M55 32.25C55 38.2 50.2 43 44.25 43C38.3 43 33.5 38.2 33.5 32.25C33.5 26.3 38.3 21.5 44.25 21.5C50.2 21.5 55 26.3 55 32.25Z" fill="#1ABCFE"/>
</svg>
