<svg width="64" height="64" viewBox="0 0 64 64" fill="none" xmlns="http://www.w3.org/2000/svg">
<path d="M1 0.5V63H63.5V0.5H1ZM34.0595 53.7565C33.137 55.631 31.376 56.8625 29.3355 57.457C26.2 58.177 23.201 57.7665 20.97 56.4275C19.477 55.5115 18.311 54.1015 17.5195 52.477L22.2795 49.562C22.321 49.5795 22.446 49.8055 22.613 50.0975C23.22 51.1145 23.7435 51.8345 24.7725 52.34C25.7835 52.685 28.003 52.9055 28.86 51.1265C29.3835 50.2215 29.217 47.3125 29.217 44.094C29.2165 39.0365 29.24 34 29.24 29H35.0945C35.0945 34.5 35.1245 39.709 35.0945 45.076C35.107 48.366 35.3925 51.299 34.0595 53.7565ZM58.3465 52.1025C56.3115 59.0635 44.9655 59.2895 40.4315 54.6905C39.4735 53.608 38.873 53.0425 38.3015 51.793C40.711 50.407 40.711 50.407 43.0555 49.0505C44.329 51.008 45.5065 52.0845 47.625 52.525C50.499 52.876 53.3905 51.8885 52.742 48.836C52.0755 46.343 46.857 45.7365 43.3055 43.0705C39.7 40.649 38.855 34.765 41.818 31.403C42.8055 30.1595 44.4895 29.2315 46.2565 28.7855L48.1005 28.547C51.641 28.4755 53.854 29.4105 55.4785 31.2245C55.9305 31.6825 56.2995 32.1765 56.9895 33.247C55.1035 34.449 55.1095 34.4375 52.408 36.1865C51.831 34.9435 50.8735 34.1635 49.8615 33.8245C48.2905 33.3485 46.3095 33.866 45.8985 35.526C45.756 36.0375 45.7855 36.5135 46.012 37.3585C46.6485 38.81 48.7845 39.441 50.7005 40.3215C56.216 42.5585 58.0785 44.957 58.5365 47.812C58.9775 50.27 58.43 51.8645 58.3465 52.1025Z" fill="#F0DB4F"/>
</svg>
