<svg width="40" height="40" viewBox="0 0 40 40" fill="none" xmlns="http://www.w3.org/2000/svg">
<g clip-path="url(#clip0_543_557)">
<path fill-rule="evenodd" clip-rule="evenodd" d="M18.6544 -0.0554199C19.4699 -0.0554199 20.2853 -0.0554199 21.1009 -0.0554199C21.6247 0.146197 22.1547 0.330869 22.6911 0.498597C22.3591 0.470897 22.0329 0.452429 21.7125 0.443195C21.9516 0.548824 22.1555 0.696561 22.3241 0.886408C22.2425 0.923342 22.1611 0.960278 22.0795 0.997212C22.2228 1.21849 22.3859 1.42162 22.5688 1.60663C22.5555 1.711 22.5148 1.80334 22.4464 1.88364C22.6018 1.98332 22.7241 2.11259 22.8134 2.27145C22.923 2.15995 23.0045 2.15995 23.0581 2.27145C22.8979 2.65608 22.9794 3.04389 23.3027 3.43489C23.2211 3.47182 23.1396 3.50876 23.0581 3.54569C23.3262 3.69624 23.5301 3.89938 23.6697 4.15511C23.5881 4.19204 23.5066 4.22898 23.425 4.26591C23.5658 4.40231 23.7085 4.40231 23.8532 4.26591C23.7915 4.52763 23.8119 4.78616 23.9143 5.04153C24.1182 5.30007 24.322 5.55862 24.5259 5.81716C24.2939 5.94659 24.2735 6.13126 24.4648 6.37117C24.5165 6.20983 24.6184 6.15443 24.7706 6.20497C24.4451 6.63536 24.5674 6.94931 25.1376 7.1468C24.837 7.34983 24.837 7.53451 25.1376 7.70081C25.2092 7.67762 25.2704 7.64069 25.3211 7.59001C25.4047 7.73227 25.3843 7.86153 25.2599 7.97782C25.55 8.15722 25.6315 8.37883 25.5045 8.64264C25.5755 8.92239 25.6978 9.08859 25.8715 9.14126C25.8583 9.24562 25.8176 9.33797 25.7492 9.41826C26.0274 9.67802 26.1701 9.99196 26.1773 10.3601C26.2891 10.2323 26.391 10.2507 26.4831 10.4155C26.1569 10.5632 26.1569 10.711 26.4831 10.8587C26.4424 10.8956 26.4015 10.9326 26.3608 10.9695C26.5093 11.1888 26.7132 11.355 26.9724 11.4681C26.705 11.9169 26.8274 12.2862 27.3394 12.5762C27.1713 12.8495 27.2529 13.0527 27.584 13.1856C27.5325 13.4168 27.5325 13.6568 27.584 13.9058C27.4584 14.0935 27.2952 14.2412 27.0948 14.349C25.7897 13.038 24.1995 12.1516 22.3241 11.6897C22.1597 11.4147 21.9355 11.2669 21.6513 11.2465C21.6752 11.0663 21.6752 10.8817 21.6513 10.6925C21.5133 10.3926 21.3299 10.1156 21.1009 9.86148C21.1568 9.81561 21.1976 9.7602 21.2232 9.69527C20.8664 9.50119 20.6217 9.22418 20.4892 8.86425C20.53 8.84578 20.5708 8.82732 20.6116 8.80885C20.6908 8.99158 20.8132 9.13932 20.9785 9.25206C21.0074 9.16927 21.0483 9.07693 21.1009 8.97505C20.8662 8.74182 20.6216 8.61256 20.3669 8.58724C20.5679 8.24974 20.4456 7.97274 19.9999 7.75621C20.0407 7.71928 20.0815 7.68234 20.1223 7.64541C20.0373 7.03843 19.9352 6.42901 19.8165 5.81716C19.7757 5.85409 19.7349 5.89103 19.6941 5.92796C19.5268 5.76252 19.5064 5.59631 19.633 5.42934C19.4237 5.05482 19.2606 4.70395 19.1437 4.37671C19.1692 4.31178 19.2101 4.25638 19.266 4.21051C18.9788 4.01405 18.7341 3.71859 18.5321 3.32408C18.5321 3.10247 18.5321 2.88087 18.5321 2.65926C18.2139 2.18622 17.9692 1.72454 17.7981 1.27422C17.9338 1.08429 17.8522 1.01042 17.5535 1.05261C17.6105 0.864116 17.6105 0.697911 17.5535 0.553998C17.8445 0.474643 18.0891 0.345373 18.2874 0.166187C18.4097 0.0923178 18.5321 0.018449 18.6544 -0.0554199Z" fill="#1FB2E9"/>
<path fill-rule="evenodd" clip-rule="evenodd" d="M18.2874 0.16626C18.0891 0.345446 17.8445 0.474716 17.5535 0.554071C17.6105 0.697984 17.6105 0.864189 17.5535 1.05269C17.8522 1.0105 17.9338 1.08437 17.7981 1.27429C17.9693 1.72461 18.2139 2.18629 18.5321 2.65933C18.5321 2.88094 18.5321 3.10255 18.5321 3.32415C18.7342 3.71866 18.9788 4.01413 19.266 4.21058C19.2101 4.25645 19.1693 4.31186 19.1437 4.37679C19.2606 4.70402 19.4237 5.05489 19.633 5.42942C19.5064 5.59639 19.5268 5.76259 19.6942 5.92803C19.7349 5.8911 19.7757 5.85416 19.8165 5.81723C19.9353 6.42909 20.0373 7.0385 20.1223 7.64548C20.0816 7.68241 20.0407 7.71936 20 7.75629C20.4456 7.97281 20.5679 8.24982 20.3669 8.58731C20.6216 8.61263 20.8663 8.74189 21.1009 8.97512C21.0483 9.07701 21.0074 9.16934 20.9786 9.25213C20.8132 9.13939 20.6909 8.99166 20.6116 8.80892C20.5709 8.82739 20.53 8.84585 20.4893 8.86432C20.6217 9.22425 20.8664 9.50126 21.2232 9.69534C21.1976 9.76028 21.1568 9.81568 21.1009 9.86155C21.3299 10.1156 21.5134 10.3927 21.6513 10.6926C21.6752 10.8817 21.6752 11.0664 21.6513 11.2466C21.9355 11.267 22.1597 11.4148 22.3241 11.6898C21.7557 11.6016 21.1848 11.5277 20.6116 11.4682C20.0863 11.4227 19.5767 11.3119 19.0825 11.1358C19.0418 11.1727 19.0009 11.2097 18.9602 11.2466C18.9493 11.0678 19.0513 10.9385 19.266 10.8588C18.9956 10.6681 18.7509 10.4465 18.5321 10.194C18.8716 9.99687 18.8309 9.88607 18.4098 9.86155C18.5321 9.75075 18.6544 9.63994 18.7767 9.52914C18.5463 9.50517 18.3424 9.4313 18.1651 9.30753C18.2467 9.23366 18.3282 9.1598 18.4098 9.08593C18.2702 8.78651 18.3925 8.60184 18.7767 8.53191C18.6137 8.45804 18.4505 8.38418 18.2874 8.3103C18.3828 8.19141 18.3624 8.06215 18.2263 7.92249C18.1855 7.95942 18.1447 7.99636 18.1039 8.0333C18.0632 7.92249 18.0224 7.81169 17.9816 7.70089C17.6582 8.01441 17.5562 7.97748 17.6758 7.59008C17.4433 7.43108 17.4025 7.2464 17.5535 7.03607C17.3954 6.796 17.2935 6.53746 17.2477 6.26044C17.0734 6.18152 16.8899 6.16305 16.6972 6.20504C16.8321 6.01885 16.7914 5.85264 16.5749 5.70643C16.7832 5.55238 16.8648 5.38617 16.8195 5.20781C16.3602 4.97242 16.2379 4.64001 16.4526 4.21058C16.3366 4.15709 16.2143 4.13861 16.0856 4.15518C16.0644 3.85828 15.9421 3.59974 15.7186 3.37956C15.7575 3.25243 15.839 3.1601 15.9633 3.10255C15.5046 2.68777 15.0967 2.20762 14.74 1.6621C14.9244 1.56933 14.9855 1.44007 14.9235 1.27429C14.7063 1.3891 14.482 1.3891 14.2507 1.27429C15.5568 0.821055 16.9024 0.451711 18.2874 0.16626Z" fill="#1FBEE8"/>
<path fill-rule="evenodd" clip-rule="evenodd" d="M22.6912 0.498517C28.3429 1.95253 33.9698 3.48532 39.572 5.09685C39.7109 5.22374 39.8333 5.353 39.9389 5.48467C39.9389 6.37109 39.9389 7.25752 39.9389 8.14395C39.8982 8.14395 39.8574 8.14395 39.8166 8.14395C39.8369 7.29365 39.8166 6.44416 39.7555 5.59547C35.7112 8.39223 31.6541 11.1623 27.5842 13.9057C27.5327 13.6567 27.5327 13.4167 27.5842 13.1855C27.2531 13.0526 27.1715 12.8494 27.3396 12.5761C26.8275 12.2861 26.7052 11.9168 26.9726 11.468C26.7134 11.3549 26.5095 11.1887 26.361 10.9694C26.4017 10.9325 26.4426 10.8956 26.4833 10.8586C26.1571 10.7109 26.1571 10.5631 26.4833 10.4154C26.3912 10.2506 26.2893 10.2322 26.1775 10.36C26.1703 9.99188 26.0275 9.67794 25.7493 9.41818C25.8177 9.33788 25.8585 9.24554 25.8717 9.14118C25.698 9.08851 25.5756 8.92231 25.5047 8.64256C25.6317 8.37875 25.5502 8.15714 25.26 7.97774C25.3845 7.86145 25.4049 7.73219 25.3212 7.58993C25.2706 7.64061 25.2094 7.67754 25.1377 7.70073C24.8372 7.53443 24.8372 7.34975 25.1377 7.14672C24.5676 6.94923 24.4452 6.63528 24.7708 6.20489C24.6186 6.15435 24.5167 6.20975 24.4649 6.37109C24.2736 6.13118 24.2941 5.94651 24.5261 5.81708C24.3222 5.55854 24.1184 5.29999 23.9145 5.04145C23.8121 4.78608 23.7917 4.52755 23.8533 4.26583C23.7086 4.40223 23.566 4.40223 23.4252 4.26583C23.5068 4.2289 23.5882 4.19196 23.6698 4.15503C23.5303 3.8993 23.3263 3.69616 23.0582 3.54561C23.1398 3.50868 23.2213 3.47174 23.3029 3.4348C22.9796 3.04381 22.8981 2.656 23.0582 2.27137C23.0046 2.15987 22.9232 2.15987 22.8136 2.27137C22.7243 2.11251 22.6019 1.98324 22.4466 1.88356C22.515 1.80326 22.5557 1.71092 22.5689 1.60655C22.386 1.42154 22.223 1.21841 22.0796 0.997132C22.1612 0.960198 22.2427 0.923263 22.3243 0.886329C22.1557 0.696481 21.9518 0.548744 21.7126 0.443115C22.033 0.45235 22.3593 0.470817 22.6912 0.498517Z" fill="#25ABF2"/>
<path fill-rule="evenodd" clip-rule="evenodd" d="M14.2508 1.27417C14.4822 1.38897 14.7064 1.38897 14.9236 1.27417C14.9856 1.43994 14.9245 1.56921 14.7401 1.66198C15.0968 2.2075 15.5047 2.68764 15.9634 3.10242C15.8391 3.15998 15.7576 3.25231 15.7187 3.37943C15.9422 3.59962 16.0645 3.85816 16.0857 4.15506C16.2144 4.13849 16.3367 4.15696 16.4527 4.21046C16.238 4.63989 16.3603 4.9723 16.8197 5.20769C16.8649 5.38605 16.7833 5.55225 16.575 5.7063C16.7915 5.85252 16.8323 6.01872 16.6973 6.20492C16.89 6.16292 17.0735 6.18139 17.2478 6.26032C17.2937 6.53734 17.3956 6.79588 17.5536 7.03594C17.4027 7.24628 17.4434 7.43096 17.6759 7.58996C17.5563 7.97736 17.6583 8.01429 17.9817 7.70076C18.0225 7.81157 18.0633 7.92237 18.1041 8.03317C18.1448 7.99624 18.1856 7.9593 18.2264 7.92237C18.3625 8.06203 18.383 8.19129 18.2875 8.31018C18.4506 8.38405 18.6138 8.45792 18.7768 8.53179C18.3926 8.60172 18.2703 8.78639 18.4099 9.0858C18.3283 9.15968 18.2468 9.23354 18.1652 9.30741C18.3425 9.43118 18.5464 9.50505 18.7768 9.52902C18.6545 9.63982 18.5322 9.75062 18.4099 9.86143C18.831 9.88595 18.8718 9.99675 18.5322 10.1938C18.751 10.4464 18.9957 10.668 19.2661 10.8587C19.0515 10.9384 18.9494 11.0677 18.9603 11.2465C19.0011 11.2096 19.0419 11.1726 19.0827 11.1357C19.5768 11.3117 20.0864 11.4225 20.6117 11.4681C18.8976 11.3712 17.3074 11.7036 15.8411 12.4653C15.8003 12.4653 15.7595 12.4653 15.7187 12.4653C15.2907 12.492 15.25 12.3997 15.5964 12.1883C15.3065 11.8439 15.0619 11.4746 14.8625 11.0803C14.8625 10.9325 14.8625 10.7848 14.8625 10.6371C14.7809 10.4893 14.6586 10.3785 14.4955 10.3046C14.5362 10.2677 14.5771 10.2308 14.6178 10.1938C14.4595 9.96223 14.3372 9.74062 14.2508 9.52902C14.2916 9.49209 14.3324 9.45514 14.3732 9.41821C14.2101 9.34434 14.0469 9.27048 13.8839 9.19661C13.9019 8.97786 13.9427 8.75625 14.0062 8.53179C13.683 8.46945 13.6014 8.30325 13.7616 8.03317C13.6241 7.743 13.4203 7.50293 13.1499 7.31295C13.462 7.145 13.4212 7.05266 13.0276 7.03594C12.956 6.73134 12.956 6.43587 13.0276 6.14952C12.923 6.06165 12.821 6.09858 12.7218 6.26032C12.6381 6.11806 12.6586 5.9888 12.783 5.87251C12.5406 5.80543 12.4998 5.69462 12.6606 5.5401C12.28 5.44586 12.2391 5.31659 12.5383 5.15229C12.3987 5.04974 12.3987 4.95741 12.5383 4.87528C12.416 4.83835 12.2937 4.80141 12.1713 4.76447C12.2747 4.59183 12.1932 4.48103 11.9267 4.43206C11.9826 4.38619 12.0234 4.33079 12.049 4.26586C11.897 3.73982 11.6524 3.25968 11.3151 2.82542C11.458 2.66967 11.4172 2.5404 11.1927 2.4376C10.7005 2.3825 10.2112 2.40096 9.72485 2.49301C11.2009 2.02307 12.7096 1.61678 14.2508 1.27417Z" fill="#1CC5DF"/>
<path fill-rule="evenodd" clip-rule="evenodd" d="M15.7186 12.4654C14.3378 13.236 13.1961 14.2333 12.2935 15.4571C12.3032 15.2171 12.3847 14.9955 12.5381 14.7923C12.4599 14.4748 12.2967 14.1978 12.0488 13.9612C12.1304 13.9243 12.2119 13.8873 12.2935 13.8504C12.2009 13.6829 12.0786 13.5351 11.9265 13.4072C11.9028 13.2488 11.9028 13.0826 11.9265 12.9086C11.8256 12.8104 11.7033 12.7735 11.5595 12.7978C11.7144 12.4953 11.7144 12.2368 11.5595 12.0222C11.4524 11.939 11.3301 11.8836 11.1926 11.856C11.1277 11.7168 11.1277 11.5506 11.1926 11.3574C11.0854 11.2741 10.9631 11.2187 10.8256 11.1912C11.1314 11.0989 11.1518 10.9695 10.8868 10.8033C10.6829 10.8964 10.6625 10.841 10.8256 10.6371C10.744 10.4894 10.6217 10.3786 10.4586 10.3047C10.5402 10.2678 10.6217 10.2309 10.7033 10.1939C10.5221 9.90832 10.359 9.61285 10.214 9.3075C10.2317 9.22196 10.2725 9.14809 10.3363 9.08589C10.1568 8.96429 10.0549 8.79808 10.0305 8.58728C9.98973 8.62421 9.94894 8.66115 9.90817 8.69808C9.91461 8.34837 9.77189 8.07137 9.48004 7.86706C9.64313 7.60852 9.64313 7.34997 9.48004 7.09143C9.06538 6.97994 8.94306 6.75834 9.11306 6.42661C9.01179 6.32526 8.88947 6.25139 8.74609 6.20501C8.66395 5.92769 8.66395 5.63221 8.74609 5.31858C8.63013 5.26508 8.5078 5.24661 8.37912 5.26318C8.40151 4.99323 8.31995 4.75315 8.13447 4.54296C8.17524 4.50603 8.21603 4.46908 8.2568 4.43215C8.13447 4.32135 8.01215 4.21055 7.88982 4.09974C7.94577 4.05387 7.98654 3.99847 8.01215 3.93354C7.78459 3.77413 7.58071 3.58946 7.40053 3.37952C6.83463 3.47755 6.26379 3.55141 5.68799 3.60113C6.99326 3.14803 8.33883 2.77869 9.72469 2.4931C10.2111 2.40105 10.7004 2.38259 11.1926 2.43769C11.417 2.54049 11.4578 2.66976 11.3149 2.8255C11.6522 3.25977 11.8969 3.73991 12.0488 4.26595C12.0232 4.33088 11.9825 4.38628 11.9265 4.43215C12.193 4.48112 12.2745 4.59192 12.1712 4.76456C12.2935 4.80149 12.4158 4.83844 12.5381 4.87537C12.3986 4.95749 12.3986 5.04983 12.5381 5.15237C12.2389 5.31667 12.2798 5.44595 12.6605 5.54019C12.4996 5.69471 12.5405 5.80552 12.7828 5.8726C12.6584 5.98888 12.638 6.11815 12.7216 6.26041C12.8208 6.09867 12.9229 6.06174 13.0274 6.1496C12.9559 6.43595 12.9559 6.73143 13.0274 7.03603C13.4211 7.05275 13.4618 7.14508 13.1498 7.31304C13.4201 7.50302 13.6239 7.74309 13.7614 8.03326C13.6013 8.30333 13.6829 8.46954 14.006 8.53188C13.9425 8.75634 13.9017 8.97795 13.8837 9.1967C14.0468 9.27057 14.2099 9.34443 14.373 9.4183C14.3323 9.45523 14.2914 9.49218 14.2507 9.52911C14.337 9.74071 14.4594 9.96231 14.6177 10.1939C14.5769 10.2309 14.5361 10.2678 14.4953 10.3047C14.6584 10.3786 14.7807 10.4894 14.8623 10.6371C14.8623 10.7849 14.8623 10.9326 14.8623 11.0804C15.0617 11.4747 15.3063 11.844 15.5962 12.1884C15.2498 12.3998 15.2906 12.4921 15.7186 12.4654Z" fill="#1ACCD3"/>
<path fill-rule="evenodd" clip-rule="evenodd" d="M12.2936 15.457C11.8278 16.2448 11.4609 17.0574 11.1927 17.8946C11.2411 17.6127 11.1595 17.3726 10.948 17.1744C11.0641 17.106 11.1661 17.1244 11.2538 17.2298C11.2694 16.8958 11.2694 16.5634 11.2538 16.2326C11.6239 16.3756 11.6647 16.3017 11.3762 16.011C11.3354 16.0479 11.2946 16.0849 11.2538 16.1218C10.7454 15.8298 10.8066 15.5898 11.4373 15.4016C11.1903 15.3517 10.9661 15.2594 10.7645 15.1245C10.8431 15.8635 10.7616 15.8635 10.5199 15.1245C10.4095 14.9915 10.2668 14.8991 10.0918 14.8475C10.361 14.7561 10.5852 14.8115 10.7645 15.0137C10.988 14.8209 10.9676 14.6362 10.7034 14.4597C10.5167 14.6988 10.3332 14.6619 10.1529 14.3489C10.0939 14.2439 10.0735 14.1331 10.0918 14.0165C9.96943 14.0165 9.84711 14.0165 9.72478 14.0165C9.69989 13.8071 9.78144 13.6409 9.96943 13.5179C9.88788 13.481 9.80634 13.444 9.72478 13.4071C9.72478 13.2594 9.72478 13.1116 9.72478 12.9639C9.53023 12.848 9.34674 12.7187 9.17432 12.5761C8.74001 11.2863 8.23034 9.95674 7.64527 8.58715C7.76275 8.44174 7.74236 8.29401 7.58411 8.14394C7.54334 8.18087 7.50256 8.21781 7.46179 8.25474C7.07491 6.8845 6.56522 5.51793 5.93273 4.15502C6.05618 3.96836 5.99502 3.82062 5.74925 3.7118C5.32762 3.82143 4.89949 3.89531 4.46484 3.93341C4.83238 3.73656 5.24012 3.62575 5.68809 3.601C6.26389 3.55128 6.83473 3.47742 7.40062 3.37939C7.58081 3.58933 7.78468 3.774 8.01224 3.93341C7.98664 3.99834 7.94587 4.05374 7.88992 4.09962C8.01224 4.21042 8.13457 4.32122 8.25689 4.43203C8.21612 4.46896 8.17534 4.5059 8.13457 4.54283C8.32005 4.75302 8.4016 4.9931 8.37922 5.26305C8.5079 5.24649 8.63023 5.26496 8.74619 5.31845C8.66405 5.63208 8.66405 5.92756 8.74619 6.20488C8.88956 6.25126 9.01189 6.32513 9.11316 6.42649C8.94316 6.75821 9.06548 6.97982 9.48013 7.09131C9.64323 7.34984 9.64323 7.60839 9.48013 7.86693C9.77199 8.07124 9.9147 8.34825 9.90827 8.69795C9.94904 8.66102 9.98982 8.62408 10.0306 8.58715C10.055 8.79795 10.1569 8.96416 10.3364 9.08577C10.2726 9.14796 10.2318 9.22183 10.2141 9.30737C10.3591 9.61272 10.5222 9.90819 10.7034 10.1938C10.6218 10.2307 10.5403 10.2677 10.4587 10.3046C10.6218 10.3785 10.7441 10.4893 10.8257 10.637C10.6626 10.8409 10.683 10.8963 10.8869 10.8032C11.1519 10.9694 11.1315 11.0987 10.8257 11.191C10.9632 11.2186 11.0855 11.274 11.1927 11.3572C11.1278 11.5505 11.1278 11.7167 11.1927 11.8558C11.3302 11.8834 11.4525 11.9388 11.5596 12.0221C11.7145 12.2367 11.7145 12.4952 11.5596 12.7977C11.7034 12.7734 11.8257 12.8103 11.9266 12.9085C11.9029 13.0824 11.9029 13.2486 11.9266 13.4071C12.0787 13.535 12.201 13.6828 12.2936 13.8503C12.212 13.8872 12.1305 13.9242 12.0489 13.9611C12.2968 14.1977 12.4599 14.4747 12.5382 14.7921C12.3848 14.9954 12.3033 15.217 12.2936 15.457Z" fill="#16D1CA"/>
<path fill-rule="evenodd" clip-rule="evenodd" d="M3.24168 4.26587C3.44556 4.26587 3.64942 4.26587 3.8533 4.26587C4.17364 5.64939 4.66294 6.92363 5.32119 8.08858C5.26524 8.13446 5.22447 8.18986 5.19886 8.25479C5.38898 8.6179 5.59285 8.96878 5.81049 9.30742C5.75453 9.35329 5.71376 9.40869 5.68816 9.47363C5.96485 9.56724 6.0464 9.71499 5.93281 9.91684C6.09027 10.3434 6.25336 10.805 6.42211 11.3019C6.54552 11.4313 6.66784 11.5606 6.78908 11.6897C6.7482 11.893 6.7482 12.0777 6.78908 12.2437C6.915 12.2211 7.03732 12.2765 7.15605 12.4099C7.0572 12.444 6.97566 12.4994 6.9114 12.5761C7.0028 12.6023 7.10474 12.6393 7.21721 12.6869C7.26129 12.8998 7.36322 13.0845 7.52302 13.2409C7.46471 13.3493 7.38317 13.4416 7.27838 13.5179C7.51002 13.6375 7.55079 13.7853 7.4007 13.9612C7.59723 14.0774 7.67878 14.2436 7.64535 14.4598C7.87272 14.4555 8.03582 14.5478 8.13464 14.7368C8.11664 14.9555 8.07587 15.1771 8.01232 15.4016C8.13464 15.4385 8.25697 15.4755 8.37929 15.5124C8.33852 15.5493 8.29774 15.5863 8.25697 15.6232C8.36412 15.7989 8.48645 15.9651 8.62394 16.1218C8.46384 16.3919 8.54538 16.5581 8.86859 16.6204C8.74417 16.7367 8.72378 16.866 8.80743 17.0083C8.8482 16.9714 8.88898 16.9343 8.92975 16.8974C9.19083 17.1277 9.17045 17.3309 8.86859 17.5069C9.03168 17.5808 9.19479 17.6546 9.35789 17.7285C9.26353 17.9499 9.34507 18.1346 9.60253 18.2825C9.46381 18.3951 9.50458 18.469 9.72486 18.5041C9.55049 18.694 9.59126 18.8417 9.84718 18.9473C9.7877 19.1719 9.7877 19.4119 9.84718 19.6675C10.1459 19.6253 10.2274 19.6992 10.0918 19.8891C10.1501 19.9975 10.2317 20.0898 10.3365 20.1661C10.0691 20.2331 10.0487 20.3623 10.2753 20.554C10.3141 20.3544 10.3957 20.3175 10.52 20.4432C10.5955 20.5483 10.5751 20.6406 10.4588 20.7202C10.6791 20.7553 10.7199 20.8292 10.5811 20.9418C10.7333 20.9923 10.8352 20.9369 10.8869 20.7756C10.9633 20.9932 10.9021 21.1779 10.7035 21.3296C10.8081 21.4174 10.91 21.3806 11.0093 21.2188C11.055 21.4394 11.1569 21.6241 11.3151 21.7728C11.624 22.6644 12.0317 23.514 12.5383 24.3213C11.8231 24.7746 11.13 25.2547 10.4588 25.7617C10.2188 25.0406 9.91303 24.3019 9.54137 23.5456C9.36896 23.403 9.18547 23.2737 8.99091 23.1578C9.03168 23.1209 9.07247 23.0839 9.11324 23.047C8.32377 21.283 7.61022 19.4918 6.97257 17.6731C6.91566 17.5145 6.81371 17.3853 6.66675 17.2853C6.70753 17.2484 6.74831 17.2114 6.78908 17.1745C6.33336 16.3055 5.92562 15.3822 5.56584 14.4044C5.62968 14.3422 5.67045 14.2683 5.68816 14.1828C5.4294 13.8905 5.2663 13.595 5.19886 13.2963C5.30225 13.1237 5.2207 13.0129 4.95422 12.9639C5.06458 12.6146 4.90148 12.393 4.46492 12.2991C4.56377 12.265 4.64531 12.2096 4.70957 12.1329C4.57006 12.0304 4.57006 11.938 4.70957 11.8559C4.44872 11.7542 4.36718 11.6065 4.46492 11.4127C4.37953 11.1408 4.2572 10.8823 4.09795 10.6371C4.13872 10.6001 4.1795 10.5632 4.22027 10.5263C3.97336 10.3205 3.7695 10.0804 3.60865 9.80604C3.6902 9.7691 3.77175 9.73216 3.8533 9.69523C3.62886 9.59244 3.58808 9.46317 3.73097 9.30742C3.42086 9.20457 3.29853 9.00144 3.364 8.698C3.49269 8.71457 3.61501 8.6961 3.73097 8.6426C3.60005 8.45098 3.39617 8.24783 3.11935 8.03318C3.17507 7.70245 3.17507 7.38851 3.11935 7.09135C2.78905 6.95949 2.52401 6.75635 2.32425 6.48194C2.24954 5.9832 2.06606 5.48458 1.77379 4.98609C1.87506 4.88474 1.99738 4.81087 2.14076 4.76448C1.56871 4.81941 0.997865 4.91175 0.428223 5.04149C1.32646 4.69907 2.26427 4.44053 3.24168 4.26587Z" fill="#24DDC2"/>
<path fill-rule="evenodd" clip-rule="evenodd" d="M10.4586 25.7619C9.78332 26.2335 9.09015 26.6767 8.37909 27.0915C8.2504 27.108 8.12808 27.0896 8.01211 27.0361C8.05289 26.9992 8.09367 26.9622 8.13444 26.9253C7.91808 26.6739 7.83654 26.4154 7.88979 26.1497C7.66951 26.1146 7.62874 26.0407 7.76747 25.9281C7.41134 25.1341 7.08515 24.2846 6.78887 23.3796C6.58771 23.2653 6.54693 23.136 6.66655 22.9918C6.56712 22.8462 6.4448 22.7169 6.29958 22.604C6.31374 22.4635 6.35451 22.3157 6.4219 22.1608C6.12356 21.6251 5.87892 21.108 5.68796 20.6095C5.76951 20.5726 5.85105 20.5356 5.9326 20.4987C5.63851 20.4424 5.55696 20.3131 5.68796 20.1109C5.46838 19.7315 5.26451 19.3437 5.07633 18.9475C5.21506 18.8349 5.17429 18.761 4.95401 18.7259C4.93903 18.5276 4.93903 18.3245 4.95401 18.1164C4.72463 17.8128 4.64309 17.4989 4.70936 17.1746C4.58704 17.1377 4.46471 17.1007 4.34239 17.0638C4.37237 16.8323 4.37237 16.6107 4.34239 16.399C4.20295 16.1804 4.03985 15.9772 3.85309 15.7896C3.99599 15.6338 3.95521 15.5046 3.73077 15.4018C3.78672 15.3559 3.82749 15.3005 3.85309 15.2356C3.61596 15.0558 3.57517 14.8526 3.73077 14.6261C3.47484 14.5205 3.43407 14.3728 3.60845 14.1829C3.34238 13.9079 3.1385 13.594 2.99682 13.2411C3.02243 13.1762 3.0632 13.1208 3.11915 13.0749C2.78963 12.4644 2.5042 11.8366 2.26288 11.1912C2.31883 11.1454 2.3596 11.09 2.3852 11.025C2.06793 10.3508 1.7825 9.66754 1.52893 8.97517C1.49895 8.76339 1.49895 8.54178 1.52893 8.31035C1.23712 8.27894 1.15557 8.16814 1.28429 7.97794C1.07861 7.76238 0.997066 7.54077 1.03964 7.31312C0.703314 7.16396 0.66254 7.01622 0.917314 6.86991C0.648118 6.68326 0.566568 6.46166 0.672666 6.20509C0.498394 5.9222 0.314908 5.64519 0.122207 5.37407C0.0406575 6.51903 0.0406575 7.66401 0.122207 8.80897C0.220229 9.28895 0.36294 9.75063 0.550341 10.194C0.398376 10.8511 0.296438 10.8326 0.244531 10.1386C0.183537 10.5432 0.163149 10.9495 0.183369 11.3574C0.10182 10.9881 0.0202702 10.6188 -0.0612793 10.2494C-0.0612793 8.58736 -0.0612793 6.92531 -0.0612793 5.26326C0.0738718 5.14132 0.23697 5.06746 0.428017 5.04166C0.99766 4.91192 1.56851 4.81957 2.14056 4.76465C1.99718 4.81103 1.87486 4.8849 1.77358 4.98626C2.06585 5.48475 2.24934 5.98336 2.32404 6.4821C2.52381 6.75652 2.78885 6.95965 3.11915 7.09152C3.17487 7.38867 3.17487 7.70261 3.11915 8.03335C3.39597 8.24799 3.59985 8.45114 3.73077 8.64277C3.61481 8.69626 3.49248 8.71473 3.3638 8.69817C3.29833 9.0016 3.42065 9.20474 3.73077 9.30758C3.58787 9.46333 3.62865 9.5926 3.85309 9.6954C3.77154 9.73233 3.69 9.76927 3.60845 9.8062C3.76929 10.0805 3.97315 10.3206 4.22007 10.5264C4.1793 10.5634 4.13851 10.6003 4.09774 10.6372C4.257 10.8824 4.37932 11.1409 4.46471 11.4128C4.36698 11.6066 4.44852 11.7543 4.70936 11.8561C4.56985 11.9382 4.56985 12.0306 4.70936 12.1331C4.64511 12.2097 4.56356 12.2651 4.46471 12.2993C4.90128 12.3931 5.06437 12.6147 4.95401 12.9641C5.22049 13.0131 5.30205 13.1239 5.19866 13.2965C5.2661 13.5951 5.42919 13.8906 5.68796 14.1829C5.67024 14.2685 5.62947 14.3424 5.56563 14.4045C5.92541 15.3824 6.33315 16.3057 6.78887 17.1746C6.7481 17.2115 6.70732 17.2485 6.66655 17.2854C6.81351 17.3855 6.91545 17.5147 6.97236 17.6732C7.61001 19.492 8.32356 21.2832 9.11303 23.0472C9.07226 23.0841 9.03148 23.1211 8.99071 23.158C9.18526 23.2739 9.36875 23.4032 9.54117 23.5458C9.91282 24.302 10.2186 25.0408 10.4586 25.7619Z" fill="#2FE2BF"/>
<path fill-rule="evenodd" clip-rule="evenodd" d="M11.1928 17.8947C11.0836 18.7026 11.0428 19.5151 11.0704 20.3324C11.1652 20.8104 11.2467 21.2905 11.3151 21.7729C11.1569 21.6242 11.055 21.4394 11.0093 21.2188C10.91 21.3806 10.8081 21.4175 10.7035 21.3296C10.9021 21.178 10.9633 20.9932 10.887 20.7756C10.8353 20.937 10.7333 20.9924 10.5811 20.9418C10.7199 20.8293 10.6791 20.7553 10.4588 20.7202C10.5751 20.6407 10.5955 20.5484 10.52 20.4432C10.3957 20.3176 10.3142 20.3545 10.2753 20.554C10.0487 20.3623 10.0691 20.2331 10.3365 20.1662C10.2317 20.0899 10.1502 19.9976 10.0919 19.8892C10.2274 19.6993 10.1459 19.6254 9.8472 19.6676C9.78772 19.412 9.78772 19.172 9.8472 18.9474C9.59128 18.8418 9.55051 18.6941 9.72488 18.5042C9.5046 18.469 9.46383 18.3951 9.60256 18.2826C9.34509 18.1346 9.26355 17.9499 9.35791 17.7285C9.19481 17.6546 9.03171 17.5808 8.86861 17.5069C9.17047 17.331 9.19085 17.1278 8.92977 16.8975C8.889 16.9344 8.84822 16.9714 8.80745 17.0083C8.7238 16.866 8.74419 16.7367 8.86861 16.6205C8.54541 16.5581 8.46386 16.3919 8.62396 16.1219C8.48647 15.9652 8.36415 15.799 8.25699 15.6233C8.29776 15.5864 8.33854 15.5494 8.37931 15.5125C8.25699 15.4756 8.13467 15.4386 8.01234 15.4017C8.07589 15.1772 8.11666 14.9556 8.13467 14.7368C8.03584 14.5478 7.87275 14.4555 7.64537 14.4598C7.6788 14.2437 7.59725 14.0775 7.40072 13.9612C7.55081 13.7854 7.51004 13.6376 7.2784 13.518C7.38319 13.4417 7.46473 13.3494 7.52305 13.241C7.36324 13.0845 7.26131 12.8998 7.21723 12.687C7.10476 12.6393 7.00282 12.6023 6.91142 12.5762C6.97568 12.4995 7.05722 12.4441 7.15607 12.41C7.03734 12.2766 6.91502 12.2212 6.7891 12.2438C6.74822 12.0778 6.74822 11.8931 6.7891 11.6898C6.66786 11.5607 6.54554 11.4314 6.42213 11.3019C6.25338 10.8051 6.09029 10.3434 5.93283 9.9169C6.04642 9.71505 5.96487 9.5673 5.68818 9.47369C5.71378 9.40876 5.75456 9.35335 5.81051 9.30748C5.59287 8.96884 5.389 8.61796 5.19889 8.25485C5.22449 8.18992 5.26526 8.13452 5.32121 8.08865C4.66296 6.92369 4.17366 5.64945 3.85332 4.26593C3.64944 4.26593 3.44558 4.26593 3.2417 4.26593C3.60923 4.06908 4.01698 3.95827 4.46494 3.93352C4.89958 3.89542 5.32772 3.82154 5.74934 3.71191C5.99512 3.82073 6.05628 3.96847 5.93283 4.15513C6.56532 5.51804 7.07501 6.88461 7.46188 8.25485C7.50265 8.21792 7.54344 8.18098 7.58421 8.14405C7.74246 8.29412 7.76285 8.44185 7.64537 8.58726C8.23043 9.95684 8.74011 11.2864 9.17442 12.5762C9.34684 12.7188 9.53032 12.8481 9.72488 12.964C9.72488 13.1117 9.72488 13.2595 9.72488 13.4072C9.80643 13.4441 9.88797 13.4811 9.96953 13.518C9.78154 13.641 9.69999 13.8072 9.72488 14.0166C9.8472 14.0166 9.96953 14.0166 10.0919 14.0166C10.0736 14.1332 10.094 14.244 10.153 14.349C10.3333 14.6621 10.5168 14.6989 10.7035 14.4598C10.9677 14.6363 10.9881 14.8211 10.7646 15.0139C10.5853 14.8116 10.3611 14.7562 10.0919 14.8476C10.2669 14.8992 10.4096 14.9916 10.52 15.1247C10.7617 15.8636 10.8432 15.8636 10.7646 15.1247C10.9662 15.2595 11.1904 15.3518 11.4374 15.4017C10.8067 15.5899 10.7455 15.8299 11.2539 16.1219C11.2947 16.085 11.3355 16.048 11.3763 16.0111C11.6648 16.3018 11.624 16.3757 11.2539 16.2327C11.2695 16.5635 11.2695 16.896 11.2539 17.2299C11.1662 17.1245 11.0642 17.1062 10.9481 17.1745C11.1596 17.3727 11.2412 17.6129 11.1928 17.8947Z" fill="#1CD6C6"/>
<path fill-rule="evenodd" clip-rule="evenodd" d="M20.6117 11.468C21.1849 11.5275 21.7558 11.6015 22.3242 11.6897C24.1996 12.1515 25.7898 13.0379 27.0949 14.3489C27.4935 14.8139 27.8605 15.2941 28.1958 15.7894C28.3515 16.0346 28.4738 16.2931 28.5628 16.565C26.4061 17.3707 24.2247 18.1463 22.0184 18.8919C21.9716 18.8303 21.9104 18.7934 21.8349 18.7811C21.9598 18.1572 21.9801 17.5294 21.8961 16.8974C21.8099 16.5677 21.6672 16.2723 21.468 16.011C20.476 14.5275 19.0082 13.8627 17.0643 14.0165C16.7285 13.5885 16.4839 13.1084 16.3304 12.5761C16.1792 12.4934 16.016 12.4565 15.8411 12.4653C17.3074 11.7036 18.8976 11.3712 20.6117 11.468Z" fill="#E9E8D0"/>
<path fill-rule="evenodd" clip-rule="evenodd" d="M39.8164 8.14394C39.7718 10.0206 39.5679 11.8674 39.2048 13.6841C39.2374 13.233 39.1966 12.7898 39.0825 12.3545C39.1697 12.1023 39.2309 11.8438 39.266 11.5788C39.3067 11.6157 39.3476 11.6527 39.3883 11.6896C39.4895 11.2419 39.469 10.7987 39.3271 10.36C39.1043 10.2571 38.9412 10.331 38.8378 10.5816C38.6557 10.5779 38.4926 10.5225 38.3485 10.4154C38.5019 10.2285 38.7057 10.0068 38.9602 9.75058C38.6441 9.74152 38.3587 9.83385 38.1039 10.0276C37.9445 9.89266 37.8222 9.92959 37.7369 10.1384C37.6652 10.1152 37.6041 10.0783 37.5534 10.0276C37.3904 10.1753 37.2272 10.3231 37.0641 10.4708C36.4923 10.5388 36.003 10.7973 35.5963 11.2464C35.3712 11.0987 35.31 11.1172 35.4128 11.3018C34.7468 11.3363 34.1964 11.5763 33.7614 12.0221C33.6284 11.7526 33.5673 11.7896 33.5779 12.1329C33.1324 12.1007 32.7859 12.2484 32.5382 12.5761C32.4974 12.5022 32.4566 12.4284 32.4158 12.3545C32.1304 12.4653 31.9265 12.65 31.8042 12.9085C31.7635 12.8716 31.7226 12.8346 31.6819 12.7977C31.0376 13.1885 30.3648 13.5394 29.6635 13.8503C29.4129 14.138 29.2091 14.4519 29.0519 14.7921C28.8063 14.5415 28.7656 14.5969 28.9296 14.9583C28.6377 14.9898 28.5563 15.1006 28.6849 15.2907C28.3703 15.3386 28.2071 15.5048 28.1956 15.7894C27.8604 15.2941 27.4934 14.8139 27.0947 14.3489C27.2952 14.2411 27.4584 14.0934 27.584 13.9057C31.6539 11.1623 35.711 8.39222 39.7553 5.59546C39.8164 6.44415 39.8367 7.29364 39.8164 8.14394Z" fill="#9850DE"/>
<path fill-rule="evenodd" clip-rule="evenodd" d="M39.205 13.6841C39.1604 14.4114 39.0381 15.1132 38.838 15.7894C38.8594 15.1375 38.9409 14.4911 39.0827 13.8503C39.1097 13.3112 38.9466 13.2004 38.5934 13.5179C38.2263 13.5075 37.9816 13.6552 37.8594 13.9611C37.7433 14.0295 37.6414 14.0111 37.5536 13.9057C37.309 14.1273 37.0643 14.3489 36.8197 14.5706C36.7318 14.4652 36.6299 14.4468 36.5138 14.5152C36.4269 14.6542 36.325 14.7834 36.208 14.903C35.9941 14.8144 35.831 14.8883 35.7187 15.1246C35.6179 14.9796 35.5568 14.8134 35.5353 14.626C35.833 14.3242 36.1592 14.0472 36.5138 13.7949C36.4126 13.6935 36.2902 13.6197 36.1469 13.5733C35.6165 13.9259 35.0456 14.2029 34.4343 14.4043C34.2485 14.554 34.0855 14.7202 33.945 14.903C33.7963 14.8473 33.6535 14.8104 33.5169 14.7922C32.9492 15.1933 32.358 15.5627 31.7432 15.9002C31.455 16.1796 31.1899 16.475 30.9481 16.7866C30.9074 16.7497 30.8665 16.7127 30.8258 16.6758C30.7633 16.9393 30.6817 17.1979 30.5811 17.4514C30.4995 17.3037 30.4181 17.3037 30.3365 17.4514C30.1121 17.777 29.9286 18.1094 29.786 18.4487C29.623 18.4487 29.4598 18.4487 29.2967 18.4487C29.336 19.0243 29.2951 19.5783 29.1744 20.1107C29.3121 18.8733 29.1083 17.6914 28.5628 16.565C28.4738 16.2931 28.3515 16.0346 28.1958 15.7894C28.2073 15.5048 28.3705 15.3386 28.6851 15.2908C28.5564 15.1006 28.6379 14.9898 28.9297 14.9584C28.7657 14.5969 28.8064 14.5415 29.0521 14.7922C29.2093 14.4519 29.413 14.138 29.6637 13.8503C30.365 13.5394 31.0378 13.1885 31.682 12.7977C31.7228 12.8346 31.7636 12.8716 31.8044 12.9085C31.9267 12.65 32.1306 12.4653 32.416 12.3545C32.4567 12.4284 32.4976 12.5022 32.5383 12.5761C32.786 12.2484 33.1326 12.1007 33.5781 12.1329C33.5674 11.7896 33.6286 11.7526 33.7615 12.0221C34.1965 11.5763 34.747 11.3363 35.4129 11.3019C35.3102 11.1173 35.3713 11.0988 35.5964 11.2465C36.0031 10.7974 36.4924 10.5388 37.0643 10.4708C37.2274 10.3231 37.3905 10.1754 37.5536 10.0276C37.6042 10.0783 37.6654 10.1152 37.7371 10.1384C37.8223 9.92961 37.9447 9.89268 38.1041 10.0276C38.3589 9.83388 38.6442 9.74154 38.9603 9.75061C38.7059 10.0069 38.5021 10.2285 38.3487 10.4154C38.4928 10.5226 38.6559 10.578 38.838 10.5816C38.9414 10.331 39.1044 10.2571 39.3273 10.36C39.4692 10.7987 39.4896 11.2419 39.3885 11.6897C39.3477 11.6528 39.3069 11.6158 39.2661 11.5789C39.231 11.8438 39.1699 12.1023 39.0827 12.3545C39.1968 12.7898 39.2375 13.233 39.205 13.6841Z" fill="#8F3DDC"/>
<path fill-rule="evenodd" clip-rule="evenodd" d="M17.0643 14.0165C19.0081 13.8627 20.476 14.5276 21.468 16.011C20.8676 16.8875 20.1336 17.6631 19.2661 18.3379C19.1064 18.4943 19.0044 18.679 18.9603 18.8919C18.0719 19.5802 17.3584 20.3373 16.8196 21.1634C16.7037 21.2169 16.5814 21.2353 16.4527 21.2188C15.6763 20.9778 15.0238 20.5714 14.4955 19.9999C13.2733 18.0383 13.5588 16.2838 15.3518 14.7368C15.889 14.4007 16.4599 14.1606 17.0643 14.0165Z" fill="#FE6C03"/>
<path fill-rule="evenodd" clip-rule="evenodd" d="M16.3303 15.6788C17.2072 15.5694 17.6353 15.9018 17.6147 16.676C17.0499 17.413 16.4791 17.413 15.9021 16.676C15.8386 16.2735 15.9813 15.9411 16.3303 15.6788Z" fill="#ECCCBF"/>
<path fill-rule="evenodd" clip-rule="evenodd" d="M8.37932 27.0915C7.54548 27.8468 6.60765 28.4746 5.56587 28.9751C3.34961 25.1778 1.82056 21.1519 0.978711 16.8976C0.593404 15.064 0.328368 13.2172 0.183603 11.3574C0.163383 10.9495 0.183771 10.5432 0.244766 10.1386C0.296673 10.8326 0.39861 10.8511 0.550576 10.194C0.363174 9.75059 0.220463 9.2889 0.122441 8.80893C0.0408919 7.66396 0.0408919 6.51899 0.122441 5.37402C0.315142 5.64515 0.498629 5.92216 0.6729 6.20505C0.566802 6.46161 0.648352 6.68322 0.917548 6.86987C0.662774 7.01617 0.703548 7.16392 1.03987 7.31308C0.9973 7.54073 1.07885 7.76233 1.28452 7.9779C1.1558 8.1681 1.23735 8.2789 1.52917 8.31031C1.49919 8.54174 1.49919 8.76334 1.52917 8.97513C1.78273 9.6675 2.06817 10.3508 2.38544 11.025C2.35984 11.0899 2.31907 11.1453 2.26311 11.1912C2.50444 11.8365 2.78987 12.4643 3.11938 13.0749C3.06343 13.1207 3.02266 13.1761 2.99706 13.2411C3.13874 13.594 3.34261 13.9079 3.60868 14.1829C3.43431 14.3728 3.47508 14.5205 3.731 14.6261C3.57541 14.8526 3.61619 15.0558 3.85333 15.2355C3.82773 15.3004 3.78696 15.3559 3.731 15.4017C3.95544 15.5045 3.99623 15.6337 3.85333 15.7895C4.04008 15.9771 4.20319 16.1803 4.34263 16.399C4.37261 16.6107 4.37261 16.8323 4.34263 17.0638C4.46495 17.1007 4.58727 17.1377 4.7096 17.1746C4.64332 17.4989 4.72486 17.8128 4.95425 18.1164C4.93926 18.3245 4.93926 18.5276 4.95425 18.7258C5.17453 18.7609 5.2153 18.8349 5.07657 18.9474C5.26474 19.3437 5.46862 19.7315 5.68819 20.1109C5.55719 20.3131 5.63875 20.4424 5.93284 20.4987C5.85129 20.5356 5.76974 20.5726 5.68819 20.6095C5.87915 21.108 6.1238 21.6251 6.42214 22.1607C6.35475 22.3156 6.31398 22.4634 6.29981 22.6039C6.44503 22.7168 6.56736 22.8462 6.66678 22.9918C6.54716 23.1359 6.58795 23.2652 6.78911 23.3796C7.08539 24.2846 7.41158 25.134 7.7677 25.928C7.62897 26.0406 7.66974 26.1145 7.89003 26.1496C7.83678 26.4154 7.91832 26.6739 8.13467 26.9253C8.0939 26.9622 8.05312 26.9992 8.01235 27.0361C8.12831 27.0896 8.25064 27.108 8.37932 27.0915Z" fill="#37E8BA"/>
<path fill-rule="evenodd" clip-rule="evenodd" d="M21.4679 16.011C21.6672 16.2723 21.8098 16.5677 21.8961 16.8974C21.9801 17.5294 21.9598 18.1572 21.8349 18.7811C21.4799 19.1892 21.5206 19.5586 21.9572 19.8891C21.3237 20.5184 20.7121 21.1647 20.1224 21.8282C20.1631 21.8651 20.204 21.9021 20.2447 21.939C20.0448 21.9937 19.8409 22.0121 19.6331 21.9944C19.4974 21.9881 19.3751 21.9512 19.2661 21.8836C19.1347 21.7301 18.9717 21.6009 18.7768 21.4958C18.1244 21.4589 17.472 21.4218 16.8196 21.3849C16.6683 21.3592 16.546 21.3038 16.4526 21.2187C16.5813 21.2353 16.7036 21.2169 16.8196 21.1633C17.3583 20.3373 18.0718 19.5802 18.9603 18.8919C19.0043 18.679 19.1063 18.4943 19.2661 18.3379C20.1336 17.6631 20.8676 16.8874 21.4679 16.011Z" fill="#FE8805"/>
<path fill-rule="evenodd" clip-rule="evenodd" d="M38.838 15.7896C38.8189 16.4119 38.6966 17.0028 38.471 17.5624C38.596 16.8629 38.6572 16.1611 38.6545 15.4572C38.3823 15.6166 38.1377 15.8013 37.9205 16.0112C37.7367 15.9741 37.5736 15.9741 37.4312 16.0112C37.3533 16.211 37.2107 16.3587 37.0031 16.4544C36.7353 16.529 36.4907 16.6398 36.2692 16.7868C36.1975 16.7637 36.1363 16.7266 36.0857 16.676C35.6445 16.8907 35.3998 17.2232 35.3517 17.6732C35.2275 17.7989 35.1459 17.762 35.1071 17.5624C34.8805 17.7541 34.9008 17.8833 35.1682 17.9503C34.8763 18.0584 34.7335 18.2615 34.7401 18.5597C34.4805 18.6394 34.4194 18.7688 34.5566 18.9475C34.4343 18.9844 34.312 19.0214 34.1897 19.0583C34.2304 19.0952 34.2712 19.1322 34.312 19.1691C34.167 19.319 34.0038 19.4483 33.8227 19.5569C33.358 19.8319 32.8687 20.0535 32.3548 20.2217C32.373 20.3383 32.3527 20.4491 32.2936 20.5541C32.2058 20.4488 32.1039 20.4304 31.9878 20.4987C31.7032 20.7199 31.5197 20.9969 31.4374 21.3298C31.3051 21.0786 31.1216 21.0601 30.8869 21.2744C30.7671 21.5406 30.5837 21.6329 30.3364 21.5514C30.2925 21.8886 30.2109 21.9257 30.0918 21.6622C30.0327 21.7672 30.0124 21.878 30.0306 21.9946C29.9019 21.9781 29.7796 21.9965 29.6637 22.05C29.5006 22.1239 29.5006 22.1977 29.6637 22.2716C29.461 22.2972 29.2978 22.3896 29.1744 22.5486C29.0525 22.5581 28.9506 22.5211 28.8686 22.4378C28.8224 22.5976 28.7205 22.7084 28.5627 22.7702C28.8013 22.1959 28.9645 21.6049 29.052 20.9973C29.1245 20.7063 29.1652 20.4107 29.1744 20.1109C29.2951 19.5785 29.336 19.0245 29.2967 18.4489C29.4597 18.4489 29.6229 18.4489 29.786 18.4489C29.9286 18.1096 30.1121 17.7772 30.3364 17.4516C30.418 17.3039 30.4995 17.3039 30.5811 17.4516C30.6816 17.1981 30.7632 16.9395 30.8257 16.676C30.8665 16.7129 30.9073 16.7499 30.9481 16.7868C31.1899 16.4752 31.455 16.1798 31.7432 15.9004C32.358 15.5629 32.9492 15.1935 33.5169 14.7924C33.6535 14.8106 33.7963 14.8475 33.945 14.9032C34.0854 14.7204 34.2485 14.5542 34.4343 14.4045C35.0456 14.2031 35.6164 13.9261 36.1468 13.5735C36.2902 13.6199 36.4125 13.6937 36.5138 13.7951C36.1592 14.0474 35.833 14.3244 35.5352 14.6262C35.5568 14.8136 35.6179 14.9798 35.7187 15.1248C35.831 14.8885 35.9941 14.8146 36.208 14.9032C36.3249 14.7836 36.4268 14.6544 36.5138 14.5153C36.6299 14.447 36.7318 14.4654 36.8196 14.5707C37.0643 14.3491 37.3089 14.1275 37.5536 13.9059C37.6414 14.0113 37.7433 14.0297 37.8594 13.9613C37.9816 13.6554 38.2262 13.5077 38.5933 13.5181C38.9466 13.2006 39.1097 13.3114 39.0826 13.8505C38.9408 14.4913 38.8594 15.1377 38.838 15.7896Z" fill="#8428D9"/>
<path fill-rule="evenodd" clip-rule="evenodd" d="M28.5626 16.5652C29.1082 17.6916 29.312 18.8734 29.1742 20.1109C29.165 20.4107 29.1243 20.7062 29.0519 20.9973C28.9376 20.879 28.8968 20.7313 28.9296 20.5541C26.8402 20.2127 24.6791 19.9727 22.4464 19.8339C22.691 19.9078 22.9357 19.9816 23.1803 20.0555C22.8326 20.027 22.5063 20.0455 22.2017 20.1109C22.1202 20.037 22.0387 19.9632 21.9571 19.8893C21.5205 19.5588 21.4798 19.1893 21.8348 18.7813C21.9102 18.7936 21.9714 18.8304 22.0183 18.8921C24.2245 18.1465 26.4059 17.3708 28.5626 16.5652Z" fill="#D7F1E5"/>
<path fill-rule="evenodd" clip-rule="evenodd" d="M15.7187 12.4654C15.7594 12.4654 15.8003 12.4654 15.841 12.4654C16.0159 12.4566 16.1791 12.4935 16.3303 12.5762C16.4838 13.1085 16.7285 13.5886 17.0643 14.0166C16.4599 14.1607 15.889 14.4008 15.3517 14.7368C13.5588 16.2839 13.2733 18.0383 14.4954 20C13.464 20.0844 12.4447 20.2321 11.4373 20.4432C11.3252 20.3737 11.2029 20.3367 11.0704 20.3324C11.0428 19.5151 11.0835 18.7026 11.1927 17.8947C11.4609 17.0575 11.8279 16.2449 12.2936 15.4571C13.1962 14.2332 14.3379 13.236 15.7187 12.4654Z" fill="#F1D3D4"/>
<path fill-rule="evenodd" clip-rule="evenodd" d="M29.0521 20.9972C28.9645 21.6047 28.8013 22.1957 28.5628 22.77C28.1017 23.7182 27.4901 24.5677 26.7279 25.3185C26.5103 25.1889 26.388 25.0043 26.3609 24.7645C26.105 24.7577 25.9215 24.6469 25.8105 24.4321C25.7697 24.0628 25.7289 23.6934 25.6881 23.324C25.6271 23.8028 25.6067 24.2829 25.627 24.7645C24.6259 24.8006 23.6473 24.7636 22.6912 24.6537C23.6291 24.6537 24.5668 24.6537 25.5047 24.6537C25.525 24.1352 25.5045 23.6182 25.4435 23.1024C24.4234 22.0493 23.3429 21.052 22.2019 20.1107C22.5065 20.0454 22.8327 20.0269 23.1805 20.0553C22.9358 19.9814 22.6912 19.9076 22.4466 19.8337C24.6792 19.9726 26.8403 20.2126 28.9297 20.554C28.8969 20.7311 28.9378 20.8788 29.0521 20.9972Z" fill="#C2EBEC"/>
<path fill-rule="evenodd" clip-rule="evenodd" d="M14.4954 20C15.0237 20.5715 15.6762 20.9778 16.4526 21.2188C16.5459 21.3039 16.6682 21.3593 16.8195 21.385C17.4719 21.4219 18.1244 21.4589 18.7767 21.4958C18.9716 21.601 19.1347 21.7302 19.266 21.8837C19.0852 21.8546 18.9222 21.8915 18.7767 21.9945C18.3924 22.654 17.9438 23.2634 17.4312 23.8227C17.5128 23.8596 17.5942 23.8966 17.6758 23.9335C17.4668 24.1458 17.3036 24.3858 17.1865 24.6537C17.0273 24.8422 16.8233 24.9715 16.5749 25.0416C16.7223 25.2891 16.6408 25.4738 16.3303 25.5956C16.6112 25.7241 16.5705 25.8349 16.2079 25.928C16.371 26.0019 16.371 26.0757 16.2079 26.1496C16.032 26.1739 15.869 26.2293 15.7186 26.3158C15.9126 26.5012 15.9942 26.7228 15.9633 26.9806C15.4951 26.7871 15.0467 26.5655 14.6177 26.3158C14.0468 25.8726 13.5168 25.3925 13.0275 24.8753C12.8925 24.666 12.7294 24.4814 12.5382 24.3213C12.0316 23.514 11.6239 22.6645 11.315 21.7729C11.2466 21.2905 11.1651 20.8104 11.0703 20.3324C11.2028 20.3367 11.3251 20.3737 11.4373 20.4432C12.4446 20.2321 13.464 20.0844 14.4954 20Z" fill="#EFE1F9"/>
<path fill-rule="evenodd" clip-rule="evenodd" d="M21.9572 19.8892C22.0388 19.9631 22.1203 20.0369 22.2019 20.1108C23.3429 21.052 24.4234 22.0493 25.4435 23.1025C25.5045 23.6182 25.5249 24.1353 25.5046 24.6537C24.5668 24.6537 23.629 24.6537 22.6912 24.6537C22.574 24.6035 22.472 24.5297 22.3854 24.4321C22.3446 24.1366 22.3038 23.8412 22.263 23.5457C21.8981 23.3887 21.5107 23.2964 21.1009 23.2687C21.0053 22.9651 20.9441 22.651 20.9175 22.3268C20.614 22.1258 20.2673 22.052 19.8777 22.1052C19.7564 22.1243 19.6749 22.0873 19.6331 21.9944C19.8409 22.0122 20.0448 21.9938 20.2447 21.939C20.2039 21.9021 20.1631 21.8651 20.1224 21.8282C20.7121 21.1647 21.3237 20.5184 21.9572 19.8892Z" fill="#FEA90B"/>
<path fill-rule="evenodd" clip-rule="evenodd" d="M19.2662 21.8836C19.3751 21.9512 19.4975 21.9881 19.6331 21.9944C19.675 22.0873 19.7564 22.1243 19.8778 22.1052C20.0513 22.2106 20.2551 22.2475 20.4894 22.216C20.508 22.6329 20.5896 23.0391 20.734 23.4349C20.7085 23.4998 20.6676 23.5552 20.6117 23.6011C20.7545 23.6565 20.8564 23.7488 20.9175 23.8781C21.1622 25.06 21.4068 26.2418 21.6515 27.4238C21.8228 27.6113 22.0471 27.6852 22.3243 27.6454C22.1203 27.7193 21.9165 27.7931 21.7126 27.867C21.0194 27.867 20.3263 27.867 19.6331 27.867C18.3057 27.8805 17.0824 27.585 15.9634 26.9806C15.9943 26.7227 15.9128 26.5011 15.7188 26.3157C15.8691 26.2292 16.0321 26.1738 16.208 26.1495C16.3711 26.0756 16.3711 26.0018 16.208 25.9279C16.5706 25.8349 16.6113 25.7241 16.3304 25.5955C16.641 25.4737 16.7224 25.289 16.575 25.0415C16.8235 24.9715 17.0274 24.8422 17.1866 24.6537C17.3037 24.3858 17.4669 24.1458 17.6759 23.9335C17.5943 23.8966 17.5129 23.8596 17.4313 23.8227C17.9439 23.2633 18.3925 22.6539 18.7769 21.9944C18.9223 21.8915 19.0854 21.8546 19.2662 21.8836Z" fill="#CFDDF3"/>
<path fill-rule="evenodd" clip-rule="evenodd" d="M38.471 17.5623C37.4901 22.8713 35.3494 27.7467 32.049 32.1883C31.2749 33.0924 30.4391 33.9418 29.5413 34.7368C29.4288 34.4035 29.2656 34.0896 29.052 33.795C29.3632 33.5983 29.3632 33.3952 29.052 33.1856C29.3856 32.8312 29.3448 32.5172 28.9297 32.2437C29.0113 32.2068 29.0928 32.1698 29.1744 32.1329C29.0695 32.0566 28.9881 31.9643 28.9297 31.8559C29.1254 31.403 29.0846 30.9781 28.8074 30.5817C28.889 30.5448 28.9704 30.5078 29.052 30.4709C28.889 30.397 28.889 30.3232 29.052 30.2493C28.9704 30.2124 28.889 30.1754 28.8074 30.1385C28.7748 29.7115 28.8156 29.3052 28.9297 28.9196C28.8529 28.6074 28.7306 28.3119 28.5627 28.0332C28.6758 27.9058 28.6758 27.795 28.5627 27.7008C28.6763 27.6578 28.7578 27.5839 28.8074 27.4792C28.5708 27.2627 28.5301 27.0227 28.6851 26.759C28.6208 26.6823 28.5393 26.6269 28.4404 26.5928C28.741 26.4252 28.741 26.2774 28.4404 26.1496C28.5078 25.9946 28.5485 25.8468 28.5627 25.7063C28.2535 25.5605 28.2535 25.4312 28.5627 25.3185C28.3744 25.2042 28.3132 25.0565 28.3793 24.8753C28.42 24.9122 28.4608 24.9492 28.5016 24.9861C28.5473 24.8846 28.6085 24.7922 28.6851 24.7091C28.5862 24.675 28.5046 24.6196 28.4404 24.5429C28.5389 24.3244 28.7021 24.1582 28.9297 24.0443C28.8738 23.9984 28.833 23.943 28.8074 23.8781C29.1149 23.6157 29.1149 23.3572 28.8074 23.1025C29.2497 23.14 29.372 22.9553 29.1744 22.5484C29.2978 22.3894 29.461 22.297 29.6637 22.2714C29.5006 22.1975 29.5006 22.1237 29.6637 22.0498C29.7796 21.9963 29.9019 21.9779 30.0306 21.9944C30.0124 21.8779 30.0327 21.7671 30.0918 21.662C30.2109 21.9255 30.2925 21.8885 30.3364 21.5512C30.5837 21.6328 30.7671 21.5405 30.8869 21.2742C31.1216 21.0599 31.3051 21.0784 31.4374 21.3296C31.5197 20.9968 31.7032 20.7197 31.9878 20.4986C32.1039 20.4302 32.2058 20.4486 32.2936 20.554C32.3527 20.4489 32.373 20.3381 32.3548 20.2216C32.8687 20.0534 33.358 19.8318 33.8227 19.5568C34.0038 19.4482 34.167 19.3189 34.312 19.1689C34.2712 19.132 34.2304 19.095 34.1896 19.0581C34.312 19.0212 34.4343 18.9842 34.5566 18.9473C34.4194 18.7686 34.4805 18.6393 34.7401 18.5595C34.7335 18.2614 34.8763 18.0582 35.1682 17.9501C34.9008 17.8832 34.8805 17.754 35.1071 17.5623C35.1459 17.7619 35.2274 17.7987 35.3517 17.6731C35.3998 17.223 35.6444 16.8906 36.0857 16.6759C36.1363 16.7265 36.1975 16.7635 36.2692 16.7867C36.4907 16.6396 36.7353 16.5288 37.0031 16.4543C37.2107 16.3585 37.3533 16.2108 37.4312 16.011C37.5736 15.9739 37.7367 15.9739 37.9205 16.011C38.1377 15.8012 38.3823 15.6165 38.6545 15.457C38.6572 16.161 38.596 16.8628 38.471 17.5623Z" fill="#7D17D6"/>
<path fill-rule="evenodd" clip-rule="evenodd" d="M19.8777 22.1053C20.2673 22.0521 20.614 22.1259 20.9174 22.3269C20.9441 22.6511 21.0053 22.9652 21.1009 23.2688C21.5107 23.2965 21.8981 23.3888 22.263 23.5458C22.3037 23.8413 22.3446 24.1367 22.3853 24.4322C22.4719 24.5298 22.574 24.6036 22.6911 24.6538C23.6472 24.7637 24.6258 24.8007 25.6269 24.7646C25.6066 24.2831 25.627 23.8029 25.6881 23.3242C25.7288 23.6935 25.7697 24.0629 25.8104 24.4322C25.9215 24.647 26.105 24.7578 26.3609 24.7646C26.3879 25.0044 26.5102 25.189 26.7278 25.3186C25.5303 26.4897 24.0624 27.2653 22.3242 27.6455C22.047 27.6853 21.8228 27.6114 21.6514 27.4239C21.4067 26.2419 21.1621 25.0601 20.9174 23.8782C20.8563 23.7489 20.7544 23.6566 20.6116 23.6012C20.6675 23.5553 20.7084 23.4999 20.734 23.435C20.5895 23.0392 20.5079 22.633 20.4893 22.2161C20.2551 22.2476 20.0513 22.2107 19.8777 22.1053Z" fill="#BFDCEB"/>
<path fill-rule="evenodd" clip-rule="evenodd" d="M12.5382 24.3213C12.7293 24.4814 12.8924 24.666 13.0274 24.8753C12.8282 25 12.6447 25.1478 12.477 25.3185C12.4393 25.229 12.3782 25.1551 12.2935 25.0969C12.2073 25.3376 12.085 25.5592 11.9265 25.7617C11.9848 25.8701 12.0664 25.9624 12.1712 26.0387C11.9037 26.2063 11.6999 26.4279 11.5596 26.7036C11.8418 26.9061 11.801 27.0907 11.4372 27.2576C11.5188 27.2945 11.6003 27.3315 11.6819 27.3684C11.5771 27.4447 11.4955 27.537 11.4372 27.6454C11.3891 27.8586 11.4706 28.0617 11.6819 28.2548C11.3901 28.2863 11.3085 28.3971 11.4372 28.5872C11.3571 28.8743 11.2348 29.1698 11.0703 29.4736C11.1872 29.7793 11.0649 30.001 10.7033 30.1385C10.8558 30.3 10.8558 30.4662 10.7033 30.6371C10.8485 30.75 10.9708 30.8793 11.0703 31.0249C10.9862 31.2722 10.9454 31.5122 10.9479 31.7451C11.0181 31.9179 11.0996 32.0841 11.1926 32.2437C11.1518 32.2806 11.111 32.3176 11.0703 32.3545C11.1838 32.3975 11.2653 32.4714 11.3149 32.5761C11.3136 32.8698 11.3136 33.1653 11.3149 33.4626C11.6074 33.5391 11.6074 33.6499 11.3149 33.795C11.6411 33.9058 11.6411 34.0166 11.3149 34.1274C11.4309 34.1809 11.5532 34.1993 11.6819 34.1828C11.6672 34.371 11.6264 34.5556 11.5596 34.7368C11.6937 35.0459 11.816 35.3598 11.9265 35.6786C11.8858 35.734 11.845 35.7894 11.8042 35.8448C11.4271 35.502 11.0194 35.2065 10.581 34.9584C8.53739 33.2184 6.86562 31.2239 5.56567 28.975C6.60746 28.4745 7.54528 27.8467 8.37913 27.0914C9.09019 26.6765 9.78336 26.2333 10.4586 25.7617C11.1298 25.2547 11.823 24.7746 12.5382 24.3213Z" fill="#D853E9"/>
<path opacity="0.999" fill-rule="evenodd" clip-rule="evenodd" d="M14.6178 26.3157C15.0467 26.5654 15.4952 26.787 15.9633 26.9805C17.0823 27.5849 18.3056 27.8804 19.633 27.8669C19.8756 31.7943 19.9572 35.7464 19.8777 39.7229C20.0456 39.7055 20.2088 39.724 20.367 39.7783C20.2157 39.804 20.0933 39.8594 20 39.9445C19.6738 39.9445 19.3477 39.9445 19.0214 39.9445C17.0823 39.2881 15.2882 38.4017 13.6392 37.2852C14.236 37.4576 14.8069 37.6792 15.3517 37.95C15.337 37.4449 15.174 36.9463 14.8624 36.4542C15.099 36.2025 15.099 35.9809 14.8624 35.7894C14.9774 35.5783 15.0181 35.3382 14.9847 35.0691C14.9264 34.9608 14.8449 34.8685 14.7401 34.7921C15.0663 34.6813 15.0663 34.5705 14.7401 34.4597C14.8028 34.0995 14.8436 33.7302 14.8624 33.3517C14.4453 33.0064 14.323 32.6002 14.4954 32.1328C14.2151 32.0002 14.1743 31.8156 14.3731 31.5788C14.0317 31.2329 13.9501 30.8451 14.1285 30.4154C14.063 30.2192 13.961 30.1823 13.8226 30.3046C13.961 30.0301 13.8998 29.7901 13.6392 29.5844C13.7208 29.4736 13.8022 29.3628 13.8838 29.252C13.734 28.9572 13.7747 28.6617 14.0061 28.3655C13.9245 28.3286 13.8431 28.2916 13.7615 28.2547C13.863 28.0612 13.9853 27.8766 14.1285 27.7007C14.1276 27.3497 14.0867 27.0358 14.0061 26.7589C14.1825 26.5014 14.3863 26.3536 14.6178 26.3157Z" fill="#BA2CE3"/>
<path fill-rule="evenodd" clip-rule="evenodd" d="M29.1742 22.5485C29.3719 22.9554 29.2496 23.1401 28.8073 23.1026C29.1148 23.3573 29.1148 23.6158 28.8073 23.8782C28.8328 23.9431 28.8737 23.9985 28.9296 24.0444C28.702 24.1583 28.5388 24.3245 28.4403 24.543C28.5045 24.6197 28.5861 24.6751 28.6849 24.7092C28.6084 24.7923 28.5472 24.8847 28.5015 24.9862C28.4607 24.9493 28.4199 24.9123 28.3791 24.8754C28.3131 25.0566 28.3742 25.2043 28.5626 25.3186C28.2534 25.4313 28.2534 25.5606 28.5626 25.7064C28.5484 25.8469 28.5077 25.9948 28.4403 26.1497C28.7409 26.2775 28.7409 26.4253 28.4403 26.5929C28.5391 26.627 28.6207 26.6824 28.6849 26.7591C28.53 27.0228 28.5707 27.2628 28.8073 27.4793C28.7577 27.584 28.6761 27.6579 28.5626 27.7009C28.6757 27.7951 28.6757 27.9059 28.5626 28.0333C28.7305 28.312 28.8528 28.6075 28.9296 28.9197C28.8155 29.3053 28.7747 29.7116 28.8073 30.1386C28.8889 30.1755 28.9703 30.2125 29.0519 30.2494C28.8889 30.3233 28.8889 30.3971 29.0519 30.471C28.9703 30.5079 28.8889 30.5449 28.8073 30.5818C29.0845 30.9782 29.1253 31.4031 28.9296 31.856C28.9879 31.9644 29.0694 32.0567 29.1742 32.133C29.0927 32.1699 29.0112 32.2069 28.9296 32.2438C29.3446 32.5173 29.3855 32.8313 29.0519 33.1857C29.3631 33.3953 29.3631 33.5984 29.0519 33.7951C29.2655 34.0897 29.4287 34.4036 29.5412 34.7369C27.6676 36.5277 25.5065 37.9682 23.058 39.0582C22.8804 38.9694 22.6766 38.914 22.4464 38.892C22.6957 38.6384 22.6957 38.3614 22.4464 38.061C22.3777 37.7361 22.4591 37.4222 22.6911 37.1192C22.4107 36.9866 22.37 36.802 22.5687 36.5652C22.3935 36.2725 22.2711 35.9586 22.2018 35.6233C22.3276 35.6459 22.45 35.5905 22.5687 35.4571C22.5077 35.146 22.3854 34.9428 22.2018 34.8477C22.5689 34.5725 22.5892 34.314 22.2629 34.0721C22.2222 34.146 22.1813 34.2198 22.1406 34.2937C22.0397 34.0498 22.1009 33.8467 22.3241 33.6843C21.9275 33.6529 21.8867 33.5605 22.2018 33.4073C22.1375 33.3306 22.056 33.2752 21.9571 33.2411C22.0938 32.9006 22.1142 32.5497 22.0183 32.1884C21.9265 32.1191 21.8245 32.0637 21.7125 32.0222C22.0065 31.9659 22.0881 31.8366 21.9571 31.6344C22.0213 31.5577 22.1029 31.5023 22.2018 31.4682C21.9541 31.3359 21.9132 31.1697 22.0794 30.9696C22.0042 30.7905 21.8819 30.6428 21.7125 30.5264C21.865 30.3555 21.865 30.1893 21.7125 30.0278C21.8173 29.9514 21.8988 29.8591 21.9571 29.7508C21.7941 29.6031 21.7941 29.4553 21.9571 29.3075C21.6958 29.1577 21.655 28.9731 21.8348 28.7535C21.5893 28.4888 21.5486 28.1933 21.7125 27.8671C21.9164 27.7932 22.1202 27.7194 22.3241 27.6455C24.0623 27.2653 25.5302 26.4897 26.7278 25.3186C27.49 24.5678 28.1016 23.7183 28.5626 22.7702C28.7204 22.7083 28.8223 22.5975 28.8684 22.4377C28.9505 22.5211 29.0524 22.5581 29.1742 22.5485Z" fill="#981FD8"/>
<path opacity="0.999" fill-rule="evenodd" clip-rule="evenodd" d="M19.6331 27.8669C20.3263 27.8669 21.0194 27.8669 21.7126 27.8669C21.5487 28.1931 21.5894 28.4887 21.8349 28.7534C21.6551 28.973 21.6959 29.1576 21.9572 29.3074C21.7942 29.4551 21.7942 29.6029 21.9572 29.7506C21.8989 29.859 21.8174 29.9513 21.7126 30.0276C21.8651 30.1892 21.8651 30.3554 21.7126 30.5262C21.882 30.6427 22.0043 30.7904 22.0795 30.9694C21.9133 31.1695 21.9542 31.3358 22.2019 31.4681C22.103 31.5022 22.0214 31.5576 21.9572 31.6343C22.0882 31.8365 22.0066 31.9658 21.7126 32.0221C21.8246 32.0635 21.9266 32.1189 22.0184 32.1883C22.1143 32.5495 22.0939 32.9004 21.9572 33.2409C22.0561 33.275 22.1376 33.3304 22.2019 33.4071C21.8868 33.5604 21.9276 33.6528 22.3242 33.6841C22.1009 33.8466 22.0398 34.0497 22.1407 34.2935C22.1814 34.2196 22.2223 34.1458 22.263 34.0719C22.5893 34.3138 22.569 34.5723 22.2019 34.8476C22.3855 34.9426 22.5078 35.1458 22.5688 35.457C22.4501 35.5904 22.3277 35.6458 22.2019 35.6232C22.2712 35.9585 22.3935 36.2724 22.5688 36.565C22.3701 36.8018 22.4108 36.9864 22.6912 37.119C22.4592 37.4221 22.3778 37.736 22.4465 38.0608C22.6958 38.3612 22.6958 38.6382 22.4465 38.8919C22.6767 38.9138 22.8805 38.9692 23.0581 39.0581C22.2611 39.3273 21.4863 39.6228 20.734 39.9445C20.4893 39.9445 20.2447 39.9445 20 39.9445C20.0934 39.8594 20.2157 39.804 20.367 39.7783C20.2088 39.724 20.0457 39.7055 19.8777 39.7229C19.9572 35.7464 19.8756 31.7944 19.6331 27.8669Z" fill="#A624D9"/>
<path fill-rule="evenodd" clip-rule="evenodd" d="M13.0275 24.8752C13.5168 25.3924 14.0469 25.8725 14.6178 26.3157C14.3863 26.3536 14.1825 26.5014 14.0061 26.7589C14.0867 27.0358 14.1276 27.3497 14.1285 27.7007C13.9853 27.8766 13.863 28.0612 13.7615 28.2547C13.8431 28.2916 13.9245 28.3287 14.0061 28.3655C13.7747 28.6617 13.734 28.9572 13.8838 29.252C13.8022 29.3628 13.7207 29.4736 13.6392 29.5844C13.8998 29.7901 13.961 30.0301 13.8226 30.3046C13.961 30.1823 14.063 30.2192 14.1285 30.4154C13.9501 30.8451 14.0317 31.2329 14.3731 31.5788C14.1743 31.8156 14.2151 32.0002 14.4954 32.1329C14.323 32.6002 14.4453 33.0064 14.8624 33.3517C14.8436 33.7302 14.8028 34.0995 14.7401 34.4597C15.0663 34.5705 15.0663 34.6813 14.7401 34.7921C14.8449 34.8685 14.9264 34.9608 14.9847 35.0691C15.0181 35.3382 14.9774 35.5783 14.8624 35.7894C15.099 35.981 15.099 36.2026 14.8624 36.4542C15.174 36.9463 15.337 37.4449 15.3517 37.95C14.8069 37.6792 14.236 37.4576 13.6392 37.2852C12.5117 36.6339 11.4923 35.8583 10.5811 34.9583C11.0195 35.2064 11.4272 35.5019 11.8043 35.8448C11.8451 35.7894 11.8858 35.734 11.9266 35.6786C11.8161 35.3598 11.6938 35.0459 11.5596 34.7367C11.6265 34.5556 11.6672 34.371 11.682 34.1827C11.5533 34.1992 11.431 34.1808 11.315 34.1273C11.6412 34.0165 11.6412 33.9057 11.315 33.7949C11.6075 33.6499 11.6075 33.5391 11.315 33.4625C11.3137 33.1652 11.3137 32.8697 11.315 32.5761C11.2654 32.4714 11.1839 32.3975 11.0704 32.3545C11.1111 32.3176 11.1519 32.2806 11.1927 32.2437C11.0997 32.084 11.0182 31.9178 10.948 31.7451C10.9455 31.5121 10.9863 31.2721 11.0704 31.0248C10.9709 30.8792 10.8486 30.7499 10.7034 30.637C10.8559 30.4662 10.8559 30.3 10.7034 30.1384C11.065 30.0009 11.1873 29.7793 11.0704 29.4736C11.2349 29.1698 11.3572 28.8742 11.4373 28.5872C11.3086 28.397 11.3902 28.2862 11.682 28.2547C11.4707 28.0616 11.3892 27.8585 11.4373 27.6453C11.4956 27.537 11.5772 27.4447 11.682 27.3683C11.6004 27.3314 11.5189 27.2944 11.4373 27.2575C11.8011 27.0906 11.8419 26.906 11.5596 26.7035C11.7 26.4278 11.9038 26.2062 12.1713 26.0387C12.0665 25.9623 11.9849 25.87 11.9266 25.7617C12.0851 25.5591 12.2074 25.3375 12.2936 25.0969C12.3782 25.155 12.4394 25.2289 12.4771 25.3185C12.6448 25.1477 12.8283 24.9999 13.0275 24.8752Z" fill="#CF45E7"/>
</g>
<defs>
<clipPath id="clip0_543_557">
<rect width="40" height="40" fill="white"/>
</clipPath>
</defs>
</svg>
