<svg width="65" height="64" viewBox="0 0 65 64" fill="none" xmlns="http://www.w3.org/2000/svg">
<path d="M32.002 12.801C23.4685 12.801 18.137 17.066 16.002 25.5995C19.201 21.334 22.9355 19.7345 27.201 20.801C29.6365 21.408 31.377 23.174 33.3045 25.131C36.4415 28.3145 40.0725 32 48.002 32C56.535 32 61.867 27.7345 64.002 19.199C60.8025 23.467 57.0685 25.0665 52.8025 24C50.3675 23.3925 48.629 21.627 46.699 19.67C43.564 16.4865 39.934 12.801 32.002 12.801ZM16.002 32C7.46901 32 2.13701 36.2655 0.00201416 44.801C3.20101 40.533 6.93501 38.9335 11.201 40C13.6365 40.6075 15.377 42.373 17.3045 44.33C20.4415 47.5135 24.0725 51.199 32.002 51.199C40.535 51.199 45.867 46.934 48.002 38.4005C44.8025 42.666 41.0685 44.2655 36.8025 43.199C34.3675 42.592 32.629 40.826 30.699 38.869C27.564 35.6855 23.934 32 16.002 32Z" fill="#38B2AC"/>
</svg>
