<svg width="64" height="64" viewBox="0 0 64 64" fill="none" xmlns="http://www.w3.org/2000/svg">
<path d="M11.335 23.5H61.17V60.335H11.335V23.5Z" fill="white"/>
<path d="M0.75 31.9551V63.2051H63.25V0.705078H0.75V31.9551ZM51.115 29.4551C52.6119 29.8025 53.9725 30.5854 55.025 31.7051C55.6044 32.3083 56.1081 32.9799 56.525 33.7051C56.525 33.7851 53.825 35.6101 52.18 36.6301C52.12 36.6701 51.88 36.4101 51.615 36.0151C51.3147 35.4969 50.888 35.0633 50.3748 34.7546C49.8615 34.446 49.2785 34.2724 48.68 34.2501C46.785 34.1201 45.565 35.1151 45.575 36.7501C45.5593 37.1572 45.6525 37.561 45.845 37.9201C46.26 38.7851 47.035 39.3001 49.465 40.3501C53.94 42.2751 55.855 43.5451 57.045 45.3501C58.375 47.3501 58.67 50.5801 57.77 52.9701C56.77 55.5701 54.32 57.3351 50.855 57.9201C49.2724 58.1013 47.6734 58.0845 46.095 57.8701C43.6758 57.4713 41.4474 56.3098 39.735 54.5551C39.16 53.9201 38.04 52.2651 38.11 52.1451C38.2925 52.0096 38.4847 51.8876 38.685 51.7801L41 50.5001L42.795 49.4601L43.17 50.0151C43.8029 50.9204 44.6083 51.6918 45.54 52.2851C47.54 53.3351 50.27 53.1901 51.62 51.9751C52.0733 51.5299 52.356 50.9398 52.4191 50.3076C52.4821 49.6753 52.3214 49.041 51.965 48.5151C51.465 47.8201 50.465 47.2351 47.67 46.0151C44.445 44.6251 43.055 43.7651 41.785 42.3951C40.9922 41.491 40.4068 40.4244 40.07 39.2701C39.8188 37.9513 39.7816 36.6007 39.96 35.2701C40.625 32.1551 42.96 29.9801 46.37 29.3351C47.9492 29.1397 49.5489 29.1835 51.115 29.4651V29.4551ZM36.445 32.0751V34.6351H28.33V57.7501H22.575V34.6301H14.44V32.1301C14.4147 31.268 14.4347 30.4051 14.5 29.5451C14.54 29.5001 19.5 29.5001 25.5 29.5001H36.415L36.445 32.0751Z" fill="#007ACC"/>
</svg>
