<svg width="64" height="64" viewBox="0 0 64 64" fill="none" xmlns="http://www.w3.org/2000/svg">
<path d="M1.82802 22.5214C1.82802 22.5214 0.314515 21.4259 2.13302 19.9649L6.36702 16.1679C6.36702 16.1679 7.58002 14.8884 8.86152 16.0039L47.949 45.6679V59.8929C47.949 59.8929 47.9295 62.1269 45.0705 61.8809L1.82802 22.5214Z" fill="#2489CA"/>
<path d="M11.9045 31.6895L1.82798 40.871C1.82798 40.871 0.792981 41.6425 1.82798 43.0235L6.50598 47.287C6.50598 47.287 7.61698 48.4845 9.25998 47.123L19.9395 39.004L11.9045 31.6895Z" fill="#1070B3"/>
<path d="M29.592 31.7655L48.0685 17.623L47.949 3.47447C47.949 3.47447 47.16 0.386467 44.5275 1.99497L19.9395 24.4255L29.592 31.7655Z" fill="#0877B9"/>
<path d="M45.07 61.8985C46.1425 63 47.4435 62.6385 47.4435 62.6385L61.842 55.5275C63.6855 54.2675 63.4275 52.705 63.4275 52.705V10.2325C63.4275 8.36497 61.5215 7.72047 61.5215 7.72047L49.041 1.68997C46.3145 0.000468254 44.5275 1.99497 44.5275 1.99497C44.5275 1.99497 46.824 0.336468 47.949 3.47497V59.6335C47.949 60.02 47.867 60.3985 47.703 60.7405C47.375 61.4065 46.66 62.0255 44.951 61.766L45.07 61.8985Z" fill="#3C99D4"/>
</svg>
